<?xml version="1.0" encoding="UTF-8" standalone="no"?>
<svg width="718px" height="453px" viewBox="0 0 718 453" version="1.1" xmlns="http://www.w3.org/2000/svg" xmlns:xlink="http://www.w3.org/1999/xlink">
    <!-- Generator: Sketch 41.2 (35397) - http://www.bohemiancoding.com/sketch -->
    <title>Page 1</title>
    <desc>Created with Sketch.</desc>
    <defs>
        <polygon id="path-1" points="169.8577 352.419 538 352.419 538 32.6462881 486.17 0.764 0.064 267.655 169.8577 352.419"></polygon>
        <path d="M56.6079841,16.9922776 C56.6079845,13.0684437 53.626118,9.20438546 48.043,5.981 C37.105,-0.333 22.08,-0.983 10.018,5.981 L10.018,27.935 C16.0234481,31.4024224 22.5335207,33.119056 29.0254717,33.1190574 L0.975249611,33.1190574 L0.975249611,0.998770482 L56.6079841,0.998770482 L56.6079841,16.9922837 L56.6079841,16.9922776 Z M29.0254717,33.1190574 L29.0254717,33.1190574 L29.0254717,33.1190574 Z" id="path-3"></path>
        <path d="M9.98457953,0.752915836 C9.97539283,0.752915878 9.96619962,0.752943905 9.957,0.753 C9.138,0.759 8.371,0.986 7.714,1.377 L1.326,5.17 C0.67350134,5.5571093 0.237007521,6.26971898 0.236993164,7.08238878 L0.236993164,0.752915836 L9.98457953,0.752915836 L9.98457953,0.752915836 Z M9.98457953,0.752915836 C9.98462479,0.752915836 9.98467005,0.752915836 9.98471531,0.752915837 L97.6850017,0.752915836 L97.6850017,51.9137503 L97.6850017,51.9137512 L97.6850017,51.9137989 C97.6849861,52.7356299 97.2382472,53.4534365 96.575,53.838 L90.443,57.391 C89.4589379,57.9615572 88.3177774,58.2910326 87.0990697,58.2910359 L87.0990697,58.2910359 C87.091716,58.291036 87.0843594,58.291024 87.077,58.291 C85.851,58.287 84.703,57.952 83.717,57.372 L1.335,9.002 C0.68,8.617 0.239,7.904 0.237,7.088 C0.236995444,7.08614327 0.236993166,7.08428706 0.236993164,7.08243137 L0.236993164,7.08242672 C0.236993164,7.08241717 0.236993164,7.08240297 0.236993164,7.08238878 L9.98457953,0.752915836 Z" id="path-5"></path>
        <path d="M0.13966614,6.49470192 C0.139665833,8.0300843 1.30637982,9.54222872 3.491,10.804 L18.371,10.804 C23.091,8.078 23.087,4.935 18.371,2.213 C13.655,-0.51 8.145,-0.474 3.491,2.213 C1.21300881,3.52799771 0.139666436,5.02203893 0.13966614,6.49470191 L0.13966614,6.49470192 L0.13966614,6.49470192 Z" id="path-7"></path>
        <path d="M11.1465806,2.11538178 C11.146577,1.36791023 10.5786519,0.63199869 9.515,0.018 L2.271,0.018 C-0.028,1.345 -0.026,2.875 2.271,4.201 C4.566,5.526 7.249,5.509 9.515,4.201 C10.6239582,3.56010542 11.1465752,2.83243426 11.1465806,2.1154 L11.1465806,2.11538178 L11.1465806,2.11538178 Z" id="path-9"></path>
    </defs>
    <g id="Telas" stroke="none" stroke-width="1" fill="none" fill-rule="evenodd" opacity="0.271456069">
        <g id="Page-1">
            <g id="Group-3" transform="translate(221.000000, 177.581000)">
                <mask id="mask-2" fill="white">
                    <use xlink:href="#path-1"></use>
                </mask>
                <g id="Clip-2"></g>
                <polygon id="Fill-1" mask="url(#mask-2)" points="0.064 267.655 441.643 488.099 601.991 499 913.584 263.68 486.17 0.764"></polygon>
            </g>
            <g id="Group-384" transform="translate(0.000000, 0.581000)">
                <path d="M276.8481,444.5594 C268.6511,449.3294 259.1361,452.0874 248.9691,452.1054 C238.8031,452.1224 229.2781,449.3964 221.0641,444.6554 L11.9141,323.9244 C5.2561,320.0814 0.7831,312.8824 0.7871,304.6424 C0.7911,296.4024 5.2721,289.2074 11.9341,285.3724 L448.9161,33.7274 C455.4571,29.9614 463.0361,27.7894 471.1271,27.7904 C479.2181,27.7904 486.7971,29.9634 493.3371,33.7314 L706.0681,156.2764 C712.7181,160.1074 717.1951,167.2834 717.2131,175.5094 C717.2301,183.7354 712.7841,190.9304 706.1511,194.7894 L276.8481,444.5594 Z" id="Fill-4" fill="#232323"></path>
                <polygon id="Fill-6" fill="#232323" points="0.833 304.89 20.918 304.89 20.918 278.37 0.833 278.37"></polygon>
                <polygon id="Fill-8" fill="#232323" points="697.128 177.058 717.213 177.058 717.213 147.505 697.128 147.505"></polygon>
                <path d="M276.8481,416.8631 C268.6511,421.6321 259.1361,424.3901 248.9691,424.4081 C238.8031,424.4251 229.2781,421.6991 221.0641,416.9581 L11.9141,296.2271 C5.2561,292.3841 0.7831,285.1851 0.7871,276.9451 C0.7911,268.7061 5.2721,261.5101 11.9341,257.6751 L448.9161,6.0311 C455.4571,2.2641 463.0361,0.0931 471.1271,0.0931 C479.2181,0.0941 486.7971,2.2661 493.3371,6.0341 L706.0681,128.5791 C712.7181,132.4101 717.1951,139.5871 717.2131,147.8121 C717.2301,156.0381 712.7841,163.2341 706.1511,167.0921 L276.8481,416.8631 Z" id="Fill-9" fill="#444444"></path>
                <polygon id="Fill-10" fill="#63D0E7" points="55.3569 251.2821 426.1079 36.6571 662.6429 173.2201 291.8919 387.8451"></polygon>
                <path d="M105.0176,314.9813 C117.0796,308.0173 132.1056,308.6673 143.0436,314.9813 C153.9806,321.2953 154.9346,330.0703 143.0436,336.9353 C131.1516,343.8003 117.0686,343.8933 105.0176,336.9353 C92.9666,329.9773 92.9556,321.9453 105.0176,314.9813" id="Fill-11" fill="#41403C"></path>
                <path d="M113.4131,319.9354 C120.0811,316.0854 128.3881,316.4444 134.4341,319.9354 C140.4801,323.4254 141.0081,328.2764 134.4341,332.0714 C127.8601,335.8674 120.0751,335.9174 113.4131,332.0714 C106.7511,328.2254 106.7461,323.7854 113.4131,319.9354 Z" id="Stroke-12" stroke="#EBEBEB" stroke-width="2"></path>
                <g id="Group-15" transform="translate(95.000000, 309.000000)">
                    <mask id="mask-4" fill="white">
                        <use xlink:href="#path-3"></use>
                    </mask>
                    <g id="Clip-14"></g>
                    <path d="M10.018,5.981 C22.08,-0.983 37.105,-0.333 48.043,5.981 C58.981,12.296 59.935,21.07 48.043,27.935 C36.152,34.801 22.069,34.893 10.018,27.935 C-2.034,20.977 -2.044,12.945 10.018,5.981" id="Fill-13" mask="url(#mask-4)"></path>
                </g>
                <path d="M515.7139,47.3768 C516.3709,46.9858 517.1379,46.7588 517.9569,46.7528 C518.7769,46.7478 519.5459,46.9658 520.2089,47.3478 L604.5699,95.9858 C605.2359,96.3688 605.6839,97.0878 605.6849,97.9108 C605.6859,98.7338 605.2389,99.4538 604.5749,99.8378 L598.4429,103.3918 C597.4529,103.9648 596.3039,104.2948 595.0769,104.2908 C593.8509,104.2878 592.7029,103.9518 591.7169,103.3728 L509.3349,55.0018 C508.6799,54.6168 508.2389,53.9038 508.2369,53.0878 C508.2349,52.2728 508.6719,51.5578 509.3259,51.1698 L515.7139,47.3768 Z" id="Fill-16" fill="#232323"></path>
                <g id="Group-19" transform="translate(508.000000, 46.000000)">
                    <mask id="mask-6" fill="white">
                        <use xlink:href="#path-5"></use>
                    </mask>
                    <g id="Clip-18"></g>
                    <path d="M7.714,1.377 C8.371,0.986 9.138,0.759 9.957,0.753 C10.777,0.748 11.546,0.966 12.209,1.348 L96.57,49.986 C97.236,50.369 97.684,51.088 97.685,51.911 C97.686,52.734 97.239,53.453 96.575,53.838 L90.443,57.391 C89.453,57.965 88.304,58.295 87.077,58.291 C85.851,58.287 84.703,57.952 83.717,57.372 L1.335,9.002 C0.68,8.617 0.239,7.904 0.237,7.088 C0.235,6.273 0.672,5.558 1.326,5.17 L7.714,1.377 Z" id="Fill-17" mask="url(#mask-6)"></path>
                </g>
                <path d="M486.6787,36.1342 C491.3987,33.4092 497.2787,33.6632 501.5577,36.1342 C505.8377,38.6052 506.2107,42.0382 501.5577,44.7242 C496.9047,47.4112 491.3937,47.4472 486.6787,44.7242 C481.9627,42.0022 481.9577,38.8592 486.6787,36.1342" id="Fill-20" fill="#3B3C3F"></path>
                <path d="M490.4521,38.3607 C492.7471,37.0357 495.6061,37.1587 497.6871,38.3607 C499.7691,39.5627 499.9511,41.2317 497.6871,42.5387 C495.4251,43.8447 492.7451,43.8617 490.4521,42.5387 C488.1591,41.2147 488.1571,39.6857 490.4521,38.3607" id="Fill-21" fill="#253B7D"></path>
                <path d="M491.916,39.2245 C493.27,38.4425 494.958,38.5155 496.187,39.2245 C497.416,39.9335 497.522,40.9195 496.187,41.6905 C494.852,42.4615 493.27,42.4725 491.916,41.6905 C490.562,40.9095 490.561,40.0065 491.916,39.2245" id="Fill-22" fill="#3048A9"></path>
                <g id="Group-25" transform="translate(483.000000, 34.000000)">
                    <mask id="mask-8" fill="white">
                        <use xlink:href="#path-7"></use>
                    </mask>
                    <g id="Clip-24"></g>
                    <path d="M3.491,10.804 C7.771,13.274 13.651,13.529 18.371,10.804 C23.091,8.078 23.087,4.935 18.371,2.213 C13.655,-0.51 8.145,-0.474 3.491,2.213 C-1.162,4.899 -0.789,8.332 3.491,10.804" id="Fill-23" mask="url(#mask-8)"></path>
                </g>
                <path d="M474.2705,29.0179 C476.5685,27.6909 479.4305,27.8149 481.5145,29.0179 C483.5985,30.2209 483.7805,31.8929 481.5145,33.2009 C479.2495,34.5089 476.5665,34.5259 474.2705,33.2009 C471.9735,31.8749 471.9715,30.3449 474.2705,29.0179" id="Fill-26" fill="#939393"></path>
                <path d="M476.1074,30.1019 C477.2244,29.4569 478.6174,29.5169 479.6304,30.1019 C480.6434,30.6869 480.7324,31.4999 479.6304,32.1359 C478.5284,32.7719 477.2234,32.7809 476.1074,32.1359 C474.9914,31.4919 474.9904,30.7479 476.1074,30.1019" id="Fill-27" fill="#AAAAAA"></path>
                <path d="M476.8203,30.5223 C477.4793,30.1413 478.3013,30.1773 478.8993,30.5223 C479.4983,30.8683 479.5493,31.3473 478.8993,31.7233 C478.2493,32.0983 477.4793,32.1043 476.8203,31.7233 C476.1613,31.3423 476.1603,30.9033 476.8203,30.5223" id="Fill-28" fill="#F2F2F2"></path>
                <g id="Group-31" transform="translate(472.000000, 29.000000)">
                    <mask id="mask-10" fill="white">
                        <use xlink:href="#path-9"></use>
                    </mask>
                    <g id="Clip-30"></g>
                    <path d="M9.515,0.018 C7.431,-1.185 4.568,-1.309 2.271,0.018 C-0.028,1.345 -0.026,2.875 2.271,4.201 C4.566,5.526 7.249,5.509 9.515,4.201 C11.78,2.892 11.599,1.221 9.515,0.018" id="Fill-29" mask="url(#mask-10)"></path>
                </g>
                <path d="M622.4521,110.6356 C622.4121,110.4506 622.3381,110.2686 622.2311,110.0886 C622.1781,109.9986 622.1161,109.9096 622.0461,109.8226 C621.8371,109.5586 621.5561,109.3036 621.2041,109.0646 C621.0871,108.9846 620.9631,108.9066 620.8311,108.8306 C620.3021,108.5246 619.7231,108.2876 619.1171,108.1256 C618.5111,107.9636 617.8761,107.8756 617.2351,107.8666 C616.9141,107.8636 616.5921,107.8796 616.2701,107.9166 C615.6281,107.9896 614.9891,108.1476 614.3761,108.3936 C614.0681,108.5166 613.7681,108.6616 613.4761,108.8306 C612.0181,109.6726 611.4731,110.5946 611.8371,111.4966 C612.0561,112.0376 612.6021,112.5716 613.4761,113.0756 C614.0591,113.4126 614.6661,113.6636 615.2851,113.8306 C615.5951,113.9136 615.9071,113.9766 616.2221,114.0176 C617.7901,114.2236 619.3931,113.9066 620.8311,113.0756 C621.9801,112.4116 622.5101,111.6566 622.4861,110.9136 C622.4831,110.8206 622.4721,110.7276 622.4521,110.6356" id="Fill-32" fill="#232323"></path>
                <path d="M622.452,110.636 C622.412,110.451 622.338,110.268 622.231,110.089 C622.178,109.999 622.116,109.91 622.046,109.822 C621.837,109.558 621.556,109.304 621.204,109.065 C621.087,108.985 620.963,108.907 620.831,108.83 C620.302,108.525 619.724,108.288 619.117,108.126 C618.511,107.963 617.876,107.875 617.235,107.867 C616.914,107.863 616.592,107.879 616.271,107.916 C615.628,107.99 614.989,108.147 614.376,108.393 C614.068,108.516 613.769,108.662 613.477,108.83 C612.019,109.672 611.473,110.595 611.837,111.496 C612.056,112.038 612.603,112.572 613.477,113.076 C614.06,113.412 614.666,113.664 615.285,113.83 C615.595,113.914 615.907,113.976 616.222,114.017 C617.79,114.224 619.394,113.906 620.831,113.076 C621.98,112.412 622.51,111.656 622.486,110.913 C622.483,110.82 622.472,110.728 622.452,110.636" id="Fill-33"></path>
                <polygon id="Fill-35" fill="#94BC69" points="239.0537 293.4784 135.2267 233.4154 265.8747 162.2824 368.2797 218.6284"></polygon>
                <polygon id="Fill-36" fill="#94BC69" points="470.4473 264.4969 366.6203 204.4339 497.2683 133.3019 599.6733 189.6479"></polygon>
                <polygon id="Fill-37" fill="#444444" points="336.7446 341.4344 239.1086 284.9534 361.9666 218.0604 458.2656 271.0484"></polygon>
                <path d="M235.2695,293.9989 L240.4615,290.9909" id="Stroke-38" stroke="#FFFFFF" stroke-width="3"></path>
                <path d="M250.854,284.9715 L474.301,155.5495" id="Stroke-39" stroke="#FFFFFF" stroke-width="3" stroke-dasharray="12.01,12.01"></path>
                <path d="M479.4971,152.5399 L484.6881,149.5319" id="Stroke-40" stroke="#FFFFFF" stroke-width="3"></path>
                <polygon id="Fill-41" fill="#444444" points="377.3838 213.5789 273.5568 153.5169 404.2038 82.3829 506.6098 138.7299"></polygon>
                <polygon id="Fill-42" fill="#ABCACE" points="416.875 121.4872 387.145 138.7142 416.875 155.8582 446.604 138.7142"></polygon>
                <polygon id="Fill-43" fill="#D7F9F7" points="416.875 62.8778 387.145 80.1048 416.875 97.2488 446.604 80.1048"></polygon>
                <polygon id="Fill-44" fill="#C3DDDC" points="416.875 155.8583 387.145 138.7133 387.145 80.1053 416.875 97.2483"></polygon>
                <polygon id="Fill-45" fill="#666666" points="399.4834 103.6693 394.3644 100.7173 394.3644 90.6273 399.4834 93.5783"></polygon>
                <polygon id="Fill-46" fill="#666666" points="409.6553 109.1952 404.5363 106.2432 404.5363 96.1522 409.6553 99.1042"></polygon>
                <polygon id="Fill-47" fill="#666666" points="399.4834 115.7162 394.3644 112.7642 394.3644 102.6742 399.4834 105.6252"></polygon>
                <polygon id="Fill-48" fill="#666666" points="409.6553 121.2421 404.5363 118.2901 404.5363 108.2001 409.6553 111.1511"></polygon>
                <polygon id="Fill-49" fill="#666666" points="399.4834 127.7631 394.3644 124.8111 394.3644 114.7211 399.4834 117.6721"></polygon>
                <polygon id="Fill-50" fill="#666666" points="409.6553 133.2889 404.5363 130.3369 404.5363 120.2469 409.6553 123.1979"></polygon>
                <polygon id="Fill-51" fill="#A2BCBA" points="416.875 155.6991 446.604 138.5551 446.604 79.9461 416.875 97.0901"></polygon>
                <polygon id="Fill-52" fill="#444444" points="429.2129 132.1346 424.0939 135.0866 424.0939 145.1776 429.2129 142.2256"></polygon>
                <polygon id="Fill-53" fill="#444444" points="439.3848 126.6093 434.2668 129.5613 434.2668 139.6513 439.3848 136.7003"></polygon>
                <polygon id="Fill-54" fill="#444444" points="429.2129 120.0878 424.0939 123.0398 424.0939 133.1308 429.2129 130.1788"></polygon>
                <polygon id="Fill-55" fill="#444444" points="439.3848 114.5619 434.2668 117.5139 434.2668 127.6049 439.3848 124.6529"></polygon>
                <polygon id="Fill-56" fill="#444444" points="429.2129 108.0409 424.0939 110.9929 424.0939 121.0829 429.2129 118.1319"></polygon>
                <polygon id="Fill-57" fill="#444444" points="439.3848 102.515 434.2668 105.467 434.2668 115.557 439.3848 112.606"></polygon>
                <polygon id="Fill-58" fill="#444444" points="429.2129 95.9935 424.0939 98.9455 424.0939 109.0365 429.2129 106.0845"></polygon>
                <polygon id="Fill-59" fill="#444444" points="439.3848 90.4681 434.2668 93.4201 434.2668 103.5101 439.3848 100.5591"></polygon>
                <polygon id="Fill-60" fill="#666666" points="408.292 149.4716 402.01 145.8496 402.01 133.4646 408.292 137.0866"></polygon>
                <polygon id="Fill-61" fill="#666666" points="402.0098 145.8387 395.7278 142.2167 395.7278 129.8317 402.0098 133.4537"></polygon>
                <polygon id="Fill-62" fill="#A8A8A8" points="410.4883 137.5673 408.2793 138.8383 393.5313 130.0263 395.6783 128.9263"></polygon>
                <polygon id="Fill-63" fill="#8E8E8E" points="393.5312 130.0267 393.5312 130.8507 408.2792 139.6517 408.2792 138.8387"></polygon>
                <polygon id="Fill-64" fill="#666666" points="408.2793 139.6512 410.4883 138.3462 410.4883 137.5672 408.2793 138.8392"></polygon>
                <polygon id="Fill-65" fill="#ABCACE" points="364.7549 137.9052 324.8009 161.0562 364.7549 184.0962 404.7089 161.0562"></polygon>
                <polygon id="Fill-66" fill="#D7F9F7" points="364.7549 59.1395 324.8009 82.2905 364.7549 105.3305 404.7089 82.2905"></polygon>
                <polygon id="Fill-67" fill="#C3DDDC" points="364.7549 184.0965 324.8009 161.0565 324.8009 82.2905 364.7549 105.3305"></polygon>
                <polygon id="Fill-68" fill="#5BAAA4" points="341.3823 113.9598 334.5033 109.9928 334.5033 96.4318 341.3823 100.3978"></polygon>
                <polygon id="Fill-69" fill="#5BAAA4" points="355.0527 121.3856 348.1737 117.4186 348.1737 103.8576 355.0527 107.8236"></polygon>
                <polygon id="Fill-70" fill="#5BAAA4" points="341.3823 130.1498 334.5033 126.1828 334.5033 112.6218 341.3823 116.5878"></polygon>
                <polygon id="Fill-71" fill="#5BAAA4" points="355.0527 137.576 348.1737 133.609 348.1737 120.048 355.0527 124.014"></polygon>
                <polygon id="Fill-72" fill="#5BAAA4" points="341.3823 146.3397 334.5033 142.3727 334.5033 128.8117 341.3823 132.7777"></polygon>
                <polygon id="Fill-73" fill="#5BAAA4" points="355.0527 153.7655 348.1737 149.7985 348.1737 136.2385 355.0527 140.2035"></polygon>
                <polygon id="Fill-74" fill="#A2BCBA" points="364.7549 183.8827 404.7089 160.8437 404.7089 82.0777 364.7549 105.1177"></polygon>
                <polygon id="Fill-75" fill="#3D7F79" points="381.3359 136.0243 374.4569 139.9913 374.4569 153.5523 381.3359 149.5863"></polygon>
                <polygon id="Fill-76" fill="#3D7F79" points="395.0068 128.5985 388.1278 132.5655 388.1278 146.1265 395.0068 142.1605"></polygon>
                <polygon id="Fill-77" fill="#3D7F79" points="381.3359 119.8344 374.4569 123.8014 374.4569 137.3624 381.3359 133.3954"></polygon>
                <polygon id="Fill-78" fill="#3D7F79" points="395.0068 112.4086 388.1278 116.3756 388.1278 129.9366 395.0068 125.9696"></polygon>
                <polygon id="Fill-79" fill="#3D7F79" points="381.3359 103.6444 374.4569 107.6114 374.4569 121.1724 381.3359 117.2054"></polygon>
                <polygon id="Fill-80" fill="#3D7F79" points="395.0068 96.2181 388.1278 100.1851 388.1278 113.7461 395.0068 109.7801"></polygon>
                <polygon id="Fill-81" fill="#666666" points="353.2207 175.5135 344.7777 170.6455 344.7777 154.0015 353.2207 158.8695"></polygon>
                <polygon id="Fill-82" fill="#666666" points="344.7778 170.6317 336.3358 165.7637 336.3358 149.1187 344.7778 153.9877"></polygon>
                <polygon id="Fill-83" fill="#A8A8A8" points="356.1729 159.5155 353.2039 161.2245 333.3829 149.3815 336.2699 147.9025"></polygon>
                <polygon id="Fill-84" fill="#8E8E8E" points="333.3828 149.3817 333.3828 150.4877 353.2038 162.3167 353.2038 161.2247"></polygon>
                <polygon id="Fill-85" fill="#666666" points="353.2036 162.3163 356.1726 160.5633 356.1726 159.5153 353.2036 161.2243"></polygon>
                <polygon id="Fill-86" fill="#666666" points="378.7969 173.9149 387.2389 169.0469 387.2389 152.4029 378.7969 157.2709"></polygon>
                <polygon id="Fill-87" fill="#666666" points="387.2393 169.0331 395.6823 164.1651 395.6823 147.5201 387.2393 152.3891"></polygon>
                <polygon id="Fill-88" fill="#A8A8A8" points="375.8447 157.9169 378.8147 159.6259 398.6347 147.7829 395.7477 146.3039"></polygon>
                <polygon id="Fill-89" fill="#8E8E8E" points="398.6348 147.7831 398.6348 148.8891 378.8148 160.7181 378.8148 159.6261"></polygon>
                <polygon id="Fill-90" fill="#666666" points="378.8145 160.7177 375.8445 158.9647 375.8445 157.9167 378.8145 159.6257"></polygon>
                <polygon id="Fill-91" fill="#C1C1C1" points="416.875 155.6991 436.825 144.1941 416.875 132.1351 416.875 123.0841 404.536 90.4681 404.536 148.7431"></polygon>
                <polygon id="Fill-92" fill="#666666" points="532.9365 137.8866 523.8065 121.7776 377.1615 204.8926 369.0595 200.2056 367.0725 203.6406 277.0955 151.5896 258.5025 161.2246 354.4795 217.7476 238.2055 283.6506 238.1385 283.6116 238.0725 283.7256 230.6425 287.9366 135.5675 233.2346 116.7615 243.5586 211.9635 298.5226 314.3565 356.5916 336.7445 341.4346 256.7905 294.4016 377.0685 226.2306 456.1105 272.2966 476.5485 260.9626 395.7465 215.6436"></polygon>
                <path d="M437.5537,214.9666 C437.5537,203.7236 453.4957,194.6096 473.1617,194.6096 C492.8287,194.6096 508.7717,203.7236 508.7717,214.9666 C508.7717,226.2106 492.8287,235.3246 473.1617,235.3246 C453.4957,235.3246 437.5537,226.2106 437.5537,214.9666" id="Fill-93" fill="#444444"></path>
                <polygon id="Fill-94" fill="#444444" points="437.553 214.966 508.771 214.966 508.771 210.237 437.553 210.237"></polygon>
                <path d="M437.5537,210.2372 C437.5537,198.9942 453.4957,189.8802 473.1617,189.8802 C492.8287,189.8802 508.7717,198.9942 508.7717,210.2372 C508.7717,221.4802 492.8287,230.5952 473.1617,230.5952 C453.4957,230.5952 437.5537,221.4802 437.5537,210.2372" id="Fill-95" fill="#8E7049"></path>
                <path d="M443.0723,210.2372 C443.0723,200.7362 456.5443,193.0342 473.1623,193.0342 C489.7803,193.0342 503.2533,200.7362 503.2533,210.2372 C503.2533,219.7382 489.7803,227.4402 473.1623,227.4402 C456.5443,227.4402 443.0723,219.7382 443.0723,210.2372" id="Fill-96" fill="#59BAC6"></path>
                <polygon id="Fill-97" fill="#8E7049" points="476.847 245.16 480.354 245.16 480.354 228.794 476.847 228.794"></polygon>
                <path d="M469.1768,223.6288 C469.1768,218.4238 473.3968,214.2048 478.6008,214.2048 C483.8058,214.2048 488.0248,218.4238 488.0248,223.6288 C488.0248,228.8338 483.8058,233.0528 478.6008,233.0528 C473.3968,233.0528 469.1768,228.8338 469.1768,223.6288" id="Fill-98" fill="#647F40"></path>
                <path d="M480.0918,243.4188 C479.6988,242.6418 478.9018,242.1028 477.9708,242.1028 C476.7878,242.1028 475.8148,242.9658 475.6268,244.0958 C475.5688,244.0878 475.5118,244.0778 475.4508,244.0778 C474.6798,244.0778 474.0548,244.7028 474.0548,245.4738 C474.0548,246.2448 474.6798,246.8698 475.4508,246.8698 C475.4848,246.8698 475.5148,246.8618 475.5468,246.8598 C475.7478,247.3838 476.2528,247.7568 476.8478,247.7568 C477.4458,247.7568 477.9508,247.3798 478.1498,246.8518 C478.4218,246.8308 478.6828,246.7738 478.9218,246.6698 C479.1608,246.7928 479.4298,246.8698 479.7178,246.8698 C480.6818,246.8698 481.4638,246.0878 481.4638,245.1228 C481.4638,244.2868 480.8758,243.5908 480.0918,243.4188" id="Fill-99" fill="#647F40"></path>
                <polygon id="Fill-100" fill="#E5E5E5" points="245.7661 290.9539 253.4631 286.4979 250.5901 284.9729 242.6291 289.1419"></polygon>
                <polygon id="Fill-101" fill="#E5E5E5" points="262.5991 281.9442 270.2961 277.4882 267.4241 275.9642 259.4621 280.1332"></polygon>
                <polygon id="Fill-102" fill="#E5E5E5" points="277.1714 274.0438 284.8684 269.5878 281.9954 268.0628 274.0344 272.2318"></polygon>
                <polygon id="Fill-103" fill="#E5E5E5" points="291.7432 266.1424 299.4402 261.6874 296.5682 260.1624 288.6062 264.3314"></polygon>
                <polygon id="Fill-104" fill="#E5E5E5" points="306.3154 258.242 314.0124 253.786 311.1394 252.262 303.1784 256.431"></polygon>
                <polygon id="Fill-105" fill="#E5E5E5" points="320.8872 250.3416 328.5842 245.8856 325.7122 244.3606 317.7502 248.5296"></polygon>
                <polygon id="Fill-106" fill="#E5E5E5" points="335.4595 242.4403 343.1565 237.9843 340.2835 236.4603 332.3225 240.6293"></polygon>
                <polygon id="Fill-107" fill="#E5E5E5" points="350.0312 234.5399 357.7292 230.0839 354.8562 228.5599 346.8952 232.7289"></polygon>
                <polygon id="Fill-108" fill="#E5E5E5" points="364.6035 226.6395 372.3005 222.1835 369.4275 220.6585 361.4665 224.8275"></polygon>
                <polygon id="Fill-109" fill="#E5E5E5" points="379.1758 218.7381 386.8728 214.2821 383.9998 212.7581 376.0388 216.9271"></polygon>
                <polygon id="Fill-110" fill="#E5E5E5" points="393.748 210.8377 401.445 206.3817 398.572 204.8577 390.611 209.0257"></polygon>
                <polygon id="Fill-111" fill="#E5E5E5" points="408.3193 202.9373 416.0163 198.4813 413.1443 196.9563 405.1823 201.1253"></polygon>
                <polygon id="Fill-112" fill="#E5E5E5" points="421.8135 191.5457 429.5105 187.0897 426.6385 185.5647 418.6765 189.7337"></polygon>
                <polygon id="Fill-113" fill="#E5E5E5" points="438.1045 183.2723 445.8015 178.8163 442.9285 177.2923 434.9675 181.4613"></polygon>
                <polygon id="Fill-114" fill="#E5E5E5" points="452.5684 175.0067 460.2654 170.5507 457.3924 169.0267 449.4314 173.1957"></polygon>
                <polygon id="Fill-115" fill="#E5E5E5" points="466.6084 166.3436 474.3054 161.8876 471.4324 160.3636 463.4714 164.5326"></polygon>
                <polygon id="Fill-116" fill="#E5E5E5" points="481.4082 158.3983 489.1052 153.9423 486.2322 152.4173 478.2712 156.5863"></polygon>
                <polygon id="Fill-117" fill="#ABCACE" points="510.8896 158.7401 482.5846 175.1411 510.8896 191.4641 539.1946 175.1411"></polygon>
                <polygon id="Fill-118" fill="#EDEDED" points="510.8896 102.9393 482.5846 119.3403 510.8896 135.6633 539.1946 119.3403"></polygon>
                <polygon id="Fill-119" fill="#C8CCCC" points="510.8896 191.4637 482.5846 175.1417 482.5846 119.3407 510.8896 135.6627"></polygon>
                <polygon id="Fill-120" fill="#666666" points="494.3311 141.7762 489.4581 138.9652 489.4581 129.3582 494.3311 132.1692"></polygon>
                <polygon id="Fill-121" fill="#666666" points="504.0166 147.037 499.1426 144.226 499.1426 134.619 504.0166 137.43"></polygon>
                <polygon id="Fill-122" fill="#666666" points="494.3311 153.246 489.4581 150.435 489.4581 140.828 494.3311 143.639"></polygon>
                <polygon id="Fill-123" fill="#666666" points="504.0166 158.5067 499.1426 155.6957 499.1426 146.0887 504.0166 148.8997"></polygon>
                <polygon id="Fill-124" fill="#666666" points="494.3311 164.7157 489.4581 161.9047 489.4581 152.2977 494.3311 155.1087"></polygon>
                <polygon id="Fill-125" fill="#666666" points="504.0166 169.9764 499.1426 167.1654 499.1426 157.5584 504.0166 160.3694"></polygon>
                <polygon id="Fill-126" fill="#C1C1C1" points="510.8896 191.3123 539.1946 174.9903 539.1946 119.1893 510.8896 135.5113"></polygon>
                <polygon id="Fill-127" fill="#444444" points="522.6367 168.8768 517.7627 171.6878 517.7627 181.2948 522.6367 178.4838"></polygon>
                <polygon id="Fill-128" fill="#444444" points="532.3213 163.6161 527.4483 166.4271 527.4483 176.0341 532.3213 173.2231"></polygon>
                <polygon id="Fill-129" fill="#444444" points="522.6367 157.4071 517.7627 160.2181 517.7627 169.8251 522.6367 167.0141"></polygon>
                <polygon id="Fill-130" fill="#444444" points="532.3213 152.1464 527.4483 154.9574 527.4483 164.5644 532.3213 161.7534"></polygon>
                <polygon id="Fill-131" fill="#444444" points="522.6367 145.9384 517.7627 148.7484 517.7627 158.3554 522.6367 155.5444"></polygon>
                <polygon id="Fill-132" fill="#444444" points="532.3213 140.6766 527.4483 143.4876 527.4483 153.0946 532.3213 150.2836"></polygon>
                <polygon id="Fill-133" fill="#444444" points="522.6367 134.4686 517.7627 137.2786 517.7627 146.8856 522.6367 144.0746"></polygon>
                <polygon id="Fill-134" fill="#444444" points="532.3213 129.2074 527.4483 132.0174 527.4483 141.6244 532.3213 138.8144"></polygon>
                <polygon id="Fill-135" fill="#666666" points="502.7178 185.3836 496.7378 181.9346 496.7378 170.1436 502.7178 173.5926"></polygon>
                <polygon id="Fill-136" fill="#666666" points="496.7373 181.9247 490.7563 178.4757 490.7563 166.6847 496.7373 170.1337"></polygon>
                <polygon id="Fill-137" fill="#A8A8A8" points="504.8096 174.0497 502.7056 175.2607 488.6636 166.8697 490.7096 165.8217"></polygon>
                <polygon id="Fill-138" fill="#8E8E8E" points="488.6641 166.87 488.6641 167.654 502.7061 176.034 502.7061 175.261"></polygon>
                <polygon id="Fill-139" fill="#666666" points="502.7061 176.034 504.8101 174.792 504.8101 174.05 502.7061 175.261"></polygon>
                <polygon id="Fill-140" fill="#ABCACE" points="550.5967 177.4696 522.2907 193.8706 550.5967 210.1936 578.9017 193.8706"></polygon>
                <polygon id="Fill-141" fill="#EDEDED" points="550.5967 121.6693 522.2907 138.0703 550.5967 154.3923 578.9017 138.0703"></polygon>
                <polygon id="Fill-142" fill="#C8CCCC" points="550.5967 210.1932 522.2907 193.8712 522.2907 138.0702 550.5967 154.3922"></polygon>
                <polygon id="Fill-143" fill="#666666" points="534.0381 160.5057 529.1651 157.6947 529.1651 148.0877 534.0381 150.8987"></polygon>
                <polygon id="Fill-144" fill="#666666" points="543.7227 165.7664 538.8497 162.9564 538.8497 153.3494 543.7227 156.1594"></polygon>
                <polygon id="Fill-145" fill="#666666" points="534.0381 171.9754 529.1651 169.1644 529.1651 159.5574 534.0381 162.3684"></polygon>
                <polygon id="Fill-146" fill="#666666" points="543.7227 177.2362 538.8497 174.4252 538.8497 164.8182 543.7227 167.6292"></polygon>
                <polygon id="Fill-147" fill="#666666" points="534.0381 183.4452 529.1651 180.6342 529.1651 171.0272 534.0381 173.8382"></polygon>
                <polygon id="Fill-148" fill="#666666" points="543.7227 188.7059 538.8497 185.8949 538.8497 176.2879 543.7227 179.0989"></polygon>
                <polygon id="Fill-149" fill="#C1C1C1" points="550.5967 210.0418 578.9017 193.7208 578.9017 137.9198 550.5967 154.2418"></polygon>
                <polygon id="Fill-150" fill="#444444" points="562.3437 187.6073 557.4697 190.4173 557.4697 200.0243 562.3437 197.2143"></polygon>
                <polygon id="Fill-151" fill="#444444" points="572.0283 182.3465 567.1543 185.1565 567.1543 194.7635 572.0283 191.9535"></polygon>
                <polygon id="Fill-152" fill="#444444" points="562.3437 176.1375 557.4697 178.9475 557.4697 188.5545 562.3437 185.7445"></polygon>
                <polygon id="Fill-153" fill="#444444" points="572.0283 170.8768 567.1543 173.6868 567.1543 183.2938 572.0283 180.4838"></polygon>
                <polygon id="Fill-154" fill="#444444" points="562.3437 164.6678 557.4697 167.4788 557.4697 177.0848 562.3437 174.2748"></polygon>
                <polygon id="Fill-155" fill="#444444" points="572.0283 159.4071 567.1543 162.2171 567.1543 171.8241 572.0283 169.0141"></polygon>
                <polygon id="Fill-156" fill="#444444" points="562.3437 153.1981 557.4697 156.0091 557.4697 165.6161 562.3437 162.8051"></polygon>
                <polygon id="Fill-157" fill="#444444" points="572.0283 147.9374 567.1543 150.7474 567.1543 160.3544 572.0283 157.5444"></polygon>
                <polygon id="Fill-158" fill="#666666" points="542.4248 204.1131 536.4448 200.6641 536.4448 188.8731 542.4248 192.3221"></polygon>
                <polygon id="Fill-159" fill="#666666" points="536.4443 200.6541 530.4633 197.2061 530.4633 185.4141 536.4443 188.8631"></polygon>
                <polygon id="Fill-160" fill="#A8A8A8" points="544.5166 192.7791 542.4126 193.9901 528.3706 185.6001 530.4156 184.5511"></polygon>
                <polygon id="Fill-161" fill="#8E8E8E" points="528.3711 185.6004 528.3711 186.3844 542.4131 194.7634 542.4131 193.9904"></polygon>
                <polygon id="Fill-162" fill="#666666" points="542.4131 194.7635 544.5171 193.5215 544.5171 192.7795 542.4131 193.9905"></polygon>
                <polygon id="Fill-163" fill="#8E7049" points="522.291 210.237 525.799 210.237 525.799 193.871 522.291 193.871"></polygon>
                <path d="M514.6211,188.7059 C514.6211,183.5009 518.8401,179.2819 524.0451,179.2819 C529.2501,179.2819 533.4691,183.5009 533.4691,188.7059 C533.4691,193.9109 529.2501,198.1299 524.0451,198.1299 C518.8401,198.1299 514.6211,193.9109 514.6211,188.7059" id="Fill-164" fill="#647F40"></path>
                <path d="M525.5361,208.4959 C525.1431,207.7189 524.3461,207.1809 523.4151,207.1809 C522.2321,207.1809 521.2591,208.0429 521.0711,209.1729 C521.0131,209.1649 520.9561,209.1549 520.8951,209.1549 C520.1241,209.1549 519.4991,209.7799 519.4991,210.5509 C519.4991,211.3219 520.1241,211.9469 520.8951,211.9469 C520.9291,211.9469 520.9591,211.9389 520.9911,211.9369 C521.1921,212.4609 521.6971,212.8349 522.2911,212.8349 C522.8901,212.8349 523.3941,212.4569 523.5941,211.9289 C523.8661,211.9079 524.1271,211.8509 524.3661,211.7469 C524.6051,211.8709 524.8741,211.9469 525.1621,211.9469 C526.1261,211.9469 526.9081,211.1649 526.9081,210.1999 C526.9081,209.3649 526.3201,208.6679 525.5361,208.4959" id="Fill-165" fill="#647F40"></path>
                <polygon id="Fill-166" fill="#8E7049" points="481.392 183.056 484.9 183.056 484.9 166.69 481.392 166.69"></polygon>
                <path d="M473.7227,161.5253 C473.7227,156.3203 477.9417,152.1013 483.1467,152.1013 C488.3517,152.1013 492.5707,156.3203 492.5707,161.5253 C492.5707,166.7303 488.3517,170.9493 483.1467,170.9493 C477.9417,170.9493 473.7227,166.7303 473.7227,161.5253" id="Fill-167" fill="#647F40"></path>
                <path d="M484.6367,181.3153 C484.2437,180.5383 483.4477,179.9993 482.5167,179.9993 C481.3337,179.9993 480.3607,180.8623 480.1727,181.9923 C480.1147,181.9843 480.0567,181.9743 479.9967,181.9743 C479.2257,181.9743 478.6007,182.5993 478.6007,183.3703 C478.6007,184.1413 479.2257,184.7663 479.9967,184.7663 C480.0297,184.7663 480.0607,184.7583 480.0927,184.7563 C480.2937,185.2803 480.7977,185.6533 481.3927,185.6533 C481.9907,185.6533 482.4957,185.2763 482.6957,184.7483 C482.9677,184.7273 483.2287,184.6703 483.4677,184.5663 C483.7067,184.6893 483.9747,184.7663 484.2627,184.7663 C485.2277,184.7663 486.0097,183.9843 486.0097,183.0193 C486.0097,182.1833 485.4217,181.4873 484.6367,181.3153" id="Fill-168" fill="#647F40"></path>
                <polygon id="Fill-169" fill="#8E7049" points="424.899 216.752 428.407 216.752 428.407 200.386 424.899 200.386"></polygon>
                <path d="M417.2295,195.2206 C417.2295,190.0156 421.4485,185.7966 426.6535,185.7966 C431.8585,185.7966 436.0775,190.0156 436.0775,195.2206 C436.0775,200.4256 431.8585,204.6446 426.6535,204.6446 C421.4485,204.6446 417.2295,200.4256 417.2295,195.2206" id="Fill-170" fill="#647F40"></path>
                <path d="M428.1445,215.0106 C427.7515,214.2336 426.9545,213.6946 426.0235,213.6946 C424.8405,213.6946 423.8675,214.5576 423.6795,215.6876 C423.6215,215.6796 423.5645,215.6696 423.5035,215.6696 C422.7325,215.6696 422.1075,216.2946 422.1075,217.0656 C422.1075,217.8366 422.7325,218.4616 423.5035,218.4616 C423.5365,218.4616 423.5675,218.4536 423.5995,218.4516 C423.8005,218.9756 424.3055,219.3486 424.8995,219.3486 C425.4975,219.3486 426.0025,218.9716 426.2025,218.4436 C426.4745,218.4226 426.7355,218.3656 426.9745,218.2616 C427.2135,218.3846 427.4815,218.4616 427.7695,218.4616 C428.7345,218.4616 429.5165,217.6796 429.5165,216.7146 C429.5165,215.8786 428.9285,215.1826 428.1445,215.0106" id="Fill-171" fill="#647F40"></path>
                <polygon id="Fill-172" fill="#E5E5E5" points="306.5181 339.369 315.0801 344.312 318.4751 342.347 309.7961 336.937"></polygon>
                <polygon id="Fill-173" fill="#E5E5E5" points="289.8916 329.868 298.4536 334.811 301.8486 332.847 293.1696 327.436"></polygon>
                <polygon id="Fill-174" fill="#E5E5E5" points="271.9951 319.1141 280.5571 324.0561 283.9521 322.0921 275.2731 316.6821"></polygon>
                <polygon id="Fill-175" fill="#E5E5E5" points="254.0986 309.3592 262.6606 314.3022 266.0556 312.3372 257.3766 306.9272"></polygon>
                <polygon id="Fill-176" fill="#E5E5E5" points="235.2021 299.6043 243.7641 304.5473 247.1591 302.5833 238.4801 297.1733"></polygon>
                <polygon id="Fill-177" fill="#E5E5E5" points="215.3057 290.8504 223.8677 295.7934 227.2627 293.8284 218.5837 288.4184"></polygon>
                <polygon id="Fill-178" fill="#E5E5E5" points="196.4092 281.0956 204.9712 286.0386 208.3662 284.0746 199.6872 278.6636"></polygon>
                <polygon id="Fill-179" fill="#E5E5E5" points="176.5127 269.3416 185.0747 274.2836 188.4697 272.3196 179.7907 266.9096"></polygon>
                <polygon id="Fill-180" fill="#E5E5E5" points="156.9902 256.9471 165.5522 261.8901 168.9472 259.9251 160.2682 254.5151"></polygon>
                <polygon id="Fill-181" fill="#E5E5E5" points="136.6079 245.5663 145.1699 250.5083 148.5649 248.5443 139.8859 243.1343"></polygon>
                <polygon id="Fill-182" fill="#E5E5E5" points="451.2773 258.4793 459.8403 263.4223 463.2343 261.4583 454.5553 256.0483"></polygon>
                <polygon id="Fill-183" fill="#E5E5E5" points="434.6514 248.9793 443.2134 253.9223 446.6074 251.9573 437.9294 246.5473"></polygon>
                <polygon id="Fill-184" fill="#E5E5E5" points="416.7549 238.2245 425.3169 243.1675 428.7119 241.2035 420.0329 235.7935"></polygon>
                <polygon id="Fill-185" fill="#E5E5E5" points="398.8584 228.4706 407.4204 233.4136 410.8154 231.4486 402.1364 226.0386"></polygon>
                <polygon id="Fill-186" fill="#E5E5E5" points="379.9619 218.7157 388.5239 223.6587 391.9189 221.6947 383.2399 216.2837"></polygon>
                <polygon id="Fill-187" fill="#E5E5E5" points="360.0654 209.9618 368.6274 214.9048 372.0224 212.9398 363.3434 207.5298"></polygon>
                <polygon id="Fill-188" fill="#E5E5E5" points="341.1685 200.2069 349.7305 205.1499 353.1255 203.1849 344.4475 197.7749"></polygon>
                <polygon id="Fill-189" fill="#E5E5E5" points="321.2725 188.453 329.8345 193.395 333.2295 191.431 324.5505 186.021"></polygon>
                <polygon id="Fill-190" fill="#E5E5E5" points="301.75 176.0584 310.312 181.0004 313.707 179.0364 305.028 173.6264"></polygon>
                <polygon id="Fill-191" fill="#E5E5E5" points="281.3672 164.6766 289.9292 169.6196 293.3242 167.6556 284.6452 162.2456"></polygon>
                <polygon id="Fill-192" fill="#ABCACE" points="227.3398 198.8993 161.0588 237.3053 227.3398 275.5263 293.6208 237.3053"></polygon>
                <polygon id="Fill-193" fill="#E1E2AA" points="227.3398 275.5262 161.0588 237.3052 161.0588 172.0052 227.3398 210.0492"></polygon>
                <polygon id="Fill-194" fill="#E1E2AA" points="227.3398 275.1727 293.6208 236.9517 293.6208 172.0167 227.3398 210.0337"></polygon>
                <polygon id="Fill-195" fill="#418899" points="161.0591 237.3055 161.0591 218.6285 227.3401 254.5095 227.3401 275.5265"></polygon>
                <polygon id="Fill-196" fill="#EDEDED" points="227.3398 133.6102 161.0588 172.0162 227.3398 210.2372 293.6208 172.0162"></polygon>
                <polygon id="Fill-197" fill="#7C6645" points="214.5913 261.3543 173.8083 238.0003 173.8083 195.2023 214.5913 218.5553"></polygon>
                <polygon id="Fill-198" fill="#5BC0CE" points="213.1006 258.9364 175.2986 237.2904 175.2986 197.6204 213.1006 219.2664"></polygon>
                <polygon id="Fill-199" fill="#937A51" points="201.5015 260.618 186.8975 252.22 186.8975 223.183 201.5015 231.566"></polygon>
                <polygon id="Fill-200" fill="#B29262" points="199.458 259.3319 188.941 253.2839 188.941 227.7699 199.458 233.8079"></polygon>
                <path d="M189.8086,243.5516 C189.8086,242.7846 190.2956,242.1636 190.8966,242.1636 C191.4976,242.1636 191.9856,242.7846 191.9856,243.5516 C191.9856,244.3176 191.4976,244.9386 190.8966,244.9386 C190.2956,244.9386 189.8086,244.3176 189.8086,243.5516" id="Fill-201" fill="#C4C4C4"></path>
                <path d="M188.3057,243.5516 C188.3057,242.6396 188.8857,241.9006 189.6007,241.9006 C190.3167,241.9006 190.8967,242.6396 190.8967,243.5516 C190.8967,244.4626 190.3167,245.2016 189.6007,245.2016 C188.8857,245.2016 188.3057,244.4626 188.3057,243.5516" id="Fill-202" fill="#F8F8F8"></path>
                <polygon id="Fill-203" fill="#937A51" points="186.8975 242.1756 181.9715 245.0106 167.0075 235.9406 171.7955 233.4876"></polygon>
                <polygon id="Fill-204" fill="#7C6645" points="167.0073 235.9403 167.0073 237.7773 181.9713 246.8223 181.9713 245.0103"></polygon>
                <polygon id="Fill-205" fill="#5E4C35" points="181.9717 246.8221 186.8977 245.7801 186.8977 242.1761 181.9717 245.0101"></polygon>
                <polygon id="Fill-206" fill="#937A51" points="216.4326 258.8807 211.5066 261.7157 196.5416 252.6457 201.3306 250.1927"></polygon>
                <polygon id="Fill-207" fill="#7C6645" points="196.542 252.6454 196.542 254.4824 211.507 263.5274 211.507 261.7154"></polygon>
                <polygon id="Fill-208" fill="#5E4C35" points="211.5068 263.5272 216.4328 262.2202 216.4328 258.8812 211.5068 261.7152"></polygon>
                <path d="M170.0029,235.1034 C170.0029,234.1704 170.7589,233.4154 171.6909,233.4154 C172.6239,233.4154 173.3789,234.1704 173.3789,235.1034 C173.3789,236.0364 172.6239,236.7914 171.6909,236.7914 C170.7589,236.7914 170.0029,236.0364 170.0029,235.1034" id="Fill-209" fill="#98DD4E"></path>
                <path d="M172.4282,236.4334 C172.4282,235.5014 173.1842,234.7464 174.1162,234.7464 C175.0492,234.7464 175.8042,235.5014 175.8042,236.4334 C175.8042,237.3664 175.0492,238.1214 174.1162,238.1214 C173.1842,238.1214 172.4282,237.3664 172.4282,236.4334" id="Fill-210" fill="#98DD4E"></path>
                <path d="M174.8618,238.1512 C174.8618,237.3452 175.5148,236.6922 176.3208,236.6922 C177.1268,236.6922 177.7798,237.3452 177.7798,238.1512 C177.7798,238.9572 177.1268,239.6102 176.3208,239.6102 C175.5148,239.6102 174.8618,238.9572 174.8618,238.1512" id="Fill-211" fill="#98DD4E"></path>
                <path d="M174.5215,236.66 C174.5215,235.854 175.1745,235.201 175.9805,235.201 C176.7865,235.201 177.4395,235.854 177.4395,236.66 C177.4395,237.466 176.7865,238.119 175.9805,238.119 C175.1745,238.119 174.5215,237.466 174.5215,236.66" id="Fill-212" fill="#98DD4E"></path>
                <path d="M174.1484,235.1034 C174.1484,234.2974 174.8014,233.6444 175.6074,233.6444 C176.4134,233.6444 177.0664,234.2974 177.0664,235.1034 C177.0664,235.9094 176.4134,236.5624 175.6074,236.5624 C174.8014,236.5624 174.1484,235.9094 174.1484,235.1034" id="Fill-213" fill="#98DD4E"></path>
                <path d="M176.6021,235.5125 C176.6021,234.7065 177.2551,234.0545 178.0611,234.0545 C178.8671,234.0545 179.5191,234.7065 179.5191,235.5125 C179.5191,236.3185 178.8671,236.9715 178.0611,236.9715 C177.2551,236.9715 176.6021,236.3185 176.6021,235.5125" id="Fill-214" fill="#98DD4E"></path>
                <path d="M176.8169,237.6473 C176.8169,236.8413 177.4699,236.1883 178.2749,236.1883 C179.0809,236.1883 179.7339,236.8413 179.7339,237.6473 C179.7339,238.4533 179.0809,239.1063 178.2749,239.1063 C177.4699,239.1063 176.8169,238.4533 176.8169,237.6473" id="Fill-215" fill="#98DD4E"></path>
                <path d="M178.52,238.2508 C178.52,237.4448 179.173,236.7918 179.978,236.7918 C180.784,236.7918 181.437,237.4448 181.437,238.2508 C181.437,239.0568 180.784,239.7098 179.978,239.7098 C179.173,239.7098 178.52,239.0568 178.52,238.2508" id="Fill-216" fill="#98DD4E"></path>
                <path d="M177.8989,236.9715 C177.8989,236.1655 178.5519,235.5125 179.3579,235.5125 C180.1639,235.5125 180.8169,236.1655 180.8169,236.9715 C180.8169,237.7775 180.1639,238.4305 179.3579,238.4305 C178.5519,238.4305 177.8989,237.7775 177.8989,236.9715" id="Fill-217" fill="#98DD4E"></path>
                <path d="M175.6074,234.953 C175.6074,234.147 176.2604,233.494 177.0664,233.494 C177.8724,233.494 178.5244,234.147 178.5244,234.953 C178.5244,235.759 177.8724,236.412 177.0664,236.412 C176.2604,236.412 175.6074,235.759 175.6074,234.953" id="Fill-218" fill="#98DD4E"></path>
                <path d="M170.9272,237.1668 C170.9272,236.4898 171.4762,235.9398 172.1532,235.9398 C172.8302,235.9398 173.3792,236.4898 173.3792,237.1668 C173.3792,237.8448 172.8302,238.3938 172.1532,238.3938 C171.4762,238.3938 170.9272,237.8448 170.9272,237.1668" id="Fill-219" fill="#98DD4E"></path>
                <path d="M169.4263,236.1795 C169.4263,235.5025 169.9753,234.9525 170.6533,234.9525 C171.3293,234.9525 171.8793,235.5025 171.8793,236.1795 C171.8793,236.8565 171.3293,237.4055 170.6533,237.4055 C169.9753,237.4055 169.4263,236.8565 169.4263,236.1795" id="Fill-220" fill="#98DD4E"></path>
                <path d="M169.9072,237.4051 C169.9072,236.9941 170.2402,236.6601 170.6532,236.6601 C171.0642,236.6601 171.3982,236.9941 171.3982,237.4051 C171.3982,237.8171 171.0642,238.1511 170.6532,238.1511 C170.2402,238.1511 169.9072,237.8171 169.9072,237.4051" id="Fill-221" fill="#98DD4E"></path>
                <path d="M170.1816,238.3934 C170.1816,237.9814 170.5156,237.6474 170.9276,237.6474 C171.3386,237.6474 171.6726,237.9814 171.6726,238.3934 C171.6726,238.8044 171.3386,239.1384 170.9276,239.1384 C170.5156,239.1384 170.1816,238.8044 170.1816,238.3934" id="Fill-222" fill="#98DD4E"></path>
                <path d="M168.5117,235.9149 C168.5117,235.5029 168.8457,235.1689 169.2577,235.1689 C169.6687,235.1689 170.0027,235.5029 170.0027,235.9149 C170.0027,236.3259 169.6687,236.6599 169.2577,236.6599 C168.8457,236.6599 168.5117,236.3259 168.5117,235.9149" id="Fill-223" fill="#98DD4E"></path>
                <path d="M178.9956,239.8026 C178.9956,238.6126 179.9596,237.6476 181.1506,237.6476 C182.3406,237.6476 183.3056,238.6126 183.3056,239.8026 C183.3056,240.9926 182.3406,241.9566 181.1506,241.9566 C179.9596,241.9566 178.9956,240.9926 178.9956,239.8026" id="Fill-224" fill="#98DD4E"></path>
                <path d="M179.8169,241.4032 C179.8169,240.2132 180.7819,239.2492 181.9719,239.2492 C183.1619,239.2492 184.1269,240.2132 184.1269,241.4032 C184.1269,242.5932 183.1619,243.5582 181.9719,243.5582 C180.7819,243.5582 179.8169,242.5932 179.8169,241.4032" id="Fill-225" fill="#98DD4E"></path>
                <path d="M172.4282,237.912 C172.4282,237.501 172.7612,237.167 173.1732,237.167 C173.5852,237.167 173.9192,237.501 173.9192,237.912 C173.9192,238.324 173.5852,238.658 173.1732,238.658 C172.7612,238.658 172.4282,238.324 172.4282,237.912" id="Fill-226" fill="#98DD4E"></path>
                <path d="M174.1162,239.2489 C174.1162,238.8369 174.4502,238.5029 174.8622,238.5029 C175.2732,238.5029 175.6072,238.8369 175.6072,239.2489 C175.6072,239.6599 175.2732,239.9939 174.8622,239.9939 C174.4502,239.9939 174.1162,239.6599 174.1162,239.2489" id="Fill-227" fill="#98DD4E"></path>
                <path d="M176.3208,241.034 C176.3208,240.623 176.6538,240.289 177.0668,240.289 C177.4778,240.289 177.8118,240.623 177.8118,241.034 C177.8118,241.446 177.4778,241.78 177.0668,241.78 C176.6538,241.78 176.3208,241.446 176.3208,241.034" id="Fill-228" fill="#98DD4E"></path>
                <path d="M172.9985,238.868 C172.9985,238.456 173.3325,238.122 173.7445,238.122 C174.1555,238.122 174.4895,238.456 174.4895,238.868 C174.4895,239.279 174.1555,239.613 173.7445,239.613 C173.3325,239.613 172.9985,239.279 172.9985,238.868" id="Fill-229" fill="#98DD4E"></path>
                <path d="M171.8789,238.3934 C171.8789,237.9814 172.2119,237.6474 172.6249,237.6474 C173.0359,237.6474 173.3699,237.9814 173.3699,238.3934 C173.3699,238.8044 173.0359,239.1384 172.6249,239.1384 C172.2119,239.1384 171.8789,238.8044 171.8789,238.3934" id="Fill-230" fill="#98DD4E"></path>
                <path d="M178.0308,241.6053 C178.0308,241.2903 178.2868,241.0343 178.6018,241.0343 C178.9168,241.0343 179.1728,241.2903 179.1728,241.6053 C179.1728,241.9193 178.9168,242.1753 178.6018,242.1753 C178.2868,242.1753 178.0308,241.9193 178.0308,241.6053" id="Fill-231" fill="#98DD4E"></path>
                <path d="M178.8462,242.1756 C178.8462,241.8606 179.1012,241.6056 179.4172,241.6056 C179.7322,241.6056 179.9872,241.8606 179.9872,242.1756 C179.9872,242.4906 179.7322,242.7456 179.4172,242.7456 C179.1012,242.7456 178.8462,242.4906 178.8462,242.1756" id="Fill-232" fill="#98DD4E"></path>
                <path d="M178.2754,242.3504 C178.2754,242.0354 178.5314,241.7804 178.8464,241.7804 C179.1614,241.7804 179.4174,242.0354 179.4174,242.3504 C179.4174,242.6654 179.1614,242.9204 178.8464,242.9204 C178.5314,242.9204 178.2754,242.6654 178.2754,242.3504" id="Fill-233" fill="#98DD4E"></path>
                <path d="M178.6016,243.5584 C178.6016,243.2434 178.8566,242.9874 179.1726,242.9874 C179.4876,242.9874 179.7426,243.2434 179.7426,243.5584 C179.7426,243.8734 179.4876,244.1284 179.1726,244.1284 C178.8566,244.1284 178.6016,243.8734 178.6016,243.5584" id="Fill-234" fill="#98DD4E"></path>
                <path d="M178.2754,244.4989 C178.2754,244.1839 178.5314,243.9289 178.8464,243.9289 C179.1614,243.9289 179.4174,244.1839 179.4174,244.4989 C179.4174,244.8129 179.1614,245.0689 178.8464,245.0689 C178.5314,245.0689 178.2754,244.8129 178.2754,244.4989" id="Fill-235" fill="#98DD4E"></path>
                <path d="M178.0308,243.1942 C178.0308,242.8792 178.2868,242.6242 178.6018,242.6242 C178.9168,242.6242 179.1728,242.8792 179.1728,243.1942 C179.1728,243.5092 178.9168,243.7642 178.6018,243.7642 C178.2868,243.7642 178.0308,243.5092 178.0308,243.1942" id="Fill-236" fill="#98DD4E"></path>
                <path d="M173.4731,239.3553 C173.4731,238.9623 173.7911,238.6443 174.1841,238.6443 C174.5771,238.6443 174.8961,238.9623 174.8961,239.3553 C174.8961,239.7493 174.5771,240.0673 174.1841,240.0673 C173.7911,240.0673 173.4731,239.7493 173.4731,239.3553" id="Fill-237" fill="#98DD4E"></path>
                <path d="M173.8799,240.8622 C173.8799,240.4682 174.1979,240.1502 174.5909,240.1502 C174.9839,240.1502 175.3029,240.4682 175.3029,240.8622 C175.3029,241.2552 174.9839,241.5732 174.5909,241.5732 C174.1979,241.5732 173.8799,241.2552 173.8799,240.8622" id="Fill-238" fill="#98DD4E"></path>
                <path d="M173.4731,242.035 C173.4731,241.641 173.7911,241.323 174.1841,241.323 C174.5771,241.323 174.8961,241.641 174.8961,242.035 C174.8961,242.428 174.5771,242.746 174.1841,242.746 C173.7911,242.746 173.4731,242.428 173.4731,242.035" id="Fill-239" fill="#98DD4E"></path>
                <path d="M173.168,240.4081 C173.168,240.0141 173.487,239.6961 173.88,239.6961 C174.272,239.6961 174.591,240.0141 174.591,240.4081 C174.591,240.8011 174.272,241.1191 173.88,241.1191 C173.487,241.1191 173.168,240.8011 173.168,240.4081" id="Fill-240" fill="#98DD4E"></path>
                <path d="M178.6016,245.4696 C178.6016,245.2156 178.8076,245.0106 179.0606,245.0106 C179.3136,245.0106 179.5196,245.2156 179.5196,245.4696 C179.5196,245.7226 179.3136,245.9286 179.0606,245.9286 C178.8076,245.9286 178.6016,245.7226 178.6016,245.4696" id="Fill-241" fill="#98DD4E"></path>
                <path d="M179.0605,245.0692 C179.0605,244.8162 179.2665,244.6102 179.5195,244.6102 C179.7735,244.6102 179.9785,244.8162 179.9785,245.0692 C179.9785,245.3232 179.7735,245.5282 179.5195,245.5282 C179.2665,245.5282 179.0605,245.3232 179.0605,245.0692" id="Fill-242" fill="#98DD4E"></path>
                <path d="M179.7427,242.6239 C179.7427,242.3699 179.9487,242.1639 180.2017,242.1639 C180.4557,242.1639 180.6607,242.3699 180.6607,242.6239 C180.6607,242.8769 180.4557,243.0829 180.2017,243.0829 C179.9487,243.0829 179.7427,242.8769 179.7427,242.6239" id="Fill-243" fill="#98DD4E"></path>
                <path d="M179.3579,241.7801 C179.3579,241.5261 179.5639,241.3211 179.8169,241.3211 C180.0699,241.3211 180.2759,241.5261 180.2759,241.7801 C180.2759,242.0331 180.0699,242.2391 179.8169,242.2391 C179.5639,242.2391 179.3579,242.0331 179.3579,241.7801" id="Fill-244" fill="#98DD4E"></path>
                <path d="M174.4893,238.3934 C174.4893,237.9814 174.8233,237.6474 175.2353,237.6474 C175.6463,237.6474 175.9803,237.9814 175.9803,238.3934 C175.9803,238.8044 175.6463,239.1384 175.2353,239.1384 C174.8233,239.1384 174.4893,238.8044 174.4893,238.3934" id="Fill-245" fill="#98DD4E"></path>
                <path d="M173.3711,238.1219 C173.3711,237.7109 173.7041,237.3769 174.1161,237.3769 C174.5281,237.3769 174.8621,237.7109 174.8621,238.1219 C174.8621,238.5339 174.5281,238.8679 174.1161,238.8679 C173.7041,238.8679 173.3711,238.5339 173.3711,238.1219" id="Fill-246" fill="#98DD4E"></path>
                <path d="M177.3359,238.6581 C177.3359,238.0831 177.8019,237.6171 178.3769,237.6171 C178.9509,237.6171 179.4169,238.0831 179.4169,238.6581 C179.4169,239.2321 178.9509,239.6981 178.3769,239.6981 C177.8019,239.6981 177.3359,239.2321 177.3359,238.6581" id="Fill-247" fill="#98DD4E"></path>
                <path d="M176.2959,239.994 C176.2959,239.42 176.7619,238.954 177.3359,238.954 C177.9109,238.954 178.3769,239.42 178.3769,239.994 C178.3769,240.568 177.9109,241.034 177.3359,241.034 C176.7619,241.034 176.2959,240.568 176.2959,239.994" id="Fill-248" fill="#98DD4E"></path>
                <path d="M177.856,240.2889 C177.856,239.5139 178.485,238.8849 179.26,238.8849 C180.036,238.8849 180.664,239.5139 180.664,240.2889 C180.664,241.0639 180.036,241.6929 179.26,241.6929 C178.485,241.6929 177.856,241.0639 177.856,240.2889" id="Fill-249" fill="#98DD4E"></path>
                <path d="M200.1709,251.3856 C200.1709,250.4526 200.9269,249.6976 201.8589,249.6976 C202.7919,249.6976 203.5469,250.4526 203.5469,251.3856 C203.5469,252.3186 202.7919,253.0736 201.8589,253.0736 C200.9269,253.0736 200.1709,252.3186 200.1709,251.3856" id="Fill-250" fill="#98DD4E"></path>
                <path d="M202.5962,252.7157 C202.5962,251.7827 203.3522,251.0277 204.2842,251.0277 C205.2172,251.0277 205.9722,251.7827 205.9722,252.7157 C205.9722,253.6487 205.2172,254.4037 204.2842,254.4037 C203.3522,254.4037 202.5962,253.6487 202.5962,252.7157" id="Fill-251" fill="#98DD4E"></path>
                <path d="M205.0298,254.4325 C205.0298,253.6265 205.6828,252.9745 206.4888,252.9745 C207.2948,252.9745 207.9478,253.6265 207.9478,254.4325 C207.9478,255.2385 207.2948,255.8915 206.4888,255.8915 C205.6828,255.8915 205.0298,255.2385 205.0298,254.4325" id="Fill-252" fill="#98DD4E"></path>
                <path d="M204.6895,252.9422 C204.6895,252.1362 205.3425,251.4832 206.1485,251.4832 C206.9545,251.4832 207.6075,252.1362 207.6075,252.9422 C207.6075,253.7482 206.9545,254.4012 206.1485,254.4012 C205.3425,254.4012 204.6895,253.7482 204.6895,252.9422" id="Fill-253" fill="#98DD4E"></path>
                <path d="M204.3164,251.3856 C204.3164,250.5796 204.9694,249.9266 205.7754,249.9266 C206.5814,249.9266 207.2344,250.5796 207.2344,251.3856 C207.2344,252.1916 206.5814,252.8446 205.7754,252.8446 C204.9694,252.8446 204.3164,252.1916 204.3164,251.3856" id="Fill-254" fill="#98DD4E"></path>
                <path d="M206.77,251.7948 C206.77,250.9888 207.423,250.3358 208.229,250.3358 C209.035,250.3358 209.687,250.9888 209.687,251.7948 C209.687,252.6008 209.035,253.2538 208.229,253.2538 C207.423,253.2538 206.77,252.6008 206.77,251.7948" id="Fill-255" fill="#98DD4E"></path>
                <path d="M206.9849,253.9295 C206.9849,253.1235 207.6379,252.4705 208.4429,252.4705 C209.2499,252.4705 209.9019,253.1235 209.9019,253.9295 C209.9019,254.7355 209.2499,255.3885 208.4429,255.3885 C207.6379,255.3885 206.9849,254.7355 206.9849,253.9295" id="Fill-256" fill="#98DD4E"></path>
                <path d="M208.688,254.5331 C208.688,253.7271 209.341,253.0741 210.146,253.0741 C210.953,253.0741 211.605,253.7271 211.605,254.5331 C211.605,255.3391 210.953,255.9911 210.146,255.9911 C209.341,255.9911 208.688,255.3391 208.688,254.5331" id="Fill-257" fill="#98DD4E"></path>
                <path d="M208.0669,253.2538 C208.0669,252.4478 208.7199,251.7948 209.5259,251.7948 C210.3319,251.7948 210.9849,252.4478 210.9849,253.2538 C210.9849,254.0598 210.3319,254.7128 209.5259,254.7128 C208.7199,254.7128 208.0669,254.0598 208.0669,253.2538" id="Fill-258" fill="#98DD4E"></path>
                <path d="M205.7754,251.2352 C205.7754,250.4292 206.4284,249.7762 207.2344,249.7762 C208.0404,249.7762 208.6924,250.4292 208.6924,251.2352 C208.6924,252.0412 208.0404,252.6942 207.2344,252.6942 C206.4284,252.6942 205.7754,252.0412 205.7754,251.2352" id="Fill-259" fill="#98DD4E"></path>
                <path d="M201.0952,253.4491 C201.0952,252.7711 201.6442,252.2221 202.3212,252.2221 C202.9982,252.2221 203.5472,252.7711 203.5472,253.4491 C203.5472,254.1261 202.9982,254.6751 202.3212,254.6751 C201.6442,254.6751 201.0952,254.1261 201.0952,253.4491" id="Fill-260" fill="#98DD4E"></path>
                <path d="M199.5947,252.4608 C199.5947,251.7838 200.1437,251.2348 200.8207,251.2348 C201.4977,251.2348 202.0467,251.7838 202.0467,252.4608 C202.0467,253.1388 201.4977,253.6878 200.8207,253.6878 C200.1437,253.6878 199.5947,253.1388 199.5947,252.4608" id="Fill-261" fill="#98DD4E"></path>
                <path d="M200.0752,253.6873 C200.0752,253.2753 200.4082,252.9423 200.8212,252.9423 C201.2322,252.9423 201.5662,253.2753 201.5662,253.6873 C201.5662,254.0993 201.2322,254.4323 200.8212,254.4323 C200.4082,254.4323 200.0752,254.0993 200.0752,253.6873" id="Fill-262" fill="#98DD4E"></path>
                <path d="M200.3496,254.6747 C200.3496,254.2637 200.6836,253.9297 201.0956,253.9297 C201.5066,253.9297 201.8406,254.2637 201.8406,254.6747 C201.8406,255.0867 201.5066,255.4207 201.0956,255.4207 C200.6836,255.4207 200.3496,255.0867 200.3496,254.6747" id="Fill-263" fill="#98DD4E"></path>
                <path d="M198.6797,252.1961 C198.6797,251.7851 199.0137,251.4511 199.4257,251.4511 C199.8367,251.4511 200.1707,251.7851 200.1707,252.1961 C200.1707,252.6081 199.8367,252.9421 199.4257,252.9421 C199.0137,252.9421 198.6797,252.6081 198.6797,252.1961" id="Fill-264" fill="#98DD4E"></path>
                <path d="M209.1636,256.0838 C209.1636,254.8948 210.1286,253.9298 211.3186,253.9298 C212.5086,253.9298 213.4736,254.8948 213.4736,256.0838 C213.4736,257.2738 212.5086,258.2388 211.3186,258.2388 C210.1286,258.2388 209.1636,257.2738 209.1636,256.0838" id="Fill-265" fill="#98DD4E"></path>
                <path d="M209.9849,257.6854 C209.9849,256.4954 210.9499,255.5304 212.1399,255.5304 C213.3299,255.5304 214.2949,256.4954 214.2949,257.6854 C214.2949,258.8744 213.3299,259.8394 212.1399,259.8394 C210.9499,259.8394 209.9849,258.8744 209.9849,257.6854" id="Fill-266" fill="#98DD4E"></path>
                <path d="M202.5962,254.1942 C202.5962,253.7822 202.9292,253.4492 203.3412,253.4492 C203.7532,253.4492 204.0872,253.7822 204.0872,254.1942 C204.0872,254.6052 203.7532,254.9392 203.3412,254.9392 C202.9292,254.9392 202.5962,254.6052 202.5962,254.1942" id="Fill-267" fill="#98DD4E"></path>
                <path d="M204.2842,255.5301 C204.2842,255.1181 204.6182,254.7851 205.0302,254.7851 C205.4412,254.7851 205.7752,255.1181 205.7752,255.5301 C205.7752,255.9421 205.4412,256.2751 205.0302,256.2751 C204.6182,256.2751 204.2842,255.9421 204.2842,255.5301" id="Fill-268" fill="#98DD4E"></path>
                <path d="M206.4888,257.3163 C206.4888,256.9043 206.8218,256.5703 207.2348,256.5703 C207.6458,256.5703 207.9798,256.9043 207.9798,257.3163 C207.9798,257.7273 207.6458,258.0613 207.2348,258.0613 C206.8218,258.0613 206.4888,257.7273 206.4888,257.3163" id="Fill-269" fill="#98DD4E"></path>
                <path d="M203.1665,255.1493 C203.1665,254.7383 203.5005,254.4043 203.9125,254.4043 C204.3235,254.4043 204.6575,254.7383 204.6575,255.1493 C204.6575,255.5613 204.3235,255.8953 203.9125,255.8953 C203.5005,255.8953 203.1665,255.5613 203.1665,255.1493" id="Fill-270" fill="#98DD4E"></path>
                <path d="M202.0469,254.6747 C202.0469,254.2637 202.3799,253.9297 202.7929,253.9297 C203.2039,253.9297 203.5379,254.2637 203.5379,254.6747 C203.5379,255.0867 203.2039,255.4207 202.7929,255.4207 C202.3799,255.4207 202.0469,255.0867 202.0469,254.6747" id="Fill-271" fill="#98DD4E"></path>
                <path d="M208.1992,257.8866 C208.1992,257.5716 208.4542,257.3166 208.7692,257.3166 C209.0852,257.3166 209.3402,257.5716 209.3402,257.8866 C209.3402,258.2016 209.0852,258.4566 208.7692,258.4566 C208.4542,258.4566 208.1992,258.2016 208.1992,257.8866" id="Fill-272" fill="#98DD4E"></path>
                <path d="M209.0142,258.4569 C209.0142,258.1429 209.2692,257.8869 209.5852,257.8869 C209.9002,257.8869 210.1552,258.1429 210.1552,258.4569 C210.1552,258.7719 209.9002,259.0279 209.5852,259.0279 C209.2692,259.0279 209.0142,258.7719 209.0142,258.4569" id="Fill-273" fill="#98DD4E"></path>
                <path d="M208.4434,258.6327 C208.4434,258.3177 208.6994,258.0617 209.0144,258.0617 C209.3294,258.0617 209.5854,258.3177 209.5854,258.6327 C209.5854,258.9467 209.3294,259.2027 209.0144,259.2027 C208.6994,259.2027 208.4434,258.9467 208.4434,258.6327" id="Fill-274" fill="#98DD4E"></path>
                <path d="M208.7695,259.8397 C208.7695,259.5257 209.0245,259.2697 209.3405,259.2697 C209.6555,259.2697 209.9115,259.5257 209.9115,259.8397 C209.9115,260.1547 209.6555,260.4107 209.3405,260.4107 C209.0245,260.4107 208.7695,260.1547 208.7695,259.8397" id="Fill-275" fill="#98DD4E"></path>
                <path d="M208.4434,260.7801 C208.4434,260.4661 208.6994,260.2101 209.0144,260.2101 C209.3294,260.2101 209.5854,260.4661 209.5854,260.7801 C209.5854,261.0951 209.3294,261.3511 209.0144,261.3511 C208.6994,261.3511 208.4434,261.0951 208.4434,260.7801" id="Fill-276" fill="#98DD4E"></path>
                <path d="M208.1992,259.4754 C208.1992,259.1614 208.4542,258.9054 208.7692,258.9054 C209.0852,258.9054 209.3402,259.1614 209.3402,259.4754 C209.3402,259.7904 209.0852,260.0464 208.7692,260.0464 C208.4542,260.0464 208.1992,259.7904 208.1992,259.4754" id="Fill-277" fill="#98DD4E"></path>
                <path d="M203.6411,255.6375 C203.6411,255.2435 203.9591,254.9255 204.3521,254.9255 C204.7451,254.9255 205.0641,255.2435 205.0641,255.6375 C205.0641,256.0305 204.7451,256.3495 204.3521,256.3495 C203.9591,256.3495 203.6411,256.0305 203.6411,255.6375" id="Fill-278" fill="#98DD4E"></path>
                <path d="M204.0479,257.1434 C204.0479,256.7504 204.3659,256.4324 204.7589,256.4324 C205.1519,256.4324 205.4709,256.7504 205.4709,257.1434 C205.4709,257.5374 205.1519,257.8554 204.7589,257.8554 C204.3659,257.8554 204.0479,257.5374 204.0479,257.1434" id="Fill-279" fill="#98DD4E"></path>
                <path d="M203.6411,258.3163 C203.6411,257.9233 203.9591,257.6043 204.3521,257.6043 C204.7451,257.6043 205.0641,257.9233 205.0641,258.3163 C205.0641,258.7103 204.7451,259.0283 204.3521,259.0283 C203.9591,259.0283 203.6411,258.7103 203.6411,258.3163" id="Fill-280" fill="#98DD4E"></path>
                <path d="M203.3364,256.6893 C203.3364,256.2963 203.6544,255.9773 204.0474,255.9773 C204.4404,255.9773 204.7594,256.2963 204.7594,256.6893 C204.7594,257.0833 204.4404,257.4013 204.0474,257.4013 C203.6544,257.4013 203.3364,257.0833 203.3364,256.6893" id="Fill-281" fill="#98DD4E"></path>
                <path d="M208.7695,261.7508 C208.7695,261.4978 208.9755,261.2918 209.2285,261.2918 C209.4825,261.2918 209.6875,261.4978 209.6875,261.7508 C209.6875,262.0048 209.4825,262.2098 209.2285,262.2098 C208.9755,262.2098 208.7695,262.0048 208.7695,261.7508" id="Fill-282" fill="#98DD4E"></path>
                <path d="M209.2285,261.3514 C209.2285,261.0974 209.4345,260.8924 209.6875,260.8924 C209.9415,260.8924 210.1465,261.0974 210.1465,261.3514 C210.1465,261.6044 209.9415,261.8104 209.6875,261.8104 C209.4345,261.8104 209.2285,261.6044 209.2285,261.3514" id="Fill-283" fill="#98DD4E"></path>
                <path d="M209.9111,258.9051 C209.9111,258.6511 210.1161,258.4461 210.3701,258.4461 C210.6231,258.4461 210.8291,258.6511 210.8291,258.9051 C210.8291,259.1591 210.6231,259.3641 210.3701,259.3641 C210.1161,259.3641 209.9111,259.1591 209.9111,258.9051" id="Fill-284" fill="#98DD4E"></path>
                <path d="M209.5259,258.0614 C209.5259,257.8084 209.7319,257.6024 209.9849,257.6024 C210.2379,257.6024 210.4439,257.8084 210.4439,258.0614 C210.4439,258.3154 210.2379,258.5204 209.9849,258.5204 C209.7319,258.5204 209.5259,258.3154 209.5259,258.0614" id="Fill-285" fill="#98DD4E"></path>
                <path d="M204.6577,254.6747 C204.6577,254.2637 204.9907,253.9297 205.4027,253.9297 C205.8147,253.9297 206.1487,254.2637 206.1487,254.6747 C206.1487,255.0867 205.8147,255.4207 205.4027,255.4207 C204.9907,255.4207 204.6577,255.0867 204.6577,254.6747" id="Fill-286" fill="#98DD4E"></path>
                <path d="M203.5391,254.4041 C203.5391,253.9921 203.8721,253.6591 204.2841,253.6591 C204.6961,253.6591 205.0301,253.9921 205.0301,254.4041 C205.0301,254.8161 204.6961,255.1491 204.2841,255.1491 C203.8721,255.1491 203.5391,254.8161 203.5391,254.4041" id="Fill-287" fill="#98DD4E"></path>
                <path d="M207.5039,254.9393 C207.5039,254.3653 207.9699,253.8993 208.5449,253.8993 C209.1189,253.8993 209.5849,254.3653 209.5849,254.9393 C209.5849,255.5143 209.1189,255.9803 208.5449,255.9803 C207.9699,255.9803 207.5039,255.5143 207.5039,254.9393" id="Fill-288" fill="#98DD4E"></path>
                <path d="M206.4639,256.2752 C206.4639,255.7012 206.9299,255.2352 207.5039,255.2352 C208.0789,255.2352 208.5449,255.7012 208.5449,256.2752 C208.5449,256.8502 208.0789,257.3162 207.5039,257.3162 C206.9299,257.3162 206.4639,256.8502 206.4639,256.2752" id="Fill-289" fill="#98DD4E"></path>
                <path d="M208.0244,256.5702 C208.0244,255.7952 208.6524,255.1672 209.4284,255.1672 C210.2034,255.1672 210.8324,255.7952 210.8324,256.5702 C210.8324,257.3452 210.2034,257.9742 209.4284,257.9742 C208.6524,257.9742 208.0244,257.3452 208.0244,256.5702" id="Fill-290" fill="#98DD4E"></path>
                <polygon id="Fill-291" fill="#C1C1C1" points="172.4282 206.2635 202.2222 261.0425 227.3402 275.5265 227.3402 229.2475 222.1352 220.1625 177.9842 203.4565"></polygon>
                <path d="M162.1255,197.7235 C162.1255,197.7235 162.7585,205.5035 166.4855,208.1025 C170.2115,210.7015 171.9835,203.4585 171.9835,203.4585 L162.1255,197.7235 Z" id="Fill-292" fill="#BC5E2F"></path>
                <path d="M171.9839,203.4413 C171.9839,203.4413 172.6169,211.2213 176.3439,213.8203 C180.0699,216.4203 181.8419,209.1773 181.8419,209.1773 L171.9839,203.4413 Z" id="Fill-293" fill="#D8D8D8"></path>
                <path d="M181.8418,209.1776 C181.8418,209.1776 182.4748,216.9566 186.2018,219.5566 C189.9278,222.1556 191.6998,214.9126 191.6998,214.9126 L181.8418,209.1776 Z" id="Fill-294" fill="#BC5E2F"></path>
                <path d="M191.7002,214.9129 C191.7002,214.9129 192.3332,222.6929 196.0602,225.2919 C199.7862,227.8909 201.5582,220.6479 201.5582,220.6479 L191.7002,214.9129 Z" id="Fill-295" fill="#D8D8D8"></path>
                <path d="M201.5581,220.6483 C201.5581,220.6483 202.1911,228.4283 205.9181,231.0273 C209.6441,233.6273 211.4161,226.3833 211.4161,226.3833 L201.5581,220.6483 Z" id="Fill-296" fill="#BC5E2F"></path>
                <polygon id="Fill-297" fill="#E57435" points="172.5361 191.6825 162.1251 197.7235 171.9841 203.4565 182.4571 197.3795"></polygon>
                <polygon id="Fill-298" fill="#F8F8F8" points="182.4443 197.3719 171.9843 203.4409 181.8413 209.1749 192.3653 203.0679"></polygon>
                <polygon id="Fill-299" fill="#E57435" points="192.3672 203.0702 181.8422 209.1772 191.7002 214.9112 202.2882 208.7662"></polygon>
                <polygon id="Fill-300" fill="#F8F8F8" points="202.2905 208.7674 191.7005 214.9134 201.5585 220.6464 212.2115 214.4644"></polygon>
                <polygon id="Fill-301" fill="#E57435" points="212.2134 214.4657 201.5584 220.6487 211.4164 226.3817 222.1344 220.1627"></polygon>
                <polygon id="Fill-302" fill="#C6C6C6" points="227.3398 144.9315 180.6458 171.9895 227.3398 198.9155 274.0348 171.9895"></polygon>
                <polygon id="Fill-303" fill="#C1C1C1" points="227.3398 229.2479 271.9948 249.7759 227.3398 275.5259"></polygon>
                <polygon id="Fill-304" fill="#C1C1C1" points="227.3398 152.0946 267.8388 175.5616 274.0348 171.9896 227.3398 144.9316 180.6458 171.9896 186.8408 175.5616"></polygon>
                <polygon id="Fill-305" fill="#ABCACE" points="395.5361 252.0663 359.9791 272.6703 395.5361 293.1733 431.0931 272.6703"></polygon>
                <polygon id="Fill-306" fill="#EDEDED" points="395.5361 181.9686 359.9791 202.5726 395.5361 223.0756 431.0931 202.5726"></polygon>
                <polygon id="Fill-307" fill="#C8CCCC" points="395.5361 293.1737 359.9791 272.6697 359.9791 202.5717 395.5361 223.0757"></polygon>
                <polygon id="Fill-308" fill="#666666" points="374.7354 230.7557 368.6134 227.2257 368.6134 215.1567 374.7354 218.6877"></polygon>
                <polygon id="Fill-309" fill="#666666" points="386.9014 237.3641 380.7794 233.8341 380.7794 221.7651 386.9014 225.2961"></polygon>
                <polygon id="Fill-310" fill="#666666" points="374.7354 245.1639 368.6134 241.6339 368.6134 229.5649 374.7354 233.0959"></polygon>
                <polygon id="Fill-311" fill="#666666" points="386.9014 251.7723 380.7794 248.2433 380.7794 236.1733 386.9014 239.7043"></polygon>
                <polygon id="Fill-312" fill="#666666" points="374.7354 259.5721 368.6134 256.0421 368.6134 243.9731 374.7354 247.5041"></polygon>
                <polygon id="Fill-313" fill="#666666" points="386.9014 266.1815 380.7794 262.6515 380.7794 250.5815 386.9014 254.1125"></polygon>
                <polygon id="Fill-314" fill="#C1C1C1" points="395.5361 292.9842 431.0931 272.4802 431.0931 202.3822 395.5361 222.8862"></polygon>
                <polygon id="Fill-315" fill="#444444" points="410.292 264.8006 404.171 268.3306 404.171 280.3996 410.292 276.8686"></polygon>
                <polygon id="Fill-316" fill="#444444" points="422.458 258.1922 416.337 261.7212 416.337 273.7912 422.458 270.2602"></polygon>
                <polygon id="Fill-317" fill="#444444" points="410.292 250.3924 404.171 253.9224 404.171 265.9914 410.292 262.4604"></polygon>
                <polygon id="Fill-318" fill="#444444" points="422.458 243.784 416.337 247.313 416.337 259.383 422.458 255.852"></polygon>
                <polygon id="Fill-319" fill="#444444" points="410.292 235.9842 404.171 239.5142 404.171 251.5832 410.292 248.0522"></polygon>
                <polygon id="Fill-320" fill="#444444" points="422.458 229.3748 416.337 232.9048 416.337 244.9748 422.458 241.4438"></polygon>
                <polygon id="Fill-321" fill="#444444" points="410.292 221.576 404.171 225.106 404.171 237.175 410.292 233.644"></polygon>
                <polygon id="Fill-322" fill="#444444" points="422.458 214.9666 416.337 218.4966 416.337 230.5666 422.458 227.0356"></polygon>
                <polygon id="Fill-323" fill="#666666" points="385.2715 285.536 377.7575 281.203 377.7575 266.391 385.2715 270.723"></polygon>
                <polygon id="Fill-324" fill="#666666" points="377.7578 281.1903 370.2438 276.8583 370.2438 262.0453 377.7578 266.3783"></polygon>
                <polygon id="Fill-325" fill="#A8A8A8" points="387.8984 271.2987 385.2554 272.8197 367.6164 262.2787 370.1854 260.9627"></polygon>
                <polygon id="Fill-326" fill="#8E8E8E" points="367.6162 262.2791 367.6162 263.2641 385.2562 273.7911 385.2562 272.8191"></polygon>
                <polygon id="Fill-327" fill="#666666" points="385.2559 273.7909 387.8989 272.2299 387.8989 271.2989 385.2559 272.8189"></polygon>
                <polygon id="Fill-328" fill="#ABCACE" points="333.2007 271.702 285.4147 299.391 333.2007 326.947 380.9857 299.391"></polygon>
                <polygon id="Fill-329" fill="#EDEDED" points="333.2007 177.4979 285.4147 205.1869 333.2007 232.7429 380.9857 205.1869"></polygon>
                <polygon id="Fill-330" fill="#C8CCCC" points="333.2007 326.9471 285.4147 299.3911 285.4147 205.1871 333.2007 232.7431"></polygon>
                <polygon id="Fill-331" fill="#666666" points="305.2466 243.0633 297.0186 238.3183 297.0186 222.0993 305.2466 226.8433"></polygon>
                <polygon id="Fill-332" fill="#666666" points="321.5967 251.9442 313.3687 247.2002 313.3687 230.9812 321.5967 235.7252"></polygon>
                <polygon id="Fill-333" fill="#666666" points="305.2466 262.4266 297.0186 257.6826 297.0186 241.4626 305.2466 246.2066"></polygon>
                <polygon id="Fill-334" fill="#666666" points="321.5967 271.3084 313.3687 266.5634 313.3687 250.3444 321.5967 255.0884"></polygon>
                <polygon id="Fill-335" fill="#666666" points="305.2466 281.7899 297.0186 277.0459 297.0186 260.8259 305.2466 265.5699"></polygon>
                <polygon id="Fill-336" fill="#666666" points="321.5967 290.6717 313.3687 285.9277 313.3687 269.7077 321.5967 274.4517"></polygon>
                <polygon id="Fill-337" fill="#C1C1C1" points="333.2007 326.6922 380.9857 299.1362 380.9857 204.9322 333.2007 232.4882"></polygon>
                <polygon id="Fill-338" fill="#444444" points="353.0317 288.8163 344.8037 293.5603 344.8037 309.7803 353.0317 305.0363"></polygon>
                <polygon id="Fill-339" fill="#444444" points="369.3818 279.9344 361.1538 284.6784 361.1538 300.8984 369.3818 296.1544"></polygon>
                <polygon id="Fill-340" fill="#444444" points="353.0317 269.453 344.8037 274.197 344.8037 290.417 353.0317 285.672"></polygon>
                <polygon id="Fill-341" fill="#444444" points="369.3818 260.5711 361.1538 265.3151 361.1538 281.5351 369.3818 276.7911"></polygon>
                <polygon id="Fill-342" fill="#444444" points="353.0317 250.0897 344.8037 254.8337 344.8037 271.0537 353.0317 266.3087"></polygon>
                <polygon id="Fill-343" fill="#444444" points="369.3818 241.2079 361.1538 245.9519 361.1538 262.1719 369.3818 257.4279"></polygon>
                <polygon id="Fill-344" fill="#444444" points="353.0317 230.7254 344.8037 235.4704 344.8037 251.6894 353.0317 246.9454"></polygon>
                <polygon id="Fill-345" fill="#444444" points="369.3818 221.8446 361.1538 226.5886 361.1538 242.8086 369.3818 238.0636"></polygon>
                <polygon id="Fill-346" fill="#666666" points="319.4053 316.6825 309.3073 310.8595 309.3073 290.9535 319.4053 296.7765"></polygon>
                <polygon id="Fill-347" fill="#666666" points="309.3076 310.8426 299.2106 305.0206 299.2106 285.1136 309.3076 290.9376"></polygon>
                <polygon id="Fill-348" fill="#A8A8A8" points="322.936 297.5487 319.385 299.5927 295.679 285.4277 299.132 283.6587"></polygon>
                <polygon id="Fill-349" fill="#8E8E8E" points="295.6792 285.4276 295.6792 286.7516 319.3852 300.8986 319.3852 299.5926"></polygon>
                <polygon id="Fill-350" fill="#666666" points="319.3848 300.8983 322.9358 298.8013 322.9358 297.5483 319.3848 299.5923"></polygon>
                <polygon id="Fill-351" fill="#C1C1C1" points="395.5361 292.9842 419.3971 279.2242 395.5361 264.8002 395.5361 253.9752 380.7791 214.9662 380.7791 284.6642"></polygon>
                <path d="M361.4922,46.3339 C350.1552,46.3339 340.9652,55.5239 340.9652,66.8609 C340.9652,78.1989 350.1552,87.3889 361.4922,87.3889 C372.8292,87.3889 382.0192,78.1989 382.0192,66.8609 C382.0192,55.5239 372.8292,46.3339 361.4922,46.3339" id="Fill-352" fill="#FFFFFF"></path>
                <path d="M371.4805,77.1581 L365.8705,77.1581 L365.8705,79.1211 L371.7055,79.1211 C372.6645,79.1211 373.4445,78.3411 373.4445,77.3831 L373.4445,67.0061 L371.4805,65.0411 L371.4805,77.1581 Z M361.6905,51.9731 C361.2225,51.9731 360.7855,52.1551 360.4555,52.4841 L346.9185,66.0311 L348.3165,67.4281 L361.6895,54.0441 L375.0615,67.4281 L376.4515,66.0391 L376.4595,66.0311 L362.9245,52.4871 C362.6005,52.1601 362.1505,51.9731 361.6905,51.9731 L361.6905,51.9731 Z M351.9005,65.0381 L349.9375,67.0031 L349.9375,77.3831 C349.9375,78.3411 350.7155,79.1211 351.6735,79.1211 L357.5095,79.1211 L357.5095,77.1581 L351.9005,77.1581 L351.9005,65.0381 Z M358.3565,79.0761 L365.0235,79.0761 L365.0235,69.0871 L358.3565,69.0871 L358.3565,79.0761 Z" id="Fill-353" fill="#FFFFFF"></path>
                <path d="M370.7344,47.8802 C364.9874,42.5912 356.0404,42.8782 350.2784,48.3632 C350.0264,48.6042 349.7764,48.8512 349.5384,49.1112 C349.2024,49.4762 348.8954,49.8552 348.6024,50.2412 L347.4484,49.1512 L344.7574,46.6072 L345.4634,49.9222 L345.8614,51.7832 L345.8844,51.8902 L347.9374,61.5052 L359.7664,60.7922 L355.5704,56.8252 C356.0984,55.9522 356.7214,55.1052 357.4564,54.3062 C359.6414,51.9312 362.3314,50.4242 364.9454,49.8852 C365.3754,49.7972 365.8024,49.7312 366.2254,49.6952 C366.4364,49.6782 366.6454,49.6692 366.8534,49.6642 C368.9384,49.6192 370.8794,50.2422 372.3504,51.5972 C372.8914,52.0952 373.3354,52.6672 373.6894,53.2932 C374.0204,53.5422 374.3444,53.7982 374.6634,54.0632 C373.9254,51.7592 372.6254,49.6192 370.7344,47.8802" id="Fill-354" fill="#FFFFFF"></path>
                <path d="M380.0156,86.8217 L379.2396,83.4557 L379.0636,82.6907 L377.1046,74.1907 L365.2866,75.0957 L369.5476,78.9917 C369.0346,79.8747 368.4246,80.7327 367.7026,81.5417 C365.6506,83.8447 363.1256,85.3627 360.6326,86.0007 C360.3766,86.0647 360.1216,86.1197 359.8676,86.1667 C359.0496,86.3177 358.2406,86.3737 357.4586,86.3267 C355.7256,86.2207 354.1256,85.6247 352.8546,84.4917 C352.2136,83.9217 351.7166,83.2417 351.3286,82.4967 C351.0266,82.2917 350.7296,82.0797 350.4366,81.8627 C351.2016,84.2307 352.5576,86.4237 354.5316,88.1817 C359.8406,92.9117 367.7266,92.9797 373.3766,88.7457 C374.2056,88.1257 374.9876,87.4137 375.7046,86.6077 C376.0346,86.2377 376.3346,85.8527 376.6206,85.4637 L378.6936,87.3587 L380.5256,89.0337 L380.0156,86.8217 Z" id="Fill-355" fill="#FFFFFF"></path>
                <path d="M361.4922,49.5394 C351.8362,49.5394 344.0092,57.3674 344.0092,67.0234 C344.0092,76.6794 351.8362,84.5064 361.4922,84.5064 C371.1472,84.5064 378.9752,76.6794 378.9752,67.0234 C378.9752,57.3674 371.1472,49.5394 361.4922,49.5394" id="Fill-356" fill="#D6D6D6"></path>
                <path d="M370,75.7928 L365.221,75.7928 L365.221,77.4658 L370.19,77.4658 C371.008,77.4658 371.672,76.8008 371.672,75.9838 L371.672,67.1468 L370,65.4728 L370,75.7928 Z M361.661,54.3428 C361.263,54.3428 360.891,54.4978 360.609,54.7778 L349.08,66.3158 L350.27,67.5058 L361.66,56.1068 L373.05,67.5058 L374.232,66.3228 L374.24,66.3158 L362.713,54.7798 C362.437,54.5018 362.053,54.3428 361.661,54.3428 L361.661,54.3428 Z M353.323,65.4698 L351.65,67.1438 L351.65,75.9838 C351.65,76.8008 352.313,77.4658 353.129,77.4658 L358.1,77.4658 L358.1,75.7928 L353.323,75.7928 L353.323,65.4698 Z M358.821,77.4268 L364.5,77.4268 L364.5,68.9188 L358.821,68.9188 L358.821,77.4268 Z" id="Fill-357" fill="#333333"></path>
                <path d="M369.3633,50.8568 C364.4683,46.3518 356.8483,46.5968 351.9423,51.2688 C351.7263,51.4728 351.5143,51.6838 351.3103,51.9058 C351.0243,52.2158 350.7633,52.5388 350.5133,52.8678 L349.5303,51.9388 L347.2383,49.7728 L347.8413,52.5958 L348.1793,54.1808 L348.1983,54.2718 L349.9463,62.4608 L360.0223,61.8538 L356.4483,58.4758 C356.8983,57.7318 357.4293,57.0098 358.0543,56.3298 C359.9163,54.3068 362.2073,53.0238 364.4323,52.5648 C364.7993,52.4888 365.1633,52.4338 365.5243,52.4028 C365.7033,52.3878 365.8813,52.3798 366.0583,52.3768 C367.8343,52.3378 369.4863,52.8688 370.7403,54.0228 C371.2013,54.4468 371.5793,54.9338 371.8813,55.4668 C372.1623,55.6788 372.4383,55.8978 372.7103,56.1228 C372.0823,54.1608 370.9743,52.3378 369.3633,50.8568" id="Fill-358" fill="#EC1A3D"></path>
                <path d="M377.2686,84.0233 L376.6086,81.1573 L376.4576,80.5053 L374.7896,73.2653 L364.7236,74.0363 L368.3526,77.3553 C367.9156,78.1063 367.3966,78.8373 366.7826,79.5263 C365.0346,81.4883 362.8836,82.7813 360.7606,83.3243 C360.5416,83.3793 360.3256,83.4253 360.1086,83.4653 C359.4116,83.5943 358.7226,83.6423 358.0566,83.6023 C356.5806,83.5123 355.2176,83.0033 354.1356,82.0393 C353.5896,81.5533 353.1656,80.9743 352.8356,80.3393 C352.5786,80.1653 352.3256,79.9853 352.0766,79.8003 C352.7266,81.8163 353.8816,83.6843 355.5636,85.1823 C360.0846,89.2103 366.8016,89.2693 371.6146,85.6623 C372.3216,85.1343 372.9866,84.5273 373.5976,83.8413 C373.8776,83.5253 374.1336,83.1983 374.3776,82.8673 L376.1426,84.4813 L377.7036,85.9083 L377.2686,84.0233 Z" id="Fill-359" fill="#EC1A3D"></path>
                <path d="M221.9922,128.8339 C210.6552,128.8339 201.4652,138.0239 201.4652,149.3609 C201.4652,160.6979 210.6552,169.8889 221.9922,169.8889 C233.3292,169.8889 242.5192,160.6979 242.5192,149.3609 C242.5192,138.0239 233.3292,128.8339 221.9922,128.8339" id="Fill-360" fill="#FFFFFF"></path>
                <path d="M231.9805,159.6581 L226.3695,159.6581 L226.3695,161.6221 L232.2055,161.6221 C233.1645,161.6221 233.9445,160.8421 233.9445,159.8831 L233.9445,149.5071 L231.9805,147.5411 L231.9805,159.6581 Z M222.1895,134.4731 C221.7235,134.4731 221.2855,134.6541 220.9555,134.9841 L207.4185,148.5301 L208.8165,149.9281 L222.1885,136.5451 L235.5625,149.9281 L236.9505,148.5391 L236.9595,148.5301 L223.4245,134.9871 C223.1005,134.6611 222.6505,134.4731 222.1895,134.4731 L222.1895,134.4731 Z M212.4005,147.5381 L210.4375,149.5031 L210.4375,159.8831 C210.4375,160.8421 211.2155,161.6221 212.1735,161.6221 L218.0095,161.6221 L218.0095,159.6581 L212.4005,159.6581 L212.4005,147.5381 Z M218.8565,161.5761 L225.5235,161.5761 L225.5235,151.5871 L218.8565,151.5871 L218.8565,161.5761 Z" id="Fill-361" fill="#FFFFFF"></path>
                <path d="M231.2339,130.3802 C225.4869,125.0912 216.5399,125.3782 210.7789,130.8642 C210.5259,131.1042 210.2769,131.3512 210.0379,131.6122 C209.7019,131.9762 209.3959,132.3552 209.1019,132.7412 L207.9489,131.6502 L205.2569,129.1072 L205.9639,132.4222 L206.3619,134.2832 L206.3839,134.3902 L208.4369,144.0052 L220.2669,143.2922 L216.0699,139.3262 C216.5979,138.4522 217.2219,137.6052 217.9559,136.8052 C220.1419,134.4312 222.8309,132.9242 225.4449,132.3842 C225.8749,132.2972 226.3029,132.2312 226.7259,132.1962 C226.9369,132.1772 227.1449,132.1692 227.3529,132.1642 C229.4389,132.1192 231.3789,132.7422 232.8509,134.0972 C233.3919,134.5952 233.8349,135.1672 234.1889,135.7942 C234.5199,136.0422 234.8449,136.2982 235.1629,136.5632 C234.4259,134.2592 233.1249,132.1202 231.2339,130.3802" id="Fill-362" fill="#FFFFFF"></path>
                <path d="M240.5156,169.3211 L239.7396,165.9561 L239.5636,165.1901 L237.6036,156.6901 L225.7866,157.5951 L230.0476,161.4921 C229.5346,162.3741 228.9246,163.2321 228.2026,164.0411 C226.1506,166.3451 223.6256,167.8631 221.1326,168.5001 C220.8766,168.5641 220.6216,168.6191 220.3676,168.6671 C219.5496,168.8171 218.7406,168.8741 217.9586,168.8261 C216.2256,168.7201 214.6256,168.1241 213.3546,166.9911 C212.7136,166.4211 212.2166,165.7421 211.8286,164.9961 C211.5266,164.7921 211.2296,164.5801 210.9366,164.3631 C211.7016,166.7301 213.0576,168.9231 215.0316,170.6811 C220.3406,175.4121 228.2266,175.4791 233.8766,171.2461 C234.7056,170.6251 235.4876,169.9131 236.2046,169.1071 C236.5346,168.7371 236.8346,168.3531 237.1206,167.9641 L239.1926,169.8581 L241.0256,171.5341 L240.5156,169.3211 Z" id="Fill-363" fill="#FFFFFF"></path>
                <path d="M221.9922,132.0399 C212.3362,132.0399 204.5092,139.8669 204.5092,149.5229 C204.5092,159.1799 212.3362,167.0069 221.9922,167.0069 C231.6482,167.0069 239.4752,159.1799 239.4752,149.5229 C239.4752,139.8669 231.6482,132.0399 221.9922,132.0399" id="Fill-364" fill="#D6D6D6"></path>
                <path d="M230.4995,158.2928 L225.7205,158.2928 L225.7205,159.9658 L230.6905,159.9658 C231.5075,159.9658 232.1725,159.3008 232.1725,158.4838 L232.1725,149.6468 L230.4995,147.9728 L230.4995,158.2928 Z M222.1605,136.8428 C221.7625,136.8428 221.3905,136.9968 221.1095,137.2778 L209.5795,148.8148 L210.7705,150.0058 L222.1595,138.6068 L233.5495,150.0058 L234.7325,148.8228 L234.7395,148.8148 L223.2125,137.2798 C222.9365,137.0028 222.5525,136.8428 222.1605,136.8428 L222.1605,136.8428 Z M213.8225,147.9708 L212.1505,149.6448 L212.1505,158.4838 C212.1505,159.3008 212.8135,159.9658 213.6295,159.9658 L218.6005,159.9658 L218.6005,158.2928 L213.8225,158.2928 L213.8225,147.9708 Z M219.3215,159.9268 L225.0005,159.9268 L225.0005,151.4188 L219.3215,151.4188 L219.3215,159.9268 Z" id="Fill-365" fill="#333333"></path>
                <path d="M229.8633,133.3563 C224.9683,128.8523 217.3483,129.0963 212.4423,133.7683 C212.2263,133.9733 212.0143,134.1833 211.8103,134.4053 C211.5243,134.7153 211.2633,135.0393 211.0133,135.3683 L210.0303,134.4383 L207.7383,132.2723 L208.3413,135.0953 L208.6793,136.6813 L208.6983,136.7723 L210.4463,144.9603 L220.5223,144.3533 L216.9483,140.9753 C217.3983,140.2313 217.9293,139.5093 218.5543,138.8303 C220.4163,136.8063 222.7063,135.5233 224.9323,135.0643 C225.2993,134.9893 225.6633,134.9333 226.0243,134.9033 C226.2033,134.8873 226.3813,134.8803 226.5583,134.8763 C228.3343,134.8373 229.9873,135.3693 231.2403,136.5223 C231.7013,136.9473 232.0783,137.4333 232.3803,137.9673 C232.6623,138.1783 232.9383,138.3973 233.2103,138.6233 C232.5823,136.6613 231.4743,134.8373 229.8633,133.3563" id="Fill-366" fill="#EC1A3D"></path>
                <path d="M237.7686,166.5233 L237.1076,163.6573 L236.9576,163.0053 L235.2896,155.7653 L225.2246,156.5363 L228.8526,159.8553 C228.4156,160.6063 227.8966,161.3373 227.2826,162.0263 C225.5336,163.9893 223.3836,165.2813 221.2606,165.8243 C221.0416,165.8783 220.8256,165.9253 220.6086,165.9653 C219.9116,166.0943 219.2226,166.1423 218.5566,166.1023 C217.0806,166.0123 215.7176,165.5033 214.6356,164.5393 C214.0896,164.0533 213.6656,163.4743 213.3356,162.8393 C213.0786,162.6663 212.8256,162.4853 212.5766,162.3003 C213.2266,164.3173 214.3816,166.1843 216.0636,167.6823 C220.5846,171.7103 227.3026,171.7683 232.1146,168.1633 C232.8206,167.6333 233.4866,167.0273 234.0976,166.3403 C234.3776,166.0263 234.6336,165.6993 234.8776,165.3673 L236.6426,166.9803 L238.2036,168.4083 L237.7686,166.5233 Z" id="Fill-367" fill="#EC1A3D"></path>
                <path d="M331.1519,168.6581 C319.8149,168.6581 310.6249,177.8481 310.6249,189.1851 C310.6249,200.5221 319.8149,209.7131 331.1519,209.7131 C342.4889,209.7131 351.6789,200.5221 351.6789,189.1851 C351.6789,177.8481 342.4889,168.6581 331.1519,168.6581" id="Fill-368" fill="#FFFFFF"></path>
                <path d="M341.1406,199.4823 L335.5296,199.4823 L335.5296,201.4463 L341.3656,201.4463 C342.3246,201.4463 343.1046,200.6663 343.1046,199.7073 L343.1046,189.3313 L341.1406,187.3653 L341.1406,199.4823 Z M331.3496,174.2973 C330.8826,174.2973 330.4456,174.4783 330.1156,174.8083 L316.5786,188.3543 L317.9756,189.7523 L331.3486,176.3693 L344.7216,189.7523 L346.1106,188.3633 L346.1196,188.3543 L332.5846,174.8103 C332.2606,174.4853 331.8106,174.2973 331.3496,174.2973 L331.3496,174.2973 Z M321.5606,187.3623 L319.5976,189.3273 L319.5976,199.7073 C319.5976,200.6663 320.3756,201.4463 321.3336,201.4463 L327.1696,201.4463 L327.1696,199.4823 L321.5606,199.4823 L321.5606,187.3623 Z M328.0166,201.4003 L334.6836,201.4003 L334.6836,191.4113 L328.0166,191.4113 L328.0166,201.4003 Z" id="Fill-369" fill="#FFFFFF"></path>
                <path d="M340.394,170.2049 C334.647,164.9149 325.7,165.2019 319.939,170.6879 C319.686,170.9289 319.437,171.1759 319.198,171.4359 C318.862,171.8009 318.555,172.1799 318.262,172.5649 L317.108,171.4749 L314.417,168.9319 L315.124,172.2469 L315.521,174.1069 L315.544,174.2149 L317.597,183.8289 L329.427,183.1159 L325.23,179.1499 C325.758,178.2759 326.382,177.4299 327.116,176.6299 C329.302,174.2559 331.991,172.7489 334.605,172.2089 C335.035,172.1209 335.463,172.0559 335.886,172.0199 C336.096,172.0019 336.305,171.9929 336.513,171.9879 C338.599,171.9429 340.539,172.5659 342.011,173.9219 C342.552,174.4199 342.995,174.9909 343.349,175.6179 C343.68,175.8659 344.004,176.1229 344.323,176.3879 C343.585,174.0839 342.285,171.9439 340.394,170.2049" id="Fill-370" fill="#FFFFFF"></path>
                <path d="M349.6753,209.1454 L348.8993,205.7804 L348.7233,205.0144 L346.7643,196.5144 L334.9463,197.4194 L339.2073,201.3164 C338.6943,202.1984 338.0853,203.0564 337.3633,203.8654 C335.3103,206.1694 332.7853,207.6874 330.2933,208.3244 C330.0363,208.3884 329.7813,208.4434 329.5273,208.4914 C328.7093,208.6414 327.9003,208.6984 327.1183,208.6504 C325.3853,208.5444 323.7853,207.9484 322.5143,206.8154 C321.8733,206.2454 321.3763,205.5664 320.9883,204.8204 C320.6873,204.6164 320.3903,204.4044 320.0973,204.1874 C320.8613,206.5544 322.2173,208.7474 324.1913,210.5054 C329.5003,215.2364 337.3863,215.3034 343.0373,211.0704 C343.8663,210.4494 344.6473,209.7374 345.3643,208.9314 C345.6943,208.5614 345.9943,208.1774 346.2803,207.7884 L348.3533,209.6824 L350.1853,211.3584 L349.6753,209.1454 Z" id="Fill-371" fill="#FFFFFF"></path>
                <path d="M331.1519,171.8641 C321.4959,171.8641 313.6689,179.6911 313.6689,189.3471 C313.6689,199.0041 321.4959,206.8311 331.1519,206.8311 C340.8079,206.8311 348.6349,199.0041 348.6349,189.3471 C348.6349,179.6911 340.8079,171.8641 331.1519,171.8641" id="Fill-372" fill="#D6D6D6"></path>
                <path d="M339.6597,198.117 L334.8807,198.117 L334.8807,199.79 L339.8507,199.79 C340.6677,199.79 341.3317,199.125 341.3317,198.308 L341.3317,189.471 L339.6597,187.797 L339.6597,198.117 Z M331.3207,176.667 C330.9227,176.667 330.5507,176.821 330.2687,177.102 L318.7397,188.639 L319.9307,189.83 L331.3197,178.431 L342.7097,189.83 L343.8927,188.647 L343.8997,188.639 L332.3727,177.104 C332.0967,176.827 331.7127,176.667 331.3207,176.667 L331.3207,176.667 Z M322.9827,187.795 L321.3107,189.469 L321.3107,198.308 C321.3107,199.125 321.9737,199.79 322.7897,199.79 L327.7597,199.79 L327.7597,198.117 L322.9827,198.117 L322.9827,187.795 Z M328.4817,199.751 L334.1607,199.751 L334.1607,191.243 L328.4817,191.243 L328.4817,199.751 Z" id="Fill-373" fill="#333333"></path>
                <path d="M339.0234,173.1805 C334.1284,168.6755 326.5084,168.9205 321.6014,173.5925 C321.3864,173.7975 321.1734,174.0075 320.9704,174.2295 C320.6844,174.5395 320.4234,174.8635 320.1734,175.1925 L319.1904,174.2625 L316.8984,172.0965 L317.5004,174.9195 L317.8394,176.5055 L317.8584,176.5965 L319.6064,184.7845 L329.6824,184.1775 L326.1084,180.7995 C326.5584,180.0555 327.0884,179.3335 327.7144,178.6535 C329.5764,176.6305 331.8664,175.3475 334.0924,174.8885 C334.4594,174.8135 334.8234,174.7575 335.1844,174.7275 C335.3634,174.7115 335.5414,174.7045 335.7184,174.7005 C337.4944,174.6615 339.1474,175.1935 340.4004,176.3465 C340.8614,176.7715 341.2384,177.2575 341.5404,177.7915 C341.8224,178.0025 342.0984,178.2215 342.3704,178.4475 C341.7424,176.4855 340.6344,174.6615 339.0234,173.1805" id="Fill-374" fill="#EC1A3D"></path>
                <path d="M346.9287,206.3475 L346.2677,203.4815 L346.1177,202.8295 L344.4497,195.5895 L334.3847,196.3605 L338.0127,199.6795 C337.5757,200.4305 337.0567,201.1615 336.4417,201.8505 C334.6937,203.8135 332.5437,205.1055 330.4207,205.6485 C330.2017,205.7025 329.9847,205.7495 329.7677,205.7895 C329.0717,205.9185 328.3827,205.9665 327.7167,205.9265 C326.2407,205.8365 324.8777,205.3275 323.7957,204.3635 C323.2497,203.8775 322.8257,203.2985 322.4957,202.6635 C322.2387,202.4905 321.9857,202.3095 321.7367,202.1245 C322.3867,204.1405 323.5417,206.0085 325.2227,207.5065 C329.7447,211.5345 336.4627,211.5925 341.2747,207.9875 C341.9807,207.4575 342.6467,206.8515 343.2577,206.1645 C343.5377,205.8505 343.7937,205.5235 344.0377,205.1915 L345.8027,206.8045 L347.3627,208.2325 L346.9287,206.3475 Z" id="Fill-375" fill="#EC1A3D"></path>
                <path d="M554.1523,96.1581 C542.8153,96.1581 533.6253,105.3481 533.6253,116.6851 C533.6253,128.0221 542.8153,137.2131 554.1523,137.2131 C565.4893,137.2131 574.6793,128.0221 574.6793,116.6851 C574.6793,105.3481 565.4893,96.1581 554.1523,96.1581" id="Fill-376" fill="#FFFFFF"></path>
                <path d="M564.1406,126.9823 L558.5296,126.9823 L558.5296,128.9453 L564.3656,128.9453 C565.3246,128.9453 566.1046,128.1653 566.1046,127.2073 L566.1046,116.8303 L564.1406,114.8643 L564.1406,126.9823 Z M554.3506,101.7973 C553.8826,101.7973 553.4456,101.9793 553.1156,102.3083 L539.5786,115.8553 L540.9766,117.2523 L554.3486,103.8683 L567.7216,117.2523 L569.1106,115.8633 L569.1196,115.8553 L555.5846,102.3113 C555.2606,101.9843 554.8106,101.7973 554.3506,101.7973 L554.3506,101.7973 Z M544.5606,114.8623 L542.5966,116.8273 L542.5966,127.2073 C542.5966,128.1653 543.3756,128.9453 544.3336,128.9453 L550.1686,128.9453 L550.1686,126.9823 L544.5606,126.9823 L544.5606,114.8623 Z M551.0166,128.9003 L557.6836,128.9003 L557.6836,118.9113 L551.0166,118.9113 L551.0166,128.9003 Z" id="Fill-377" fill="#FFFFFF"></path>
                <path d="M563.3936,97.7045 C557.6466,92.4155 548.7006,92.7025 542.9396,98.1875 C542.6866,98.4285 542.4366,98.6755 542.1986,98.9355 C541.8626,99.3005 541.5556,99.6795 541.2616,100.0655 L540.1086,98.9755 L537.4166,96.4315 L538.1236,99.7465 L538.5216,101.6075 L538.5436,101.7145 L540.5966,111.3295 L552.4266,110.6165 L548.2306,106.6495 C548.7576,105.7765 549.3816,104.9295 550.1166,104.1305 C552.3016,101.7555 554.9916,100.2485 557.6046,99.7095 C558.0356,99.6215 558.4626,99.5555 558.8856,99.5195 C559.0966,99.5025 559.3046,99.4935 559.5136,99.4885 C561.5986,99.4435 563.5396,100.0665 565.0106,101.4215 C565.5516,101.9195 565.9956,102.4915 566.3486,103.1175 C566.6806,103.3665 567.0046,103.6225 567.3236,103.8875 C566.5856,101.5835 565.2856,99.4435 563.3936,97.7045" id="Fill-378" fill="#FFFFFF"></path>
                <path d="M572.6758,136.6454 L571.8998,133.2804 L571.7238,132.5144 L569.7638,124.0144 L557.9468,124.9194 L562.2068,128.8164 C561.6948,129.6984 561.0848,130.5564 560.3628,131.3654 C558.3108,133.6694 555.7858,135.1874 553.2928,135.8244 C553.0368,135.8884 552.7818,135.9434 552.5278,135.9914 C551.7088,136.1414 550.9008,136.1984 550.1178,136.1504 C548.3858,136.0444 546.7848,135.4484 545.5148,134.3154 C544.8738,133.7454 544.3768,133.0664 543.9888,132.3204 C543.6868,132.1164 543.3898,131.9044 543.0968,131.6874 C543.8618,134.0544 545.2168,136.2474 547.1918,138.0054 C552.4998,142.7364 560.3868,142.8034 566.0368,138.5704 C566.8658,137.9494 567.6478,137.2374 568.3648,136.4314 C568.6948,136.0614 568.9948,135.6774 569.2808,135.2884 L571.3538,137.1824 L573.1858,138.8584 L572.6758,136.6454 Z" id="Fill-379" fill="#FFFFFF"></path>
                <path d="M554.1523,99.3636 C544.4963,99.3636 536.6693,107.1916 536.6693,116.8476 C536.6693,126.5036 544.4963,134.3306 554.1523,134.3306 C563.8073,134.3306 571.6353,126.5036 571.6353,116.8476 C571.6353,107.1916 563.8073,99.3636 554.1523,99.3636" id="Fill-380" fill="#D6D6D6"></path>
                <path d="M562.6592,125.6171 L557.8812,125.6171 L557.8812,127.2901 L562.8502,127.2901 C563.6672,127.2901 564.3322,126.6251 564.3322,125.8081 L564.3322,116.9711 L562.6592,115.2971 L562.6592,125.6171 Z M554.3202,104.1671 C553.9232,104.1671 553.5502,104.3221 553.2692,104.6021 L541.7392,116.1401 L542.9302,117.3301 L554.3202,105.9311 L565.7102,117.3301 L566.8922,116.1471 L566.8992,116.1401 L555.3722,104.6041 C555.0972,104.3261 554.7132,104.1671 554.3202,104.1671 L554.3202,104.1671 Z M545.9822,115.2941 L544.3102,116.9681 L544.3102,125.8081 C544.3102,126.6251 544.9732,127.2901 545.7892,127.2901 L550.7602,127.2901 L550.7602,125.6171 L545.9822,125.6171 L545.9822,115.2941 Z M551.4812,127.2511 L557.1602,127.2511 L557.1602,118.7431 L551.4812,118.7431 L551.4812,127.2511 Z" id="Fill-381" fill="#333333"></path>
                <path d="M562.0234,100.681 C557.1284,96.176 549.5084,96.421 544.6014,101.093 C544.3864,101.297 544.1734,101.508 543.9704,101.73 C543.6844,102.04 543.4224,102.363 543.1734,102.692 L542.1914,101.763 L539.8984,99.597 L540.5014,102.42 L540.8384,104.005 L540.8584,104.096 L542.6064,112.285 L552.6824,111.678 L549.1084,108.3 C549.5574,107.556 550.0884,106.834 550.7144,106.154 C552.5764,104.131 554.8664,102.848 557.0924,102.389 C557.4594,102.313 557.8234,102.258 558.1834,102.227 C558.3634,102.212 558.5414,102.204 558.7174,102.201 C560.4944,102.162 562.1464,102.693 563.4004,103.847 C563.8614,104.271 564.2384,104.758 564.5404,105.291 C564.8224,105.503 565.0984,105.722 565.3704,105.947 C564.7424,103.985 563.6334,102.162 562.0234,100.681" id="Fill-382" fill="#EC1A3D"></path>
                <path d="M569.9287,133.8475 L569.2677,130.9815 L569.1177,130.3295 L567.4497,123.0895 L557.3837,123.8605 L561.0127,127.1795 C560.5757,127.9305 560.0567,128.6615 559.4427,129.3505 C557.6947,131.3135 555.5437,132.6055 553.4197,133.1485 C553.2017,133.2025 552.9857,133.2495 552.7687,133.2895 C552.0717,133.4185 551.3827,133.4665 550.7167,133.4265 C549.2407,133.3365 547.8777,132.8275 546.7957,131.8635 C546.2487,131.3775 545.8257,130.7985 545.4957,130.1635 C545.2387,129.9895 544.9857,129.8095 544.7367,129.6245 C545.3867,131.6405 546.5417,133.5085 548.2237,135.0065 C552.7447,139.0345 559.4617,139.0925 564.2747,135.4875 C564.9807,134.9575 565.6467,134.3515 566.2577,133.6645 C566.5377,133.3505 566.7937,133.0235 567.0377,132.6915 L568.8027,134.3045 L570.3637,135.7325 L569.9287,133.8475 Z" id="Fill-383" fill="#EC1A3D"></path>
            </g>
        </g>
    </g>
</svg>