<?xml version="1.0" encoding="UTF-8"?>
<svg width="54px" height="61px" viewBox="0 0 54 61" version="1.1" xmlns="http://www.w3.org/2000/svg" xmlns:xlink="http://www.w3.org/1999/xlink">
    <!-- Generator: Sketch 46.1 (44463) - http://www.bohemiancoding.com/sketch -->
    <title>Group</title>
    <desc>Created with Sketch.</desc>
    <defs></defs>
    <g id="Telas" stroke="none" stroke-width="1" fill="none" fill-rule="evenodd">
        <g id="Artboard-4" transform="translate(-237.000000, -694.000000)">
            <g id="Group" transform="translate(238.000000, 694.000000)">
                <path d="M37.6311919,4.77843092 C30.4120699,-1.86574767 19.1729088,-1.50501979 11.9362906,5.38578044 C11.6187709,5.6876295 11.3055112,5.99799849 11.0053357,6.32540735 C10.5834469,6.78304948 10.1982242,7.25970931 9.82988925,7.74412837 L8.38073991,6.37424483 L5,3.17896561 L5.88789875,7.34369151 L6.38722769,9.68150031 L6.41552604,9.81553712 L8.99417509,21.8936074 L23.8543078,20.9976451 L18.5833599,16.0153099 C19.246089,14.9180642 20.0293142,13.8538333 20.9520534,12.8500026 C23.6976019,9.866961 27.0757554,7.97447084 30.3591246,7.29652759 C30.8990754,7.18607274 31.436744,7.10361196 31.968327,7.05903445 C32.2327492,7.03651749 32.4948893,7.02571543 32.7564208,7.01962976 C35.3758438,6.96272878 37.8130012,7.74564978 39.6619788,9.44765857 C40.342052,10.0737215 40.898282,10.7918302 41.3432963,11.5782504 C41.7594038,11.8904451 42.166687,12.2131376 42.5668196,12.5455671 C41.6405811,9.65183269 40.0067318,6.96348949 37.6311919,4.77843092" id="Fill-5" fill="#222220"></path>
                <path d="M0,28.7860341 C0,43.0274067 11.5446616,54.5722204 25.7857299,54.5722204 C40.0269503,54.5722204 51.5716119,43.0274067 51.5716119,28.7860341 C51.5716119,14.545118 40.0269503,3 25.7857299,3 C11.5446616,3 0,14.545118 0,28.7860341 Z" id="Fill-1" stroke="#222220"></path>
                <path d="M37.8543294,41.6360332 L30.8060625,41.6360332 L30.8060625,44.102706 L38.1362479,44.102706 C39.3407534,44.102706 40.3213065,43.1226094 40.3213065,41.9181039 L40.3213065,28.8836711 L37.8543294,26.4145641 L37.8543294,41.6360332 Z M25.5556537,10 C24.9688433,10 24.4191555,10.2274518 24.0047216,10.6417335 L7,27.6580179 L8.7557148,29.4131241 L25.5544366,12.6016224 L42.3528541,29.4131241 L44.0976147,27.6689721 L44.1082646,27.6580179 L27.1068901,10.6446242 C26.6994547,10.2350589 26.133792,10 25.5556537,10 L25.5556537,10 Z M13.2581952,26.4110648 L10.7918267,28.8798676 L10.7918267,41.9181039 C10.7918267,43.1226094 11.7697933,44.102706 12.9732339,44.102706 L20.3038756,44.102706 L20.3038756,41.6360332 L13.2581952,41.6360332 L13.2581952,26.4110648 Z M21.3681066,44.0455008 L29.7432009,44.0455008 L29.7432009,31.4974649 L21.3681066,31.4974649 L21.3681066,44.0455008 Z" id="Fill-3" fill="#222220"></path>
                <path d="M49.1554285,53.8668541 L48.1809612,49.6391415 L47.9600515,48.6780627 L45.4983994,38 L30.6537851,39.1369547 L36.0058245,44.0321127 C35.3613524,45.1401604 34.5957756,46.2177798 33.6890113,47.233934 C31.1106665,50.1284291 27.9392735,52.034612 24.8077417,52.8351815 C24.4858099,52.916273 24.1657038,52.985041 23.8459021,53.044072 C22.8181851,53.2339448 21.8024874,53.3045385 20.8201087,53.2450511 C18.6429615,53.1125357 16.6331701,52.3629338 15.0370519,50.9398006 C14.2316139,50.2235177 13.6073767,49.3701551 13.1203712,48.433571 C12.7407778,48.176908 12.3678785,47.9106601 12,47.6380222 C12.9598618,50.6120875 14.6629355,53.3664602 17.1426925,55.5757093 C23.8118223,61.5177541 33.7186789,61.6028013 40.8165439,56.2843851 C41.8581058,55.5046591 42.8397238,54.6102183 43.7407067,53.5978676 C44.154532,53.1327706 44.5319955,52.6504815 44.8915063,52.161346 L47.494498,54.541146 L49.7960971,56.6464823 L49.1554285,53.8668541 Z" id="Fill-7" fill="#222220"></path>
            </g>
        </g>
    </g>
</svg>