<?xml version="1.0" standalone="no"?>
<!DOCTYPE svg PUBLIC "-//W3C//DTD SVG 20010904//EN"
 "http://www.w3.org/TR/2001/REC-SVG-20010904/DTD/svg10.dtd">
<svg version="1.0" xmlns="http://www.w3.org/2000/svg"
 width="980.000000pt" height="301.000000pt" viewBox="0 0 980.000000 301.000000"
 preserveAspectRatio="xMidYMid meet">

<g transform="translate(0.000000,301.000000) scale(0.100000,-0.100000)"
fill="#000000" stroke="none">
<path d="M1900 3003 c-94 -38 -137 -160 -90 -253 30 -59 87 -93 158 -94 35 0
69 6 89 17 113 60 125 234 21 308 -25 18 -48 24 -98 26 -36 1 -72 0 -80 -4z"/>
<path d="M2425 2906 c-38 -17 -71 -48 -91 -88 -23 -45 -16 -144 15 -186 64
-90 213 -97 283 -14 78 93 53 227 -52 280 -50 25 -110 28 -155 8z"/>
<path d="M1382 2813 c-97 -48 -124 -195 -51 -278 102 -116 290 -62 315 92 11
71 -31 155 -97 188 -37 20 -126 19 -167 -2z"/>
<path d="M2825 2555 c-69 -37 -98 -85 -98 -161 0 -139 135 -223 261 -163 63
31 95 84 95 157 0 108 -61 174 -167 180 -43 2 -70 -2 -91 -13z"/>
<path d="M1045 2406 c-65 -28 -112 -115 -102 -188 20 -151 209 -211 311 -98
42 47 50 73 44 144 -5 64 -34 109 -88 136 -45 23 -120 26 -165 6z"/>
<path d="M1587 2316 c-48 -18 -74 -41 -98 -88 -39 -76 -14 -181 53 -229 44
-32 140 -38 193 -14 139 66 117 293 -33 335 -48 13 -68 12 -115 -4z"/>
<path d="M545 2226 c-16 -8 -42 -26 -57 -42 -108 -116 -26 -304 131 -304 159
0 241 188 133 304 -51 54 -140 72 -207 42z"/>
<path d="M4124 2152 c-39 -25 -59 -73 -58 -142 1 -108 46 -154 151 -154 125
-1 168 47 161 176 -3 61 -7 72 -36 101 -30 30 -38 32 -110 35 -62 2 -83 -1
-108 -16z"/>
<path d="M8435 2160 c-47 -19 -69 -58 -73 -128 -7 -129 36 -177 161 -176 107
0 151 47 151 159 0 71 -21 118 -64 140 -31 16 -141 20 -175 5z"/>
<path d="M6355 2116 c-285 -56 -510 -243 -604 -502 -42 -114 -55 -212 -48
-361 6 -150 22 -215 82 -339 102 -212 314 -367 574 -419 129 -26 421 -17 552
18 53 14 111 32 128 41 l31 17 0 414 c0 399 -1 415 -19 425 -27 14 -625 14
-652 0 -17 -10 -19 -22 -19 -115 0 -93 2 -105 19 -115 12 -6 98 -10 210 -10
l191 0 0 -210 0 -209 -42 -13 c-58 -16 -279 -16 -348 1 -220 54 -370 207 -414
423 -68 332 98 624 399 703 133 35 361 13 515 -49 80 -33 108 -33 115 -3 3 12
6 69 8 126 l2 105 -50 19 c-27 10 -88 28 -135 38 -112 27 -393 35 -495 15z"/>
<path d="M3002 2049 c-100 -51 -129 -181 -59 -273 76 -99 246 -84 303 27 23
43 22 123 -1 170 -40 84 -156 120 -243 76z"/>
<path d="M1972 1959 c-125 -62 -123 -258 3 -319 111 -54 239 9 261 126 28 148
-127 261 -264 193z"/>
<path d="M204 1830 c-126 -64 -134 -236 -14 -317 25 -18 47 -23 95 -23 71 0
114 22 152 79 31 46 32 137 2 190 -45 81 -152 113 -235 71z"/>
<path d="M4982 1705 c-35 -8 -88 -28 -118 -45 -48 -27 -54 -28 -54 -12 0 36
-20 42 -137 42 -101 0 -113 -2 -123 -19 -6 -13 -10 -213 -10 -580 0 -495 2
-561 16 -575 12 -12 38 -16 115 -16 55 0 109 5 120 10 18 10 19 26 19 444 l0
434 33 28 c54 46 115 67 205 72 101 6 155 -12 206 -68 62 -69 66 -99 66 -510
0 -315 2 -369 16 -388 14 -20 23 -22 123 -22 70 0 111 4 119 12 9 9 12 111 12
398 0 431 -4 462 -67 582 -93 178 -310 263 -541 213z"/>
<path d="M7566 1709 c-92 -12 -176 -35 -242 -64 l-54 -24 1 -48 c1 -71 14
-152 26 -164 8 -8 31 -3 85 19 114 47 210 64 335 60 133 -4 176 -21 204 -82
10 -23 19 -62 19 -87 l0 -46 -192 -6 c-203 -5 -264 -16 -365 -62 -71 -32 -147
-106 -180 -174 -26 -51 -28 -66 -28 -171 0 -112 1 -117 34 -178 75 -138 213
-206 420 -204 115 1 176 13 254 52 52 26 57 27 57 10 0 -31 32 -40 139 -40 77
0 103 4 115 16 14 13 16 66 16 427 0 437 -6 500 -49 585 -25 49 -83 107 -132
132 -91 47 -311 70 -463 49z m374 -782 c0 -143 -1 -145 -105 -194 -54 -25 -71
-28 -165 -28 -118 0 -170 18 -206 72 -27 41 -26 142 2 179 54 73 122 92 332
93 l142 1 0 -123z"/>
<path d="M9135 1706 c-102 -17 -154 -32 -221 -61 l-54 -24 1 -53 c0 -70 13
-146 27 -160 7 -7 31 -2 84 20 40 16 105 37 145 46 83 19 255 21 304 5 70 -24
109 -82 109 -162 l0 -44 -192 -6 c-210 -5 -269 -16 -374 -67 -81 -39 -154
-117 -183 -195 -20 -51 -22 -75 -19 -160 4 -119 26 -174 98 -246 82 -82 199
-122 356 -121 112 0 178 14 257 53 53 27 57 27 57 9 0 -31 32 -40 139 -40 79
0 103 3 116 16 15 15 16 59 13 453 -4 418 -5 439 -26 502 -39 116 -125 193
-252 224 -91 22 -287 27 -385 11z m395 -780 l0 -125 -33 -25 c-72 -55 -124
-71 -237 -71 -94 0 -110 3 -150 25 -59 33 -82 78 -77 148 6 85 57 137 154 158
32 7 122 13 201 13 l142 1 0 -124z"/>
<path d="M4102 1678 c-9 -9 -12 -153 -12 -585 0 -556 1 -573 19 -583 11 -5 65
-10 120 -10 77 0 103 4 115 16 14 14 16 80 16 575 0 367 -4 567 -10 580 -10
17 -22 19 -123 19 -75 0 -117 -4 -125 -12z"/>
<path d="M8390 1671 c-6 -13 -10 -213 -10 -580 0 -495 2 -561 16 -575 12 -12
38 -16 115 -16 55 0 109 5 120 10 18 10 19 27 19 583 0 432 -3 576 -12 585 -8
8 -50 12 -125 12 -101 0 -113 -2 -123 -19z"/>
<path d="M2900 1519 c-54 -31 -83 -81 -87 -147 -7 -100 57 -177 154 -188 163
-20 267 171 160 293 -17 20 -46 42 -64 49 -48 20 -122 17 -163 -7z"/>
<path d="M2176 1466 c-82 -31 -122 -97 -114 -191 8 -97 73 -155 173 -155 72 0
120 22 152 72 97 146 -47 334 -211 274z"/>
<path d="M105 1304 c-50 -26 -74 -55 -92 -110 -14 -45 -15 -60 -4 -96 28 -94
103 -146 196 -136 95 11 159 85 159 185 0 97 -78 173 -179 173 -27 0 -63 -7
-80 -16z"/>
<path d="M2587 1126 c-68 -25 -101 -61 -118 -129 -28 -117 54 -220 176 -220
107 0 175 69 175 178 0 59 -9 85 -44 123 -45 50 -126 71 -189 48z"/>
<path d="M2055 927 c-119 -67 -125 -227 -12 -311 43 -31 159 -30 205 2 73 52
95 167 47 248 -46 79 -158 107 -240 61z"/>
<path d="M285 801 c-48 -22 -69 -44 -90 -94 -51 -122 36 -250 169 -250 121 0
196 99 172 227 -13 70 -98 136 -176 136 -19 0 -53 -9 -75 -19z"/>
<path d="M1700 518 c-54 -37 -73 -71 -78 -138 -5 -73 8 -109 58 -154 69 -62
178 -58 245 9 81 82 65 215 -34 282 -48 32 -144 32 -191 1z"/>
<path d="M707 456 c-79 -29 -117 -85 -117 -174 0 -68 23 -112 79 -149 45 -30
135 -32 190 -3 114 57 117 241 7 310 -44 27 -111 34 -159 16z"/>
<path d="M1238 361 c-82 -27 -135 -108 -125 -193 12 -100 81 -161 182 -161 62
0 105 21 142 70 25 32 28 45 28 108 0 63 -3 76 -28 108 -15 20 -41 44 -57 52
-37 19 -107 27 -142 16z"/>
</g>
</svg>
