<?xml version="1.0" encoding="UTF-8" standalone="no"?>
<svg width="177px" height="134px" viewBox="0 0 177 134" version="1.1" xmlns="http://www.w3.org/2000/svg" xmlns:xlink="http://www.w3.org/1999/xlink">
    <!-- Generator: Sketch 41.2 (35397) - http://www.bohemiancoding.com/sketch -->
    <title>Page 1</title>
    <desc>Created with Sketch.</desc>
    <defs></defs>
    <g id="Telas" stroke="none" stroke-width="1" fill="none" fill-rule="evenodd">
        <g id="Home" transform="translate(-424.000000, -618.000000)">
            <g id="Page-1" transform="translate(424.000000, 618.000000)">
                <path d="M118.981986,124.239097 L154.010831,124.239097 L154.010831,103.680386 L118.981986,103.680386 L118.981986,124.239097 Z M154.249362,124.716966 L118.743241,124.716966 C118.611669,124.716966 118.504725,124.610218 118.504725,124.478146 L118.504725,103.441352 C118.504725,103.308822 118.611669,103.202273 118.743241,103.202273 L154.249362,103.202273 C154.381148,103.202273 154.487878,103.308822 154.487878,103.441352 L154.487878,124.478146 C154.487878,124.610218 154.381148,124.716966 154.249362,124.716966 L154.249362,124.716966 Z" id="Fill-1" fill="#000000"></path>
                <polygon id="Fill-3" fill="#FFFFFF" points="127.911924 121.34887 154.249347 121.34887 154.249347 117.485805 127.911924 117.485805"></polygon>
                <path d="M128.150897,121.109821 L154.010831,121.109821 L154.010831,117.724609 L128.150897,117.724609 L128.150897,121.109821 Z M154.249362,121.587919 L127.911924,121.587919 C127.780352,121.587919 127.673408,121.481171 127.673408,121.34887 L127.673408,117.485805 C127.673408,117.353718 127.780352,117.246741 127.911924,117.246741 L154.249362,117.246741 C154.381148,117.246741 154.487878,117.353718 154.487878,117.485805 L154.487878,121.34887 C154.487878,121.481171 154.381148,121.587919 154.249362,121.587919 L154.249362,121.587919 Z" id="Fill-4" fill="#000000"></path>
                <polygon id="Fill-5" fill="#FFFFFF" points="127.911924 115.891274 154.249347 115.891274 154.249347 112.027552 127.911924 112.027552"></polygon>
                <path d="M128.150897,115.652027 L154.010831,115.652027 L154.010831,112.266815 L128.150897,112.266815 L128.150897,115.652027 Z M154.249362,116.130323 L127.911924,116.130323 C127.780352,116.130323 127.673408,116.023162 127.673408,115.891289 L127.673408,112.027552 C127.673408,111.89548 127.780352,111.788518 127.911924,111.788518 L154.249362,111.788518 C154.381148,111.788518 154.487878,111.89548 154.487878,112.027552 L154.487878,115.891289 C154.487878,116.023162 154.381148,116.130323 154.249362,116.130323 L154.249362,116.130323 Z" id="Fill-6" fill="#000000"></path>
                <polygon id="Fill-7" fill="#FFFFFF" points="127.911924 110.433678 154.249347 110.433678 154.249347 106.56994 127.911924 106.56994"></polygon>
                <path d="M128.150897,110.194645 L154.010831,110.194645 L154.010831,106.809005 L128.150897,106.809005 L128.150897,110.194645 Z M154.249362,110.672498 L127.911924,110.672498 C127.780352,110.672498 127.673408,110.565765 127.673408,110.433678 L127.673408,106.56994 C127.673408,106.437655 127.780352,106.330907 127.911924,106.330907 L154.249362,106.330907 C154.381148,106.330907 154.487878,106.437655 154.487878,106.56994 L154.487878,110.433678 C154.487878,110.565765 154.381148,110.672498 154.249362,110.672498 L154.249362,110.672498 Z" id="Fill-8" fill="#000000"></path>
                <path d="M61.5202348,101.349026 L97.4095276,101.349026 L97.4095276,38.1679319 C97.4095276,36.4207749 95.9913012,34.9992576 94.2479419,34.9992576 L64.6822627,34.9992576 C62.9386594,34.9992576 61.5202348,36.4207749 61.5202348,38.1679319 L61.5202348,101.349026 Z M97.648059,101.827353 L61.2815966,101.827353 C61.1497807,101.827353 61.0431567,101.720574 61.0431567,101.588258 L61.0431567,38.1679319 C61.0431567,36.1571517 62.6755917,34.521175 64.6822627,34.521175 L94.2479419,34.521175 C96.2544757,34.521175 97.8865752,36.1571517 97.8865752,38.1679319 L97.8865752,101.588258 C97.8865752,101.720574 97.7800732,101.827353 97.648059,101.827353 L97.648059,101.827353 Z" id="Fill-10" fill="#000000"></path>
                <polygon id="Fill-15" fill="#FFFFFF" transform="translate(97.492408, 52.853904) scale(-1, 1) translate(-97.492408, -52.853904) " points="96.9924079 54.4996847 97.3367658 54.4996847 97.3367658 51.2081238 96.9924079 51.2081238"></polygon>
                <path d="M97.8812326,54.7388253 L97.4148824,54.7388253 C97.411922,54.7388253 97.4095337,54.6320006 97.4095337,54.4996694 L97.4095337,51.2081238 C97.4095337,51.0760371 97.411922,50.9689679 97.4148824,50.9689679 L97.8812326,50.9689679 C97.8841927,50.9689679 97.8865813,51.0760371 97.8865813,51.2081238 L97.8865813,54.4996694 C97.8865813,54.6320006 97.8841927,54.7388253 97.8812326,54.7388253 L97.8812326,54.7388253 Z" id="Fill-16" fill="#000000"></path>
                <polygon id="Fill-17" fill="#FFFFFF" points="75.9416726 59.2127477 83.1219965 59.2127477 83.1219965 55.9210951 75.9416726 55.9210951"></polygon>
                <path d="M40.3247982,45.9041629 L38.7495027,45.9041629 C38.7495027,44.249893 37.4109088,42.9089144 35.7599,42.9089144 L21.1837586,42.9089144 C19.5326431,42.9089144 18.1941559,44.249893 18.1941559,45.9041629 L16.6194094,45.9041629 C14.9678364,45.9041629 13.6297914,47.2462112 13.6297914,48.9004811 C13.6297914,50.554644 14.9678364,51.8956225 16.6194094,51.8956225 L28.1312564,51.8956225 C28.1322324,53.550305 29.4702774,54.891253 31.1213166,54.891253 L36.5044224,54.891253 C38.1554464,54.891253 39.4939336,53.550305 39.4939336,51.8956225 L40.3247982,51.8956225 C41.9758222,51.8956225 43.3147211,50.554644 43.3147211,48.9004811 C43.3147211,47.2462112 41.9758222,45.9041629 40.3247982,45.9041629" id="Fill-29" fill="#DAECF9"></path>
                <path d="M16.6194033,46.1433111 C15.1024369,46.1433111 13.8683167,47.3801547 13.8683167,48.9004887 C13.8683167,50.4201961 15.1024369,51.6564743 16.6194033,51.6564743 L28.1312656,51.6564743 C28.2629443,51.6564743 28.3698885,51.7635435 28.3698885,51.8956149 C28.3706509,53.4154293 29.6051066,54.652227 31.1213105,54.652227 L36.5044315,54.652227 C38.0213979,54.652227 39.2555181,53.4154293 39.2555181,51.8956149 C39.2555181,51.7635435 39.3622488,51.6564743 39.4939275,51.6564743 L40.3247921,51.6564743 C41.84185,51.6564743 43.0763056,50.4201961 43.0763056,48.9004887 C43.0763056,47.3801547 41.84185,46.1433111 40.3247921,46.1433111 L38.7495119,46.1433111 C38.6177112,46.1433111 38.5109652,46.0364558 38.5109652,45.9041705 C38.5109652,44.3843561 37.2768451,43.1481849 35.7598939,43.1481849 L21.1837525,43.1481849 C19.6668014,43.1481849 18.4326812,44.3843561 18.4326812,45.9041705 C18.4326812,46.0364558 18.3259505,46.1433111 18.194165,46.1433111 L16.6194033,46.1433111 Z M36.5044315,55.1302332 L31.1213105,55.1302332 C29.4222203,55.1302332 28.0247484,53.8071351 27.9017008,52.1346485 L16.6194033,52.1346485 C14.8395065,52.1346485 13.3913607,50.6840027 13.3913607,48.9004887 C13.3913607,47.116287 14.8395065,45.6652285 16.6194033,45.6652285 L17.9642648,45.6652285 C18.0870989,43.9932004 19.4840218,42.6700107 21.1837525,42.6700107 L35.7598939,42.6700107 C37.4597466,42.6700107 38.8565781,43.9932004 38.9793816,45.6652285 L40.3247921,45.6652285 C42.1047957,45.6652285 43.5533837,47.116287 43.5533837,48.9004887 C43.5533837,50.6840027 42.1047957,52.1346485 40.3247921,52.1346485 L39.7238277,52.1346485 C39.6013292,53.8071351 38.2042689,55.1302332 36.5044315,55.1302332 L36.5044315,55.1302332 Z" id="Fill-30" fill="#000000"></path>
                <path d="M83.4751077,124.239097 L118.50473,124.239097 L118.50473,54.6736607 C118.50473,52.9601711 117.113708,51.5660553 115.403822,51.5660553 L86.5761074,51.5660553 C84.8662054,51.5660553 83.4751077,52.9601711 83.4751077,54.6736607 L83.4751077,124.239097 Z M118.743231,124.716966 L83.236561,124.716966 C83.1046688,124.716966 82.9979229,124.610218 82.9979229,124.478146 L82.9979229,54.6736607 C82.9979229,52.696334 84.6029242,51.0878505 86.5761074,51.0878505 L115.403822,51.0878505 C117.376654,51.0878505 118.981991,52.696334 118.981991,54.6736607 L118.981991,124.478146 C118.981991,124.610218 118.87526,124.716966 118.743231,124.716966 L118.743231,124.716966 Z" id="Fill-42" fill="#000000"></path>
                <path d="M35.5575448,87.6633654 L70.7965262,87.6633654 L70.7965262,25.6166761 C70.7965262,23.9030642 69.4055352,22.5090707 67.6956332,22.5090707 L38.6586513,22.5090707 C36.9487492,22.5090707 35.5575448,23.9030642 35.5575448,25.6166761 L35.5575448,87.6633654 Z M71.0351491,88.1416619 L35.3191354,88.1416619 C35.1872279,88.1416619 35.0804972,88.0344704 35.0804972,87.902399 L35.0804972,25.6166761 C35.0804972,23.6394411 36.6854985,22.0308353 38.6586513,22.0308353 L67.6956332,22.0308353 C69.6685877,22.0308353 71.2736805,23.6394411 71.2736805,25.6166761 L71.2736805,87.902399 C71.2736805,88.0344704 71.1670566,88.1416619 71.0351491,88.1416619 L71.0351491,88.1416619 Z" id="Fill-44" fill="#000000"></path>
                <polygon id="Fill-45" fill="#FFFFFF" points="40.7727971 32.4414998 65.5809628 32.4414998 65.5809628 28.3776071 40.7727971 28.3776071"></polygon>
                <path d="M41.0113133,32.2023592 L65.3424009,32.2023592 L65.3424009,28.6165796 L41.0113133,28.6165796 L41.0113133,32.2023592 Z M65.5809628,32.6804723 L40.7727971,32.6804723 C40.6411184,32.6804723 40.5343572,32.5736171 40.5343572,32.4414998 L40.5343572,28.3776071 C40.5343572,28.2453217 40.6411184,28.1384664 40.7727971,28.1384664 L65.5809628,28.1384664 C65.7126415,28.1384664 65.8194789,28.2453217 65.8194789,28.3776071 L65.8194789,32.4414998 C65.8194789,32.5736171 65.7126415,32.6804723 65.5809628,32.6804723 L65.5809628,32.6804723 Z" id="Fill-46" fill="#000000"></path>
                <polygon id="Fill-47" fill="#FFFFFF" points="40.7727971 40.5694688 65.5809628 40.5694688 65.5809628 36.5054537 40.7727971 36.5054537"></polygon>
                <path d="M41.0113133,40.3302823 L65.3424009,40.3302823 L65.3424009,36.7443498 L41.0113133,36.7443498 L41.0113133,40.3302823 Z M65.5809628,40.8084107 L40.7727971,40.8084107 C40.6411184,40.8084107 40.5343572,40.7015402 40.5343572,40.5694688 L40.5343572,36.5054537 C40.5343572,36.3732601 40.6411184,36.2662826 40.7727971,36.2662826 L65.5809628,36.2662826 C65.7126415,36.2662826 65.8194789,36.3732601 65.8194789,36.5054537 L65.8194789,40.5694688 C65.8194789,40.7015402 65.7126415,40.8084107 65.5809628,40.8084107 L65.5809628,40.8084107 Z" id="Fill-48" fill="#000000"></path>
                <polygon id="Fill-49" fill="#FFFFFF" points="40.7727971 48.6972849 65.5809628 48.6972849 65.5809628 44.6333616 40.7727971 44.6333616"></polygon>
                <path d="M41.0113133,48.458129 L65.3424009,48.458129 L65.3424009,44.8722882 L41.0113133,44.8722882 L41.0113133,48.458129 Z M65.5809628,48.9363032 L40.7727971,48.9363032 C40.6411184,48.9363032 40.5343572,48.8294785 40.5343572,48.6972849 L40.5343572,44.6333616 C40.5343572,44.5012749 40.6411184,44.3942057 40.7727971,44.3942057 L65.5809628,44.3942057 C65.7126415,44.3942057 65.8194789,44.5012749 65.8194789,44.6333616 L65.8194789,48.6972849 C65.8194789,48.8294785 65.7126415,48.9363032 65.5809628,48.9363032 L65.5809628,48.9363032 Z" id="Fill-50" fill="#000000"></path>
                <polygon id="Fill-51" fill="#FFFFFF" points="40.7727971 56.825208 65.5809628 56.825208 65.5809628 52.7612846 40.7727971 52.7612846"></polygon>
                <path d="M41.0113133,56.5861591 L65.3424009,56.5861591 L65.3424009,53.0002266 L41.0113133,53.0002266 L41.0113133,56.5861591 Z M65.5809628,57.0641194 L40.7727971,57.0641194 C40.6411184,57.0641194 40.5343572,56.9572947 40.5343572,56.825208 L40.5343572,52.7612846 C40.5343572,52.629091 40.6411184,52.5222663 40.7727971,52.5222663 L65.5809628,52.5222663 C65.7126415,52.5222663 65.8194789,52.629091 65.8194789,52.7612846 L65.8194789,56.825208 C65.8194789,56.9572947 65.7126415,57.0641194 65.5809628,57.0641194 L65.5809628,57.0641194 Z" id="Fill-52" fill="#000000"></path>
                <polygon id="Fill-53" fill="#FFFFFF" points="40.7727971 64.9531158 65.5809628 64.9531158 65.5809628 60.889223 40.7727971 60.889223"></polygon>
                <path d="M41.0113133,64.7140822 L65.3424009,64.7140822 L65.3424009,61.1282414 L41.0113133,61.1282414 L41.0113133,64.7140822 Z M65.5809628,65.19218 L40.7727971,65.19218 C40.6411184,65.19218 40.5343572,65.0852025 40.5343572,64.9531158 L40.5343572,60.889223 C40.5343572,60.7570294 40.6411184,60.6501741 40.7727971,60.6501741 L65.5809628,60.6501741 C65.7126415,60.6501741 65.8194789,60.7570294 65.8194789,60.889223 L65.8194789,64.9531158 C65.8194789,65.0852025 65.7126415,65.19218 65.5809628,65.19218 L65.5809628,65.19218 Z" id="Fill-54" fill="#000000"></path>
                <polygon id="Fill-55" fill="#FFFFFF" points="40.7727971 73.0810542 65.5809628 73.0810542 65.5809628 69.0171308 40.7727971 69.0171308"></polygon>
                <path d="M41.0113133,72.8417913 L65.3424009,72.8417913 L65.3424009,69.256195 L41.0113133,69.256195 L41.0113133,72.8417913 Z M65.5809628,73.3198739 L40.7727971,73.3198739 C40.6411184,73.3198739 40.5343572,73.2131256 40.5343572,73.0810542 L40.5343572,69.0171308 C40.5343572,68.8849525 40.6411184,68.7779749 40.7727971,68.7779749 L65.5809628,68.7779749 C65.7126415,68.7779749 65.8194789,68.8849525 65.8194789,69.0171308 L65.8194789,73.0810542 C65.8194789,73.2131256 65.7126415,73.3198739 65.5809628,73.3198739 L65.5809628,73.3198739 Z" id="Fill-56" fill="#000000"></path>
                <polygon id="Fill-57" fill="#FFFFFF" points="40.7727971 81.209069 65.5809628 81.209069 65.5809628 77.1448553 40.7727971 77.1448553"></polygon>
                <path d="M41.0113133,80.9700506 L65.3424009,80.9700506 L65.3424009,77.3839195 L41.0113133,77.3839195 L41.0113133,80.9700506 Z M65.5809628,81.4481332 L40.7727971,81.4481332 C40.6411184,81.4481332 40.5343572,81.3409417 40.5343572,81.209069 L40.5343572,77.1448553 C40.5343572,77.0129825 40.6411184,76.906005 40.7727971,76.906005 L65.5809628,76.906005 C65.7126415,76.906005 65.8194789,77.0129825 65.8194789,77.1448553 L65.8194789,81.209069 C65.8194789,81.3409417 65.7126415,81.4481332 65.5809628,81.4481332 L65.5809628,81.4481332 Z" id="Fill-58" fill="#000000"></path>
                <path d="M22.9845091,124.239097 L82.9979397,124.239097 L82.9979397,88.1416558 L22.9845091,88.1416558 L22.9845091,93.958467 L76.557424,93.958467 C76.6893315,93.958467 76.7959402,94.0650013 76.7959402,94.1975312 L76.7959402,99.6163707 C76.7959402,99.7482129 76.6893315,99.8554044 76.557424,99.8554044 L22.9845091,99.8554044 L22.9845091,103.242359 L76.557424,103.242359 C76.6893315,103.242359 76.7959402,103.349092 76.7959402,103.481377 L76.7959402,108.899376 C76.7959402,109.031233 76.6893315,109.13841 76.557424,109.13841 L22.9845091,109.13841 L22.9845091,112.525364 L76.557424,112.525364 C76.6893315,112.525364 76.7959402,112.632097 76.7959402,112.764382 L76.7959402,118.182794 C76.7959402,118.314881 76.6893315,118.421843 76.557424,118.421843 L22.9845091,118.421843 L22.9845091,124.239097 Z M83.2365626,124.716966 L22.7460997,124.716966 C22.6140702,124.716966 22.5074615,124.610218 22.5074615,124.478146 L22.5074615,118.182794 C22.5074615,118.050707 22.6140702,117.943531 22.7460997,117.943531 L76.3187859,117.943531 L76.3187859,113.003233 L22.7460997,113.003233 C22.6140702,113.003233 22.5074615,112.896484 22.5074615,112.764382 L22.5074615,108.899376 C22.5074615,108.767274 22.6140702,108.660098 22.7460997,108.660098 L76.3187859,108.660098 L76.3187859,103.720227 L22.7460997,103.720227 C22.6140702,103.720227 22.5074615,103.613464 22.5074615,103.481377 L22.5074615,99.6163707 C22.5074615,99.4842993 22.6140702,99.3771078 22.7460997,99.3771078 L76.3187859,99.3771078 L76.3187859,94.4363509 L22.7460997,94.4363509 C22.6140702,94.4363509 22.5074615,94.3296179 22.5074615,94.1975312 L22.5074615,87.9023929 C22.5074615,87.7705507 22.6140702,87.6633592 22.7460997,87.6633592 L83.2365626,87.6633592 C83.3683633,87.6633592 83.4751092,87.7705507 83.4751092,87.9023929 L83.4751092,124.478146 C83.4751092,124.610218 83.3683633,124.716966 83.2365626,124.716966 L83.2365626,124.716966 Z" id="Fill-60" fill="#000000"></path>
                <polygon id="Fill-61" fill="#FFFFFF" points="22.7460936 99.6163707 76.5574332 99.6163707 76.5574332 94.1975312 22.7460936 94.1975312"></polygon>
                <path d="M22.984503,99.3771078 L76.3187798,99.3771078 L76.3187798,94.4363509 L22.984503,94.4363509 L22.984503,99.3771078 Z M76.5574332,99.8554044 L22.7460936,99.8554044 C22.6140793,99.8554044 22.5074554,99.7482129 22.5074554,99.6163707 L22.5074554,94.1975312 C22.5074554,94.0650013 22.6140793,93.958467 22.7460936,93.958467 L76.5574332,93.958467 C76.6893254,93.958467 76.7959493,94.0650013 76.7959493,94.1975312 L76.7959493,99.6163707 C76.7959493,99.7482129 76.6893254,99.8554044 76.5574332,99.8554044 L76.5574332,99.8554044 Z" id="Fill-62" fill="#000000"></path>
                <polygon id="Fill-63" fill="#FFFFFF" points="22.7460936 108.899361 76.5574332 108.899361 76.5574332 103.481377 22.7460936 103.481377"></polygon>
                <path d="M22.984503,108.660098 L76.3187798,108.660098 L76.3187798,103.720243 L22.984503,103.720243 L22.984503,108.660098 Z M76.5574332,109.13841 L22.7460936,109.13841 C22.6140793,109.13841 22.5074554,109.031233 22.5074554,108.899376 L22.5074554,103.481377 C22.5074554,103.349092 22.6140793,103.242359 22.7460936,103.242359 L76.5574332,103.242359 C76.6893254,103.242359 76.7959493,103.349092 76.7959493,103.481377 L76.7959493,108.899376 C76.7959493,109.031233 76.6893254,109.13841 76.5574332,109.13841 L76.5574332,109.13841 Z" id="Fill-64" fill="#000000"></path>
                <polygon id="Fill-65" fill="#FFFFFF" points="22.7460936 118.182794 76.5574332 118.182794 76.5574332 112.764382 22.7460936 112.764382"></polygon>
                <path d="M22.984503,117.943531 L76.3187798,117.943531 L76.3187798,113.003233 L22.984503,113.003233 L22.984503,117.943531 Z M76.5574332,118.421843 L22.7460936,118.421843 C22.6140793,118.421843 22.5074554,118.314881 22.5074554,118.182794 L22.5074554,112.764382 C22.5074554,112.632097 22.6140793,112.525364 22.7460936,112.525364 L76.5574332,112.525364 C76.6893254,112.525364 76.7959493,112.632097 76.7959493,112.764382 L76.7959493,118.182794 C76.7959493,118.314881 76.6893254,118.421843 76.5574332,118.421843 L76.5574332,118.421843 Z" id="Fill-66" fill="#000000"></path>
                <polygon id="Fill-67" fill="#FFFFFF" points="86.4991696 61.5558917 91.5266741 61.5558917 91.5266741 56.5170821 86.4991696 56.5170821"></polygon>
                <path d="M86.737701,61.3168733 L91.2879292,61.3168733 L91.2879292,56.7561464 L86.737701,56.7561464 L86.737701,61.3168733 Z M91.5266741,61.7948642 L86.4991696,61.7948642 C86.3673688,61.7948642 86.2606534,61.6881006 86.2606534,61.5558917 L86.2606534,56.5170821 C86.2606534,56.3847968 86.3673688,56.2780332 86.4991696,56.2780332 L91.5266741,56.2780332 C91.658673,56.2780332 91.7652055,56.3847968 91.7652055,56.5170821 L91.7652055,61.5558917 C91.7652055,61.6881006 91.658673,61.7948642 91.5266741,61.7948642 L91.5266741,61.7948642 Z" id="Fill-68" fill="#000000"></path>
                <polygon id="Fill-69" fill="#FFFFFF" points="94.4842988 61.5558917 99.5118033 61.5558917 99.5118033 56.5170821 94.4842988 56.5170821"></polygon>
                <path d="M94.7228149,61.3168733 L99.2732414,61.3168733 L99.2732414,56.7561464 L94.7228149,56.7561464 L94.7228149,61.3168733 Z M99.5118033,61.7948642 L94.4842988,61.7948642 C94.3522846,61.7948642 94.2457674,61.6881006 94.2457674,61.5558917 L94.2457674,56.5170821 C94.2457674,56.3847968 94.3522846,56.2780332 94.4842988,56.2780332 L99.5118033,56.2780332 C99.6433753,56.2780332 99.7503195,56.3847968 99.7503195,56.5170821 L99.7503195,61.5558917 C99.7503195,61.6881006 99.6433753,61.7948642 99.5118033,61.7948642 L99.5118033,61.7948642 Z" id="Fill-70" fill="#000000"></path>
                <polygon id="Fill-71" fill="#FFFFFF" points="102.469199 61.5558917 107.496704 61.5558917 107.496704 56.5170821 102.469199 56.5170821"></polygon>
                <path d="M102.707746,61.3168733 L107.257959,61.3168733 L107.257959,56.7561464 L102.707746,56.7561464 L102.707746,61.3168733 Z M107.496704,61.7948642 L102.469199,61.7948642 C102.337399,61.7948642 102.230454,61.6881006 102.230454,61.5558917 L102.230454,56.5170821 C102.230454,56.3847968 102.337399,56.2780332 102.469199,56.2780332 L107.496704,56.2780332 C107.628276,56.2780332 107.735235,56.3847968 107.735235,56.5170821 L107.735235,61.5558917 C107.735235,61.6881006 107.628276,61.7948642 107.496704,61.7948642 L107.496704,61.7948642 Z" id="Fill-72" fill="#000000"></path>
                <polygon id="Fill-73" fill="#FFFFFF" points="110.454115 61.5558917 115.481604 61.5558917 115.481604 56.5170821 110.454115 56.5170821"></polygon>
                <path d="M110.692646,61.3168733 L115.243073,61.3168733 L115.243073,56.7561464 L110.692646,56.7561464 L110.692646,61.3168733 Z M115.481604,61.7948642 L110.454115,61.7948642 C110.32233,61.7948642 110.215584,61.6881006 110.215584,61.5558917 L110.215584,56.5170821 C110.215584,56.3847968 110.32233,56.2780332 110.454115,56.2780332 L115.481604,56.2780332 C115.613619,56.2780332 115.720136,56.3847968 115.720136,56.5170821 L115.720136,61.5558917 C115.720136,61.6881006 115.613619,61.7948642 115.481604,61.7948642 L115.481604,61.7948642 Z" id="Fill-74" fill="#000000"></path>
                <polygon id="Fill-75" fill="#FFFFFF" points="86.4991696 70.4038958 91.5266741 70.4038958 91.5266741 65.3658045 86.4991696 65.3658045"></polygon>
                <path d="M86.737701,70.1647552 L91.2879292,70.1647552 L91.2879292,65.604991 L86.737701,65.604991 L86.737701,70.1647552 Z M91.5266741,70.6428377 L86.4991696,70.6428377 C86.3673688,70.6428377 86.2606534,70.5359824 86.2606534,70.4038958 L86.2606534,65.3658045 C86.2606534,65.2337178 86.3673688,65.1267709 86.4991696,65.1267709 L91.5266741,65.1267709 C91.658673,65.1267709 91.7652055,65.2337178 91.7652055,65.3658045 L91.7652055,70.4038958 C91.7652055,70.5359824 91.658673,70.6428377 91.5266741,70.6428377 L91.5266741,70.6428377 Z" id="Fill-76" fill="#000000"></path>
                <polygon id="Fill-77" fill="#FFFFFF" points="94.4842988 70.4038958 99.5118033 70.4038958 99.5118033 65.3658045 94.4842988 65.3658045"></polygon>
                <path d="M94.7228149,70.1647552 L99.2732414,70.1647552 L99.2732414,65.604991 L94.7228149,65.604991 L94.7228149,70.1647552 Z M99.5118033,70.6428377 L94.4842988,70.6428377 C94.3522846,70.6428377 94.2457674,70.5359824 94.2457674,70.4038958 L94.2457674,65.3658045 C94.2457674,65.2337178 94.3522846,65.1267709 94.4842988,65.1267709 L99.5118033,65.1267709 C99.6433753,65.1267709 99.7503195,65.2337178 99.7503195,65.3658045 L99.7503195,70.4038958 C99.7503195,70.5359824 99.6433753,70.6428377 99.5118033,70.6428377 L99.5118033,70.6428377 Z" id="Fill-78" fill="#000000"></path>
                <polygon id="Fill-79" fill="#FFFFFF" points="102.469199 70.4038958 107.496704 70.4038958 107.496704 65.3658045 102.469199 65.3658045"></polygon>
                <path d="M102.707746,70.1647552 L107.257959,70.1647552 L107.257959,65.604991 L102.707746,65.604991 L102.707746,70.1647552 Z M107.496704,70.6428377 L102.469199,70.6428377 C102.337399,70.6428377 102.230454,70.5359824 102.230454,70.4038958 L102.230454,65.3658045 C102.230454,65.2337178 102.337399,65.1267709 102.469199,65.1267709 L107.496704,65.1267709 C107.628276,65.1267709 107.735235,65.2337178 107.735235,65.3658045 L107.735235,70.4038958 C107.735235,70.5359824 107.628276,70.6428377 107.496704,70.6428377 L107.496704,70.6428377 Z" id="Fill-80" fill="#000000"></path>
                <polygon id="Fill-81" fill="#FFFFFF" points="110.454115 70.4038958 115.481604 70.4038958 115.481604 65.3658045 110.454115 65.3658045"></polygon>
                <path d="M110.692646,70.1647552 L115.243073,70.1647552 L115.243073,65.604991 L110.692646,65.604991 L110.692646,70.1647552 Z M115.481604,70.6428377 L110.454115,70.6428377 C110.32233,70.6428377 110.215584,70.5359824 110.215584,70.4038958 L110.215584,65.3658045 C110.215584,65.2337178 110.32233,65.1267709 110.454115,65.1267709 L115.481604,65.1267709 C115.613619,65.1267709 115.720136,65.2337178 115.720136,65.3658045 L115.720136,70.4038958 C115.720136,70.5359824 115.613619,70.6428377 115.481604,70.6428377 L115.481604,70.6428377 Z" id="Fill-82" fill="#000000"></path>
                <polygon id="Fill-83" fill="#FFFFFF" points="86.4991696 79.2525264 91.5266741 79.2525264 91.5266741 74.2139309 86.4991696 74.2139309"></polygon>
                <path d="M86.737701,79.0137068 L91.2879292,79.0137068 L91.2879292,74.4527811 L86.737701,74.4527811 L86.737701,79.0137068 Z M91.5266741,79.4915906 L86.4991696,79.4915906 C86.3673688,79.4915906 86.2606534,79.3848424 86.2606534,79.2525264 L86.2606534,74.2139309 C86.2606534,74.0814316 86.3673688,73.9746527 86.4991696,73.9746527 L91.5266741,73.9746527 C91.658673,73.9746527 91.7652055,74.0814316 91.7652055,74.2139309 L91.7652055,79.2525264 C91.7652055,79.3848424 91.658673,79.4915906 91.5266741,79.4915906 L91.5266741,79.4915906 Z" id="Fill-84" fill="#000000"></path>
                <polygon id="Fill-85" fill="#FFFFFF" points="94.4842988 79.2525264 99.5118033 79.2525264 99.5118033 74.2139309 94.4842988 74.2139309"></polygon>
                <path d="M94.7228149,79.0137068 L99.2732414,79.0137068 L99.2732414,74.4527811 L94.7228149,74.4527811 L94.7228149,79.0137068 Z M99.5118033,79.4915906 L94.4842988,79.4915906 C94.3522846,79.4915906 94.2457674,79.3848424 94.2457674,79.2525264 L94.2457674,74.2139309 C94.2457674,74.0814316 94.3522846,73.9746527 94.4842988,73.9746527 L99.5118033,73.9746527 C99.6433753,73.9746527 99.7503195,74.0814316 99.7503195,74.2139309 L99.7503195,79.2525264 C99.7503195,79.3848424 99.6433753,79.4915906 99.5118033,79.4915906 L99.5118033,79.4915906 Z" id="Fill-86" fill="#000000"></path>
                <polygon id="Fill-87" fill="#FFFFFF" points="102.469199 79.2525264 107.496704 79.2525264 107.496704 74.2139309 102.469199 74.2139309"></polygon>
                <path d="M102.707746,79.0137068 L107.257959,79.0137068 L107.257959,74.4527811 L102.707746,74.4527811 L102.707746,79.0137068 Z M107.496704,79.4915906 L102.469199,79.4915906 C102.337399,79.4915906 102.230454,79.3848424 102.230454,79.2525264 L102.230454,74.2139309 C102.230454,74.0814316 102.337399,73.9746527 102.469199,73.9746527 L107.496704,73.9746527 C107.628276,73.9746527 107.735235,74.0814316 107.735235,74.2139309 L107.735235,79.2525264 C107.735235,79.3848424 107.628276,79.4915906 107.496704,79.4915906 L107.496704,79.4915906 Z" id="Fill-88" fill="#000000"></path>
                <polygon id="Fill-89" fill="#FFFFFF" points="110.454115 79.2525264 115.481604 79.2525264 115.481604 74.2139309 110.454115 74.2139309"></polygon>
                <path d="M110.692646,79.0137068 L115.243073,79.0137068 L115.243073,74.4527811 L110.692646,74.4527811 L110.692646,79.0137068 Z M115.481604,79.4915906 L110.454115,79.4915906 C110.32233,79.4915906 110.215584,79.3848424 110.215584,79.2525264 L110.215584,74.2139309 C110.215584,74.0814316 110.32233,73.9746527 110.454115,73.9746527 L115.481604,73.9746527 C115.613619,73.9746527 115.720136,74.0814316 115.720136,74.2139309 L115.720136,79.2525264 C115.720136,79.3848424 115.613619,79.4915906 115.481604,79.4915906 L115.481604,79.4915906 Z" id="Fill-90" fill="#000000"></path>
                <polygon id="Fill-91" fill="#FFFFFF" points="86.4991696 88.1003166 91.5266741 88.1003166 91.5266741 83.0623476 86.4991696 83.0623476"></polygon>
                <path d="M86.737701,87.8612677 L91.2879292,87.8612677 L91.2879292,83.3018244 L86.737701,83.3018244 L86.737701,87.8612677 Z M91.5266741,88.3395795 L86.4991696,88.3395795 C86.3673688,88.3395795 86.2606534,88.2326019 86.2606534,88.1003166 L86.2606534,83.0623476 C86.2606534,82.9304749 86.3673688,82.8232834 86.4991696,82.8232834 L91.5266741,82.8232834 C91.658673,82.8232834 91.7652055,82.9304749 91.7652055,83.0623476 L91.7652055,88.1003166 C91.7652055,88.2326019 91.658673,88.3395795 91.5266741,88.3395795 L91.5266741,88.3395795 Z" id="Fill-92" fill="#000000"></path>
                <polygon id="Fill-93" fill="#FFFFFF" points="94.4842988 88.1003166 99.5118033 88.1003166 99.5118033 83.0623476 94.4842988 83.0623476"></polygon>
                <path d="M94.7228149,87.8612677 L99.2732414,87.8612677 L99.2732414,83.3018244 L94.7228149,83.3018244 L94.7228149,87.8612677 Z M99.5118033,88.3395795 L94.4842988,88.3395795 C94.3522846,88.3395795 94.2457674,88.2326019 94.2457674,88.1003166 L94.2457674,83.0623476 C94.2457674,82.9304749 94.3522846,82.8232834 94.4842988,82.8232834 L99.5118033,82.8232834 C99.6433753,82.8232834 99.7503195,82.9304749 99.7503195,83.0623476 L99.7503195,88.1003166 C99.7503195,88.2326019 99.6433753,88.3395795 99.5118033,88.3395795 L99.5118033,88.3395795 Z" id="Fill-94" fill="#000000"></path>
                <polygon id="Fill-95" fill="#FFFFFF" points="102.469199 88.1003166 107.496704 88.1003166 107.496704 83.0623476 102.469199 83.0623476"></polygon>
                <path d="M102.707746,87.8612677 L107.257959,87.8612677 L107.257959,83.3018244 L102.707746,83.3018244 L102.707746,87.8612677 Z M107.496704,88.3395795 L102.469199,88.3395795 C102.337399,88.3395795 102.230454,88.2326019 102.230454,88.1003166 L102.230454,83.0623476 C102.230454,82.9304749 102.337399,82.8232834 102.469199,82.8232834 L107.496704,82.8232834 C107.628276,82.8232834 107.735235,82.9304749 107.735235,83.0623476 L107.735235,88.1003166 C107.735235,88.2326019 107.628276,88.3395795 107.496704,88.3395795 L107.496704,88.3395795 Z" id="Fill-96" fill="#000000"></path>
                <polygon id="Fill-97" fill="#FFFFFF" points="110.454115 88.1003166 115.481604 88.1003166 115.481604 83.0623476 110.454115 83.0623476"></polygon>
                <path d="M110.692646,87.8612677 L115.243073,87.8612677 L115.243073,83.3018244 L110.692646,83.3018244 L110.692646,87.8612677 Z M115.481604,88.3395795 L110.454115,88.3395795 C110.32233,88.3395795 110.215584,88.2326019 110.215584,88.1003166 L110.215584,83.0623476 C110.215584,82.9304749 110.32233,82.8232834 110.454115,82.8232834 L115.481604,82.8232834 C115.613619,82.8232834 115.720136,82.9304749 115.720136,83.0623476 L115.720136,88.1003166 C115.720136,88.2326019 115.613619,88.3395795 115.481604,88.3395795 L115.481604,88.3395795 Z" id="Fill-98" fill="#000000"></path>
                <polygon id="Fill-99" fill="#FFFFFF" points="86.4991696 96.9493905 91.5266741 96.9493905 91.5266741 91.9105504 86.4991696 91.9105504"></polygon>
                <path d="M86.737701,96.7103415 L91.2879292,96.7103415 L91.2879292,92.1496146 L86.737701,92.1496146 L86.737701,96.7103415 Z M91.5266741,97.1884241 L86.4991696,97.1884241 C86.3673688,97.1884241 86.2606534,97.0814771 86.2606534,96.9493905 L86.2606534,91.9105656 C86.2606534,91.778479 86.3673688,91.671532 86.4991696,91.671532 L91.5266741,91.671532 C91.658673,91.671532 91.7652055,91.778479 91.7652055,91.9105656 L91.7652055,96.9493905 C91.7652055,97.0814771 91.658673,97.1884241 91.5266741,97.1884241 L91.5266741,97.1884241 Z" id="Fill-100" fill="#000000"></path>
                <polygon id="Fill-101" fill="#FFFFFF" points="94.4842988 96.9493905 99.5118033 96.9493905 99.5118033 91.9105504 94.4842988 91.9105504"></polygon>
                <path d="M94.7228149,96.7103415 L99.2732414,96.7103415 L99.2732414,92.1496146 L94.7228149,92.1496146 L94.7228149,96.7103415 Z M99.5118033,97.1884241 L94.4842988,97.1884241 C94.3522846,97.1884241 94.2457674,97.0814771 94.2457674,96.9493905 L94.2457674,91.9105656 C94.2457674,91.778479 94.3522846,91.671532 94.4842988,91.671532 L99.5118033,91.671532 C99.6433753,91.671532 99.7503195,91.778479 99.7503195,91.9105656 L99.7503195,96.9493905 C99.7503195,97.0814771 99.6433753,97.1884241 99.5118033,97.1884241 L99.5118033,97.1884241 Z" id="Fill-102" fill="#000000"></path>
                <polygon id="Fill-103" fill="#FFFFFF" points="102.469199 96.9493905 107.496704 96.9493905 107.496704 91.9105504 102.469199 91.9105504"></polygon>
                <path d="M102.707746,96.7103415 L107.257959,96.7103415 L107.257959,92.1496146 L102.707746,92.1496146 L102.707746,96.7103415 Z M107.496704,97.1884241 L102.469199,97.1884241 C102.337399,97.1884241 102.230454,97.0814771 102.230454,96.9493905 L102.230454,91.9105656 C102.230454,91.778479 102.337399,91.671532 102.469199,91.671532 L107.496704,91.671532 C107.628276,91.671532 107.735235,91.778479 107.735235,91.9105656 L107.735235,96.9493905 C107.735235,97.0814771 107.628276,97.1884241 107.496704,97.1884241 L107.496704,97.1884241 Z" id="Fill-104" fill="#000000"></path>
                <polygon id="Fill-105" fill="#FFFFFF" points="110.454115 96.9493905 115.481604 96.9493905 115.481604 91.9105504 110.454115 91.9105504"></polygon>
                <path d="M110.692646,96.7103415 L115.243073,96.7103415 L115.243073,92.1496146 L110.692646,92.1496146 L110.692646,96.7103415 Z M115.481604,97.1884241 L110.454115,97.1884241 C110.32233,97.1884241 110.215584,97.0814771 110.215584,96.9493905 L110.215584,91.9105656 C110.215584,91.778479 110.32233,91.671532 110.454115,91.671532 L115.481604,91.671532 C115.613619,91.671532 115.720136,91.778479 115.720136,91.9105656 L115.720136,96.9493905 C115.720136,97.0814771 115.613619,97.1884241 115.481604,97.1884241 L115.481604,97.1884241 Z" id="Fill-106" fill="#000000"></path>
                <polygon id="Fill-107" fill="#FFFFFF" points="86.4991696 105.797364 91.5266741 105.797364 91.5266741 100.759181 86.4991696 100.759181"></polygon>
                <path d="M86.737701,105.558101 L91.2879292,105.558101 L91.2879292,100.998245 L86.737701,100.998245 L86.737701,105.558101 Z M91.5266741,106.036214 L86.4991696,106.036214 C86.3673688,106.036214 86.2606534,105.929451 86.2606534,105.797364 L86.2606534,100.759181 C86.2606534,100.626896 86.3673688,100.520361 86.4991696,100.520361 L91.5266741,100.520361 C91.658673,100.520361 91.7652055,100.626896 91.7652055,100.759181 L91.7652055,105.797364 C91.7652055,105.929451 91.658673,106.036214 91.5266741,106.036214 L91.5266741,106.036214 Z" id="Fill-108" fill="#000000"></path>
                <polygon id="Fill-109" fill="#FFFFFF" points="94.4842988 105.797364 99.5118033 105.797364 99.5118033 100.759181 94.4842988 100.759181"></polygon>
                <path d="M94.7228149,105.558101 L99.2732414,105.558101 L99.2732414,100.998245 L94.7228149,100.998245 L94.7228149,105.558101 Z M99.5118033,106.036214 L94.4842988,106.036214 C94.3522846,106.036214 94.2457674,105.929451 94.2457674,105.797364 L94.2457674,100.759181 C94.2457674,100.626896 94.3522846,100.520361 94.4842988,100.520361 L99.5118033,100.520361 C99.6433753,100.520361 99.7503195,100.626896 99.7503195,100.759181 L99.7503195,105.797364 C99.7503195,105.929451 99.6433753,106.036214 99.5118033,106.036214 L99.5118033,106.036214 Z" id="Fill-110" fill="#000000"></path>
                <polygon id="Fill-111" fill="#FFFFFF" points="102.469199 105.797364 107.496704 105.797364 107.496704 100.759181 102.469199 100.759181"></polygon>
                <path d="M102.707746,105.558101 L107.257959,105.558101 L107.257959,100.998245 L102.707746,100.998245 L102.707746,105.558101 Z M107.496704,106.036214 L102.469199,106.036214 C102.337399,106.036214 102.230454,105.929451 102.230454,105.797364 L102.230454,100.759181 C102.230454,100.626896 102.337399,100.520361 102.469199,100.520361 L107.496704,100.520361 C107.628276,100.520361 107.735235,100.626896 107.735235,100.759181 L107.735235,105.797364 C107.735235,105.929451 107.628276,106.036214 107.496704,106.036214 L107.496704,106.036214 Z" id="Fill-112" fill="#000000"></path>
                <polygon id="Fill-113" fill="#FFFFFF" points="110.454115 105.797364 115.481604 105.797364 115.481604 100.759181 110.454115 100.759181"></polygon>
                <path d="M110.692646,105.558101 L115.243073,105.558101 L115.243073,100.998245 L110.692646,100.998245 L110.692646,105.558101 Z M115.481604,106.036214 L110.454115,106.036214 C110.32233,106.036214 110.215584,105.929451 110.215584,105.797364 L110.215584,100.759181 C110.215584,100.626896 110.32233,100.520361 110.454115,100.520361 L115.481604,100.520361 C115.613619,100.520361 115.720136,100.626896 115.720136,100.759181 L115.720136,105.797364 C115.720136,105.929451 115.613619,106.036214 115.481604,106.036214 L115.481604,106.036214 Z" id="Fill-114" fill="#000000"></path>
                <polygon id="Fill-115" fill="#FFFFFF" points="86.4991696 114.645827 91.5266741 114.645827 91.5266741 109.606986 86.4991696 109.606986"></polygon>
                <path d="M86.737701,114.406747 L91.2879292,114.406747 L91.2879292,109.846249 L86.737701,109.846249 L86.737701,114.406747 Z M91.5266741,114.885089 L86.4991696,114.885089 C86.3673688,114.885089 86.2606534,114.778097 86.2606534,114.645827 L86.2606534,109.606986 C86.2606534,109.475129 86.3673688,109.367938 86.4991696,109.367938 L91.5266741,109.367938 C91.658673,109.367938 91.7652055,109.475129 91.7652055,109.606986 L91.7652055,114.645827 C91.7652055,114.778097 91.658673,114.885089 91.5266741,114.885089 L91.5266741,114.885089 Z" id="Fill-116" fill="#000000"></path>
                <polygon id="Fill-117" fill="#FFFFFF" points="94.4842988 114.645827 99.5118033 114.645827 99.5118033 109.606986 94.4842988 109.606986"></polygon>
                <path d="M94.7228149,114.406747 L99.2732414,114.406747 L99.2732414,109.846249 L94.7228149,109.846249 L94.7228149,114.406747 Z M99.5118033,114.885089 L94.4842988,114.885089 C94.3522846,114.885089 94.2457674,114.778097 94.2457674,114.645827 L94.2457674,109.606986 C94.2457674,109.475129 94.3522846,109.367938 94.4842988,109.367938 L99.5118033,109.367938 C99.6433753,109.367938 99.7503195,109.475129 99.7503195,109.606986 L99.7503195,114.645827 C99.7503195,114.778097 99.6433753,114.885089 99.5118033,114.885089 L99.5118033,114.885089 Z" id="Fill-118" fill="#000000"></path>
                <polygon id="Fill-119" fill="#FFFFFF" points="102.469199 114.645827 107.496704 114.645827 107.496704 109.606986 102.469199 109.606986"></polygon>
                <path d="M102.707746,114.406747 L107.257959,114.406747 L107.257959,109.846249 L102.707746,109.846249 L102.707746,114.406747 Z M107.496704,114.885089 L102.469199,114.885089 C102.337399,114.885089 102.230454,114.778097 102.230454,114.645827 L102.230454,109.606986 C102.230454,109.475129 102.337399,109.367938 102.469199,109.367938 L107.496704,109.367938 C107.628276,109.367938 107.735235,109.475129 107.735235,109.606986 L107.735235,114.645827 C107.735235,114.778097 107.628276,114.885089 107.496704,114.885089 L107.496704,114.885089 Z" id="Fill-120" fill="#000000"></path>
                <polygon id="Fill-121" fill="#FFFFFF" points="110.454115 114.645827 115.481604 114.645827 115.481604 109.606986 110.454115 109.606986"></polygon>
                <path d="M110.692646,114.406747 L115.243073,114.406747 L115.243073,109.846249 L110.692646,109.846249 L110.692646,114.406747 Z M115.481604,114.885089 L110.454115,114.885089 C110.32233,114.885089 110.215584,114.778097 110.215584,114.645827 L110.215584,109.606986 C110.215584,109.475129 110.32233,109.367938 110.454115,109.367938 L115.481604,109.367938 C115.613619,109.367938 115.720136,109.475129 115.720136,109.606986 L115.720136,114.645827 C115.720136,114.778097 115.613619,114.885089 115.481604,114.885089 L115.481604,114.885089 Z" id="Fill-122" fill="#000000"></path>
                <path d="M118.981986,103.20227 L153.377126,103.20227 L118.981986,82.8228677 L118.981986,103.20227 Z M154.249362,103.680383 L118.743241,103.680383 C118.611669,103.680383 118.504725,103.573436 118.504725,103.441364 L118.504725,82.4043411 C118.504725,82.3181325 118.550519,82.238908 118.625272,82.1964685 C118.699811,82.153815 118.79143,82.1548848 118.864871,82.1981954 L154.370793,103.235188 C154.463266,103.290419 154.507748,103.400193 154.479461,103.504344 C154.451158,103.608509 154.356733,103.680383 154.249362,103.680383 L154.249362,103.680383 Z" id="Fill-124" fill="#000000"></path>
                <path d="M154.249358,110.432818 L123.629852,110.432818" id="Fill-125" fill="#FFFFFF"></path>
                <path d="M154.249358,110.671861 L123.629852,110.671861 C123.497624,110.671861 123.391336,110.564669 123.391336,110.432812 C123.391336,110.300297 123.497624,110.193778 123.629852,110.193778 L154.249358,110.193778 C154.381158,110.193778 154.487889,110.300297 154.487889,110.432812 C154.487889,110.564669 154.381158,110.671861 154.249358,110.671861" id="Fill-126" fill="#000000"></path>
                <path d="M154.249358,115.891283 L123.629852,115.891283" id="Fill-127" fill="#FFFFFF"></path>
                <path d="M154.249358,116.130326 L123.629852,116.130326 C123.497624,116.130326 123.391336,116.02315 123.391336,115.891277 C123.391336,115.759206 123.497624,115.65203 123.629852,115.65203 L154.249358,115.65203 C154.381158,115.65203 154.487889,115.759206 154.487889,115.891277 C154.487889,116.02315 154.381158,116.130326 154.249358,116.130326" id="Fill-128" fill="#000000"></path>
                <path d="M154.249358,121.348869 L123.629852,121.348869" id="Fill-129" fill="#FFFFFF"></path>
                <path d="M154.249358,121.587911 L123.629852,121.587911 C123.497624,121.587911 123.391336,121.481178 123.391336,121.348863 C123.391336,121.216791 123.497624,121.109829 123.629852,121.109829 L154.249358,121.109829 C154.381158,121.109829 154.487889,121.216791 154.487889,121.348863 C154.487889,121.481178 154.381158,121.587911 154.249358,121.587911" id="Fill-130" fill="#000000"></path>
                <path d="M35.4925228,124.47814 C35.5678092,124.159836 35.6130847,123.828985 35.6130847,123.487085 C35.6130847,121.148144 33.7207234,119.252655 31.3869524,119.252655 C30.6755822,119.252655 30.0064378,119.429137 29.4186642,119.740931 C28.7387079,116.276265 25.6936735,113.661474 22.0363445,113.661474 C18.4741718,113.661474 15.4970736,116.144835 14.7176453,119.477644 C14.292217,119.333866 13.8384858,119.252655 13.3646712,119.252655 C11.0305799,119.252655 9.13856932,121.148144 9.13856932,123.487085 C9.13856932,123.828985 9.18285363,124.159836 9.26009194,124.47814 L35.4925228,124.47814 Z" id="Fill-131" fill="#63B88E"></path>
                <path d="M9.45184575,124.239097 L35.3000218,124.239097 C35.3500094,123.981847 35.3745457,123.734362 35.3745457,123.487091 C35.3745457,121.284133 33.5856821,119.491694 31.3869447,119.491694 C30.7308843,119.491694 30.1062681,119.646522 29.5301451,119.952493 C29.4633678,119.987566 29.3842996,119.988865 29.3157992,119.956374 C29.2478631,119.923914 29.1990344,119.861317 29.1843492,119.787075 C28.5152048,116.375653 25.5090716,113.900514 22.0363368,113.900514 C18.6395441,113.900514 15.7253498,116.216287 14.9500236,119.532208 C14.9344692,119.597602 14.8923198,119.653444 14.8337773,119.686378 C14.7746858,119.719052 14.7049044,119.725547 14.6414821,119.703907 C14.2242732,119.563155 13.7947429,119.491694 13.3646788,119.491694 C11.1658499,119.491694 9.3770931,121.284133 9.3770931,123.487091 C9.3770931,123.734362 9.40226989,123.986615 9.45184575,124.239097 M35.4925152,124.716966 L9.26009956,124.716966 C9.1502275,124.716966 9.05440016,124.641852 9.02835415,124.534661 C8.9431404,124.18408 8.90004554,123.831589 8.90004554,123.487091 C8.90004554,121.020189 10.9029042,119.013612 13.3646788,119.013612 C13.7624446,119.013612 14.1590362,119.067743 14.5476067,119.175591 C15.4581799,115.77499 18.5021316,113.422202 22.0363368,113.422202 C25.6334002,113.422202 28.7607509,115.914886 29.5871779,119.393627 C30.1512081,119.144186 30.7672999,119.013612 31.3869447,119.013612 C33.8487346,119.013612 35.8517152,121.020189 35.8517152,123.487091 C35.8517152,123.825522 35.8088339,124.1776 35.7243368,124.533117 C35.6989618,124.64118 35.6028142,124.716966 35.4925152,124.716966" id="Fill-132" fill="#000000"></path>
                <path d="M66.0235558,124.47814 C66.5868236,123.109897 66.9017241,121.612166 66.9017241,120.040376 C66.9017241,113.612311 61.7022518,108.401573 55.2874467,108.401573 C54.0332126,108.401573 52.8302012,108.60619 51.6966509,108.974071 C50.6009192,105.581508 47.4250448,103.127581 43.6740386,103.127581 C39.0140756,103.127581 35.2361694,106.913133 35.2361694,111.584108 C35.2361694,112.141431 35.293431,112.685794 35.3945346,113.213697 C30.7916044,113.742884 27.2134503,117.656642 27.2134503,122.41355 C27.2134503,123.124187 27.3010583,123.813382 27.4519665,124.47814 L66.0235558,124.47814 Z" id="Fill-133" fill="#CDFBD4"></path>
                <path d="M27.6442571,124.239097 L65.8628071,124.239097 C66.3938834,122.896621 66.6632033,121.485282 66.6632033,120.040382 C66.6632033,113.754795 61.5599854,108.640597 55.2874574,108.640597 C54.1000919,108.640597 52.9166303,108.829428 51.7703315,109.201435 C51.7105843,109.222005 51.6446763,109.215709 51.5880857,109.186916 C51.5319069,109.158139 51.489117,109.108104 51.4698875,109.047907 C50.3722039,105.649506 47.2393481,103.366651 43.6740493,103.366651 C39.1528865,103.366651 35.474803,107.052592 35.474803,111.584115 C35.474803,112.101611 35.526773,112.63471 35.6289593,113.168222 C35.6413724,113.233601 35.6261535,113.301165 35.58681,113.355097 C35.5476189,113.408784 35.4878717,113.44343 35.4217655,113.451239 C30.8782318,113.973702 27.4519772,117.826605 27.4519772,122.413556 C27.4519772,123.008764 27.516467,123.62199 27.6442571,124.239097 M66.0235512,124.716966 L27.4519772,124.716966 C27.3407022,124.716966 27.2441124,124.64011 27.2194845,124.53139 C27.057124,123.816643 26.9748991,123.10405 26.9748991,122.413556 C26.9748991,117.668324 30.4566921,113.669275 35.1160299,113.008429 C35.0374801,112.528573 34.9977249,112.050506 34.9977249,111.584115 C34.9977249,106.789504 38.889834,102.888324 43.6740493,102.888324 C47.3679007,102.888324 50.6230568,105.204311 51.8478901,108.676114 C52.9717265,108.335314 54.1276476,108.162515 55.2874574,108.162515 C61.8229159,108.162515 67.1401441,113.491081 67.1401441,120.040382 C67.1401441,121.601123 66.8388461,123.12485 66.2441341,124.569276 C66.2070932,124.658938 66.1202478,124.716966 66.0235512,124.716966" id="Fill-134" fill="#000000"></path>
                <path d="M108.465518,119.209139 L106.95093,119.209139 C106.974048,119.005164 106.987895,118.798804 106.987895,118.588578 C106.987895,115.511706 104.499083,113.016654 101.430397,113.016654 C99.9644243,113.016654 98.6350258,113.589151 97.6415719,114.517625 C96.0025492,112.640979 93.6023517,111.449632 90.9165021,111.449632 C86.3323745,111.449632 82.5585856,114.901949 82.0260912,119.352489 C81.5555246,119.209567 81.0575091,119.131199 80.5403556,119.131199 C77.7086911,119.131199 75.4123117,121.433095 75.4123117,124.270689 C75.4123117,124.340866 75.4197534,124.409072 75.4225745,124.478134 L113.547661,124.478134 C113.548744,124.421619 113.555652,124.367061 113.555652,124.309904 C113.555652,121.492865 111.277099,119.209139 108.465518,119.209139" id="Fill-135" fill="#CDFBD4"></path>
                <path d="M75.6508309,124.239097 L113.316681,124.239097 C113.278451,121.590945 111.116998,119.448185 108.465521,119.448185 L106.950933,119.448185 C106.883302,119.448185 106.818706,119.419164 106.773125,119.368288 C106.727743,119.317841 106.706577,119.250292 106.713912,119.182285 C106.737685,118.969873 106.749336,118.775648 106.749336,118.588575 C106.749336,115.648114 104.363198,113.255699 101.430384,113.255699 C100.08348,113.255699 98.7957577,113.766059 97.804271,114.692346 C97.7567386,114.736742 97.6919286,114.76338 97.6292687,114.756227 C97.5648704,114.752987 97.504376,114.723553 97.4622571,114.674817 C95.8044165,112.77696 93.418279,111.688693 90.9165052,111.688693 C86.5078221,111.688693 82.7875892,114.995719 82.262994,119.38085 C82.2546983,119.450982 82.2154768,119.514007 82.1565988,119.552779 C82.0974005,119.59152 82.0235018,119.601912 81.9569534,119.581357 C81.4956737,119.441033 81.0190531,119.370244 80.5403586,119.370244 C77.8547378,119.370244 75.668017,121.551547 75.6508309,124.239097 M113.547649,124.716966 L75.4225776,124.716966 C75.2946654,124.716966 75.1893377,124.615841 75.1842444,124.488095 L75.1800356,124.414495 C75.1767874,124.367058 75.1737833,124.319437 75.1737833,124.270686 C75.1737833,121.304918 77.581209,118.892131 80.5403586,118.892131 C80.9734574,118.892131 81.4048177,118.944749 81.8262354,119.049556 C82.4990397,114.56136 86.358942,111.21058 90.9165052,111.21058 C93.4759523,111.21058 95.9202359,112.289769 97.6599353,114.180474 C98.7136548,113.273886 100.042855,112.777602 101.430384,112.777602 C104.626144,112.777602 107.226399,115.383956 107.226399,118.588575 C107.226399,118.712424 107.22187,118.838887 107.212583,118.969873 L108.465521,118.969873 C111.403718,118.969873 113.793988,121.365757 113.793988,124.309901 C113.793988,124.346059 113.792219,124.381133 113.789443,124.416649 L113.786409,124.482028 C113.784015,124.612403 113.677924,124.716966 113.547649,124.716966" id="Fill-136" fill="#000000"></path>
                <path d="M133.547616,107.082054 C133.547616,111.423446 130.036209,114.943955 125.704017,114.943955 C121.370956,114.943955 117.859137,111.423446 117.859137,107.082054 C117.859137,102.740876 121.370956,99.220994 125.704017,99.220994 C130.036209,99.220994 133.547616,102.740876 133.547616,107.082054" id="Fill-137" fill="#58D1B7"></path>
                <path d="M125.704025,99.4600261 C121.509885,99.4600261 118.09766,102.879013 118.09766,107.082052 C118.09766,111.285276 121.509885,114.704705 125.704025,114.704705 C129.897508,114.704705 133.309092,111.285276 133.309092,107.082052 C133.309092,102.879013 129.897508,99.4600261 125.704025,99.4600261 M125.704025,115.183002 C121.246497,115.183002 117.620598,111.549021 117.620598,107.082052 C117.620598,102.615512 121.246497,98.9819436 125.704025,98.9819436 C130.160454,98.9819436 133.786369,102.615512 133.786369,107.082052 C133.786369,111.549021 130.160454,115.183002 125.704025,115.183002" id="Fill-138" fill="#000000"></path>
                <path d="M125.704025,124.508034 L125.704025,105.378833" id="Fill-139" fill="#FFFFFF"></path>
                <path d="M125.704025,124.746852 C125.57201,124.746852 125.465493,124.640119 125.465493,124.508033 L125.465493,105.378831 C125.465493,105.246714 125.57201,105.139767 125.704025,105.139767 C125.835825,105.139767 125.942327,105.246714 125.942327,105.378831 L125.942327,124.508033 C125.942327,124.640119 125.835825,124.746852 125.704025,124.746852" id="Fill-140" fill="#000000"></path>
                <path d="M125.704025,107.818868 L127.925987,106.099433" id="Fill-141" fill="#FFFFFF"></path>
                <path d="M125.704247,108.057956 C125.632712,108.057956 125.562077,108.026322 125.514971,107.964825 C125.434576,107.860445 125.454035,107.7106 125.558173,107.629863 L127.780364,105.910169 C127.885554,105.828774 128.034862,105.848473 128.115043,105.953296 C128.195606,106.057859 128.176163,106.207704 128.072024,106.288472 L125.849635,108.008105 C125.80622,108.041696 125.754784,108.057956 125.704247,108.057956" id="Fill-142" fill="#000000"></path>
                <path d="M125.704025,110.96396 L130.32835,107.818866" id="Fill-143" fill="#FFFFFF"></path>
                <path d="M125.704247,111.202779 C125.627756,111.202779 125.552775,111.166193 125.506325,111.098415 C125.432213,110.989298 125.460958,110.840324 125.570052,110.766051 L130.194377,107.621004 C130.3037,107.547785 130.451711,107.575722 130.52561,107.684426 C130.599692,107.793772 130.571404,107.942746 130.462294,108.017004 L125.837542,111.162097 C125.796918,111.189591 125.750041,111.202779 125.704247,111.202779" id="Fill-144" fill="#000000"></path>
                <path d="M125.704025,112.781071 L122.827405,110.963966" id="Fill-145" fill="#FFFFFF"></path>
                <path d="M125.703578,113.020321 C125.659949,113.020321 125.615878,113.008432 125.576535,112.983292 L122.700357,111.166202 C122.588884,111.095811 122.555381,110.948151 122.625818,110.836436 C122.695828,110.725562 122.844037,110.691344 122.954657,110.761735 L125.831048,112.579054 C125.942323,112.649629 125.976039,112.797105 125.905587,112.908591 C125.860433,112.980709 125.782859,113.020321 125.703578,113.020321" id="Fill-146" fill="#000000"></path>
                <path d="M125.704025,109.145774 L123.955023,107.818871" id="Fill-147" fill="#FFFFFF"></path>
                <path d="M125.703578,109.385042 C125.653697,109.385042 125.603099,109.368812 125.559898,109.336321 L123.810911,108.009418 C123.705706,107.930178 123.685165,107.779706 123.764675,107.67467 C123.84353,107.569007 123.993477,107.548436 124.098912,107.628349 L125.847913,108.955451 C125.952707,109.03469 125.973645,109.184978 125.893936,109.290214 C125.847273,109.352322 125.775967,109.385042 125.703578,109.385042" id="Fill-148" fill="#000000"></path>
                <path d="M82.3853034,102.959331 C82.3853034,108.586456 77.8344195,113.148314 72.2190499,113.148314 C66.6041073,113.148314 62.0517289,108.586456 62.0517289,102.959331 C62.0517289,97.3322065 66.6041073,92.7703792 72.2190499,92.7703792 C77.8344195,92.7703792 82.3853034,97.3322065 82.3853034,102.959331" id="Fill-149" fill="#58D1B7"></path>
                <path d="M72.219056,93.0094357 C66.7442098,93.0094357 62.2903579,97.4729354 62.2903579,102.959324 C62.2903579,108.445513 66.7442098,112.909043 72.219056,112.909043 C77.6932465,112.909043 82.1467781,108.445513 82.1467781,102.959324 C82.1467781,97.4729354 77.6932465,93.0094357 72.219056,93.0094357 M72.219056,113.387355 C66.481264,113.387355 61.8130968,108.709045 61.8130968,102.959324 C61.8130968,97.2092052 66.481264,92.5315518 72.219056,92.5315518 C77.9562989,92.5315518 82.6238257,97.2092052 82.6238257,102.959324 C82.6238257,108.709045 77.9562989,113.387355 72.219056,113.387355" id="Fill-150" fill="#000000"></path>
                <path d="M72.0498683,124.483542 L72.0498683,101.287988" id="Fill-151" fill="#FFFFFF"></path>
                <path d="M72.0498683,124.72281 C71.9180675,124.72281 71.8112301,124.615848 71.8112301,124.483547 L71.8112301,101.287992 C71.8112301,101.155661 71.9180675,101.048898 72.0498683,101.048898 C72.1817757,101.048898 72.2884149,101.155661 72.2884149,101.287992 L72.2884149,124.483547 C72.2884149,124.615848 72.1817757,124.72281 72.0498683,124.72281" id="Fill-152" fill="#000000"></path>
                <path d="M72.0498683,106.181939 L76.5090117,102.733075" id="Fill-153" fill="#FFFFFF"></path>
                <path d="M72.0500924,106.420967 C71.9785879,106.420967 71.9080288,106.389148 71.8609234,106.328079 C71.7806657,106.223486 71.7999105,106.073228 71.9040487,105.992904 L76.3631617,102.543811 C76.4681997,102.462615 76.6170493,102.482344 76.6978559,102.586938 C76.7782204,102.691501 76.7588841,102.841789 76.6548526,102.921869 L72.1957091,106.371176 C72.152172,106.404737 72.100751,106.420967 72.0500924,106.420967" id="Fill-154" fill="#000000"></path>
                <path d="M72.0498683,108.844796 L68.5430357,106.181942" id="Fill-155" fill="#FFFFFF"></path>
                <path d="M72.049667,109.083854 C71.9994354,109.083854 71.9489751,109.068037 71.9059717,109.035347 L68.3990172,106.372463 C68.2941317,106.292566 68.2732552,106.142752 68.3529944,106.037715 C68.4321847,105.932082 68.5815985,105.911268 68.6870177,105.99118 L72.1938807,108.654248 C72.298873,108.733946 72.3196427,108.88399 72.2400102,108.989011 C72.1931182,109.050951 72.121812,109.083854 72.049667,109.083854" id="Fill-156" fill="#000000"></path>
                <polygon id="Fill-157" fill="#FFFFFF" points="149.329468 111.581066 144.217726 111.581066 145.144418 115.952993 149.948686 115.952993"></polygon>
                <path d="M145.337338,115.713953 L149.673861,115.713953 L149.122259,111.820338 L144.512207,111.820338 L145.337338,115.713953 Z M149.948701,116.192035 L145.144418,116.192035 C145.031618,116.192035 144.934372,116.112796 144.910827,116.002349 L143.984166,111.630865 C143.969038,111.560061 143.986956,111.48666 144.032339,111.431001 C144.077492,111.374929 144.145764,111.342026 144.217726,111.342026 L149.329468,111.342026 C149.448307,111.342026 149.548999,111.429946 149.565407,111.547728 L150.184854,115.919212 C150.194568,115.988075 150.173828,116.05758 150.128675,116.109754 C150.083521,116.162143 150.017842,116.192035 149.948701,116.192035 L149.948701,116.192035 Z" id="Fill-158" fill="#000000"></path>
                <polygon id="Fill-159" fill="#FFFFFF" points="159.37666 115.952996 154.741112 111.581069 149.329474 111.581069 149.948692 115.952996"></polygon>
                <path d="M150.155662,115.713953 L158.775807,115.713953 L154.646692,111.820338 L149.604304,111.820338 L150.155662,115.713953 Z M159.376665,116.192035 L149.948697,116.192035 C149.829858,116.192035 149.729166,116.104115 149.712529,115.986547 L149.093311,111.614834 C149.083384,111.545986 149.103879,111.476481 149.149276,111.424506 C149.194643,111.371888 149.260338,111.342026 149.329464,111.342026 L154.741101,111.342026 C154.802022,111.342026 154.860595,111.365622 154.904666,111.406977 L159.540428,115.778903 C159.611521,115.84581 159.634853,115.950174 159.598544,116.041105 C159.562693,116.132281 159.474551,116.192035 159.376665,116.192035 L159.376665,116.192035 Z" id="Fill-160" fill="#000000"></path>
                <polygon id="Fill-161" fill="#FFFFFF" points="141.545285 121.69077 143.017937 121.69077 143.017937 119.887527 141.545285 119.887527"></polygon>
                <path d="M141.783801,121.451721 L142.779405,121.451721 L142.779405,120.12656 L141.783801,120.12656 L141.783801,121.451721 Z M143.017937,121.929605 L141.545285,121.929605 C141.413484,121.929605 141.306525,121.822857 141.306525,121.69077 L141.306525,119.887527 C141.306525,119.75544 141.413484,119.648478 141.545285,119.648478 L143.017937,119.648478 C143.149737,119.648478 143.256255,119.75544 143.256255,119.887527 L143.256255,121.69077 C143.256255,121.822857 143.149737,121.929605 143.017937,121.929605 L143.017937,121.929605 Z" id="Fill-162" fill="#000000"></path>
                <polygon id="Fill-163" fill="#FFFFFF" points="167.284641 121.69077 169.029114 121.69077 169.029114 119.778394 167.284641 119.778394"></polygon>
                <path d="M167.523401,121.451721 L168.790598,121.451721 L168.790598,120.017428 L167.523401,120.017428 L167.523401,121.451721 Z M169.029114,121.929605 L167.284641,121.929605 C167.152414,121.929605 167.046339,121.822857 167.046339,121.69077 L167.046339,119.778394 C167.046339,119.646094 167.152414,119.539361 167.284641,119.539361 L169.029114,119.539361 C169.160259,119.539361 169.26763,119.646094 169.26763,119.778394 L169.26763,121.69077 C169.26763,121.822857 169.160259,121.929605 169.029114,121.929605 L169.029114,121.929605 Z" id="Fill-164" fill="#000000"></path>
                <path d="M165.429354,116.635933 L159.376662,115.952988 L149.948694,115.952988 L150.760634,121.690773 L157.904437,121.690773 C157.904437,120.151902 159.1485,118.904269 160.685992,118.904269 C162.221532,118.904269 163.466434,120.151902 163.466434,121.690773 L167.284644,121.690773 L167.284644,119.778397 L165.429354,116.635933 Z" id="Fill-165" fill="#D1D3D4"></path>
                <path d="M163.695479,121.451728 L167.04634,121.451728 L167.04634,119.843565 L165.285231,116.860252 L159.350096,116.190527 L150.223075,116.19204 L150.967826,121.451728 L157.675206,121.451728 C157.797263,119.894654 159.100966,118.665223 160.685991,118.665223 C162.270344,118.665223 163.573834,119.894654 163.695479,121.451728 M167.284643,121.929611 L163.466432,121.929611 C163.335089,121.929611 163.227916,121.822848 163.227916,121.690776 C163.227916,120.28636 162.087336,119.143107 160.685991,119.143107 C159.283319,119.143107 158.142967,120.28636 158.142967,121.690776 C158.142967,121.822848 158.035779,121.929611 157.904436,121.929611 L150.760632,121.929611 C150.641809,121.929611 150.54133,121.842119 150.52448,121.724337 L149.71254,115.986551 C149.702597,115.917918 149.723138,115.848413 149.76849,115.795795 C149.813643,115.743819 149.879551,115.713957 149.948692,115.713957 L159.37666,115.713957 L165.456588,116.3984 C165.531127,116.406851 165.597462,116.449703 165.635037,116.514027 L167.489915,119.656477 C167.511737,119.693078 167.523403,119.735304 167.523403,119.7784 L167.523403,121.690776 C167.523403,121.822848 167.41623,121.929611 167.284643,121.929611" id="Fill-166" fill="#000000"></path>
                <path d="M145.144412,115.952996 L143.017941,115.952996 L143.017941,119.887522 L143.017941,121.690766 L144.21772,121.690766 C144.21772,120.151909 145.462438,118.904261 146.998192,118.904261 C148.534571,118.904261 149.779533,120.151909 149.779533,121.690766 L150.760635,121.690766 L149.948695,115.952996 L145.144412,115.952996 Z" id="Fill-167" fill="#D1D3D4"></path>
                <path d="M150.008767,121.451728 L150.4858,121.451728 L149.741506,116.19204 L143.256248,116.19204 L143.256248,121.451728 L143.988266,121.451728 C144.110551,119.894654 145.413385,118.665223 146.998197,118.665223 C148.583191,118.665223 149.88668,119.894654 150.008767,121.451728 M150.76064,121.929611 L149.779538,121.929611 C149.647707,121.929611 149.540793,121.822848 149.540793,121.690776 C149.540793,120.28636 148.400213,119.143107 146.998197,119.143107 C145.596378,119.143107 144.456256,120.28636 144.456256,121.690776 C144.456256,121.822848 144.349296,121.929611 144.217724,121.929611 L143.017931,121.929611 C142.886145,121.929611 142.779414,121.822848 142.779414,121.690776 L142.779414,115.952991 C142.779414,115.82069 142.886145,115.713957 143.017931,115.713957 L149.9487,115.713957 C150.067523,115.713957 150.167986,115.801648 150.184852,115.919201 L150.996792,121.657002 C151.00672,121.72585 150.986224,121.795355 150.940613,121.847529 C150.895689,121.899719 150.829781,121.929611 150.76064,121.929611" id="Fill-168" fill="#000000"></path>
                <path d="M146.9982,118.904266 C145.462446,118.904266 144.217727,120.151914 144.217727,121.69077 C144.217727,123.230085 145.462446,124.478146 146.9982,124.478146 C148.534578,124.478146 149.779541,123.230085 149.779541,121.69077 C149.779541,120.151914 148.534578,118.904266 146.9982,118.904266" id="Fill-169" fill="#FFFFFF"></path>
                <path d="M146.9982,119.143099 C145.596382,119.143099 144.456259,120.286368 144.456259,121.690769 C144.456259,123.09627 145.596382,124.239096 146.9982,124.239096 C148.400201,124.239096 149.540781,123.09627 149.540781,121.690769 C149.540781,120.286368 148.400201,119.143099 146.9982,119.143099 M146.9982,124.716964 C145.333436,124.716964 143.978982,123.359557 143.978982,121.690769 C143.978982,120.022424 145.333436,118.665215 146.9982,118.665215 C148.663162,118.665215 150.018057,120.022424 150.018057,121.690769 C150.018057,123.359557 148.663162,124.716964 146.9982,124.716964" id="Fill-170" fill="#000000"></path>
                <path d="M160.685997,118.904266 C159.148505,118.904266 157.904442,120.151914 157.904442,121.69077 C157.904442,123.230085 159.148505,124.478146 160.685997,124.478146 C162.221522,124.478146 163.466438,123.230085 163.466438,121.69077 C163.466438,120.151914 162.221522,118.904266 160.685997,118.904266" id="Fill-171" fill="#FFFFFF"></path>
                <path d="M160.685997,119.143099 C159.283325,119.143099 158.142958,120.286368 158.142958,121.690769 C158.142958,123.09627 159.283325,124.239096 160.685997,124.239096 C162.087342,124.239096 163.227907,123.09627 163.227907,121.690769 C163.227907,120.286368 162.087342,119.143099 160.685997,119.143099 M160.685997,124.716964 C159.020821,124.716964 157.66591,123.359557 157.66591,121.690769 C157.66591,120.022424 159.020821,118.665215 160.685997,118.665215 C162.350501,118.665215 163.705,120.022424 163.705,121.690769 C163.705,123.359557 162.350501,124.716964 160.685997,124.716964" id="Fill-172" fill="#000000"></path>
                <polygon id="Fill-173" fill="#000000" points="0 124.716966 176.995867 124.716966 176.995867 124.239097 0 124.239097"></polygon>
                <path d="M44.8698279,124.71696 C44.7513094,124.71696 44.649001,124.629483 44.6332331,124.508231 L42.7248904,109.637515 C42.7081313,109.506941 42.8005123,109.386775 42.9311235,109.370086 C43.0663706,109.353872 43.181641,109.445658 43.1982781,109.576675 L45.1067428,124.447835 C45.1233494,124.578393 45.031121,124.69856 44.9003877,124.715447 C44.8899266,124.716547 44.8797705,124.71696 44.8698279,124.71696" id="Fill-174" fill="#000000"></path>
                <path d="M44.4532458,121.469487 C44.3660801,121.469487 44.2819186,121.421409 44.2400132,121.338272 C44.1805862,121.220474 44.2276916,121.076712 44.3454324,121.016927 L52.6137128,116.829704 C52.7309199,116.770607 52.8744931,116.817371 52.9341336,116.935367 C52.9935453,117.052951 52.9464399,117.196744 52.8289126,117.256498 L44.5606322,121.443507 C44.5260617,121.461036 44.4892192,121.469487 44.4532458,121.469487" id="Fill-175" fill="#000000"></path>
                <path d="M47.750106,119.799829 C47.7277351,119.799829 47.7049525,119.796574 47.6821546,119.789881 C47.5558742,119.752194 47.4839274,119.618808 47.5213952,119.492575 L48.3585273,116.667757 C48.3962239,116.541753 48.5273841,116.471132 48.6553877,116.506649 C48.7815767,116.544335 48.8535234,116.677492 48.8161471,116.804153 L47.9789083,119.628772 C47.9479215,119.732495 47.8531616,119.799829 47.750106,119.799829" id="Fill-176" fill="#000000"></path>
                <path d="M44.6512839,123.013543 C44.6183146,123.013543 44.5849489,123.006391 44.5527421,122.992101 L38.9065687,120.41975 C38.7864643,120.365192 38.7337318,120.223569 38.7881875,120.103189 C38.8425211,119.982808 38.9826328,119.930619 39.1039419,119.984749 L44.7503288,122.556886 C44.8701435,122.61146 44.9230743,122.752823 44.8685271,122.873448 C44.8286499,122.961368 44.7420179,123.013543 44.6512839,123.013543" id="Fill-177" fill="#000000"></path>
                <path d="M92.7363754,124.71696 C92.6242464,124.71696 92.5244237,124.637705 92.5021596,124.523162 L91.2924537,118.228269 C91.2678106,118.098367 91.3520942,117.972974 91.4813025,117.94785 C91.611136,117.923169 91.7356018,118.00762 91.7608701,118.137536 L92.9710334,124.432889 C92.995646,124.562591 92.9111795,124.68751 92.7819711,124.713078 C92.7664167,124.715905 92.7512893,124.71696 92.7363754,124.71696" id="Fill-178" fill="#000000"></path>
                <path d="M92.736598,124.71696 C92.7100183,124.71696 92.6830116,124.713078 92.6564471,124.703312 C92.5324235,124.658932 92.4675983,124.52252 92.5118978,124.3978 L94.2591609,119.480242 C94.3034605,119.355934 94.4391346,119.288599 94.5644543,119.335578 C94.6882643,119.379973 94.7528609,119.5164 94.70879,119.641121 L92.9612829,124.558251 C92.9265143,124.65612 92.8344688,124.71696 92.736598,124.71696" id="Fill-179" fill="#000000"></path>
                <path d="M92.2645065,122.258521 C92.2588795,122.258521 92.2532677,122.258521 92.2476407,122.258078 L87.472514,121.929397 C87.3410488,121.919861 87.2417751,121.805961 87.2506197,121.674317 C87.2600286,121.542658 87.3782269,121.443506 87.505041,121.45214 L92.2802744,121.780852 C92.4116482,121.790159 92.5112421,121.904059 92.5021535,122.035703 C92.4933088,122.161936 92.3887283,122.258521 92.2645065,122.258521" id="Fill-180" fill="#000000"></path>
                <path d="M154.134629,63.0906524 L133.510888,63.0906524 C131.798195,63.0906524 130.409782,64.4820785 130.409782,66.19838 C130.409782,67.9146969 131.798195,69.3060924 133.510888,69.3060924 L140.458279,69.3060924 C140.458279,71.0224245 141.846464,72.4138506 143.559386,72.4138506 L149.721828,72.4138506 C151.434307,72.4138506 152.822706,71.0224245 152.822706,69.3060924 L154.134629,69.3060924 C155.847336,69.3060924 157.23572,67.9146969 157.23572,66.19838 C157.23572,64.4820785 155.847336,63.0906524 154.134629,63.0906524" id="Fill-183" fill="#DAECF9"></path>
                <path d="M133.510893,63.3297089 C131.932563,63.3297089 130.648302,64.6164193 130.648302,66.1983724 C130.648302,67.7802338 131.932563,69.0670358 133.510893,69.0670358 L140.458284,69.0670358 C140.590298,69.0670358 140.696815,69.1740134 140.696815,69.3061001 C140.696815,70.8879461 141.980847,72.1747635 143.559375,72.1747635 L149.721833,72.1747635 C151.300147,72.1747635 152.584179,70.8879461 152.584179,69.3061001 C152.584179,69.1740134 152.69091,69.0670358 152.822695,69.0670358 L154.134633,69.0670358 C155.713161,69.0670358 156.996979,67.7802338 156.996979,66.1983724 C156.996979,64.6164193 155.713161,63.3297089 154.134633,63.3297089 L133.510893,63.3297089 Z M149.721833,72.6528766 L143.559375,72.6528766 C141.798281,72.6528766 140.350897,71.2792088 140.227956,69.545149 L133.510893,69.545149 C131.669419,69.545149 130.171483,68.043643 130.171483,66.1983724 C130.171483,64.3531323 131.669419,62.8516264 133.510893,62.8516264 L154.134633,62.8516264 C155.976122,62.8516264 157.474256,64.3531323 157.474256,66.1983724 C157.474256,68.043643 155.976122,69.545149 154.134633,69.545149 L153.052824,69.545149 C152.929883,71.2792088 151.482942,72.6528766 149.721833,72.6528766 L149.721833,72.6528766 Z" id="Fill-184" fill="#000000"></path>
                <path d="M97.4492859,4.43685158 L87.6681564,4.43685158 C87.6681564,2.6474538 86.2210019,1.19693026 84.4357067,1.19693026 L71.586318,1.19693026 C69.8010228,1.19693026 68.353975,2.6474538 68.353975,4.43685158 L65.284511,4.43685158 C63.4993226,4.43685158 62.0517258,5.88725286 62.0517258,7.67655894 C62.0517258,9.46617067 63.4993226,10.9167859 65.284511,10.9167859 L77.3690347,10.9167859 C77.3690347,13.2413005 79.248861,15.1257708 81.5677333,15.1257708 L89.9137705,15.1257708 C92.2333901,15.1257708 94.1133384,13.2413005 94.1133384,10.9167859 L97.4492859,10.9167859 C99.2345811,10.9167859 100.681324,9.46617067 100.681324,7.67655894 C100.681324,5.88725286 99.2345811,4.43685158 97.4492859,4.43685158" id="Fill-185" fill="#DAECF9"></path>
                <path d="M65.2845095,4.67590814 C63.6334855,4.67590814 62.2903624,6.02196048 62.2903624,7.67656658 C62.2903624,9.33146304 63.6334855,10.6777293 65.2845095,10.6777293 L77.3690332,10.6777293 C77.5008339,10.6777293 77.6075798,10.7847069 77.6075798,10.9167783 C77.6075798,13.1058746 79.3840303,14.8868365 81.5677318,14.8868365 L89.913769,14.8868365 C92.097928,14.8868365 93.8747902,13.1058746 93.8747902,10.9167783 C93.8747902,10.7847069 93.9813226,10.6777293 94.1133369,10.6777293 L97.4492844,10.6777293 C99.1001864,10.6777293 100.443004,9.33146304 100.443004,7.67656658 C100.443004,6.02196048 99.1001864,4.67590814 97.4492844,4.67590814 L87.6681549,4.67590814 C87.5362627,4.67590814 87.429532,4.56893061 87.429532,4.43684394 C87.429532,2.78225312 86.0866225,1.43598682 84.4357052,1.43598682 L71.5863164,1.43598682 C69.9354144,1.43598682 68.5923829,2.78225312 68.5923829,4.43684394 C68.5923829,4.56893061 68.4857742,4.67590814 68.3539735,4.67590814 L65.2845095,4.67590814 Z M89.913769,15.3648273 L81.5677318,15.3648273 C79.2009001,15.3648273 77.261113,13.4975805 77.1367845,11.1558425 L65.2845095,11.1558425 C63.3705398,11.1558425 61.8130861,9.59499453 61.8130861,7.67656658 C61.8130861,5.75842899 63.3705398,4.19791727 65.2845095,4.19791727 L68.1235395,4.19791727 C68.2462516,2.39066954 69.7525129,0.957904265 71.5863164,0.957904265 L84.4357052,0.957904265 C86.2694935,0.957904265 87.7757548,2.39066954 87.8984821,4.19791727 L97.4492844,4.19791727 C99.3631474,4.19791727 100.919854,5.75842899 100.919854,7.67656658 C100.919854,9.59499453 99.3631474,11.1558425 97.4492844,11.1558425 L94.3456007,11.1558425 C94.2213485,13.4975805 92.2811345,15.3648273 89.913769,15.3648273 L89.913769,15.3648273 Z" id="Fill-186" fill="#000000"></path>
                <path d="M26.6459554,64.9531173 C26.6459554,66.7066623 25.227424,68.1290355 23.4774465,68.1290355 L14.96179,68.1290355 C13.2118125,68.1290355 11.7928389,66.7066623 11.7928389,64.9531173 C11.7928389,63.19945 13.2118125,61.7771991 14.96179,61.7771991 L23.4774465,61.7771991 C25.227424,61.7771991 26.6459554,63.19945 26.6459554,64.9531173" id="Fill-187" fill="#DAECF9"></path>
                <path d="M14.9617946,62.0162496 C13.3457832,62.0162496 12.0312681,63.3339223 12.0312681,64.9531189 C12.0312681,66.572346 13.3457832,67.8900187 14.9617946,67.8900187 L23.4774358,67.8900187 C25.0931422,67.8900187 26.4075354,66.572346 26.4075354,64.9531189 C26.4075354,63.3339223 25.0931422,62.0162496 23.4774358,62.0162496 L14.9617946,62.0162496 Z M23.4774358,68.3681012 L14.9617946,68.3681012 C13.0828223,68.3681012 11.5542053,66.8361831 11.5542053,64.9531189 C11.5542053,63.0700852 13.0828223,61.538167 14.9617946,61.538167 L23.4774358,61.538167 C25.3561795,61.538167 26.8844762,63.0700852 26.8844762,64.9531189 C26.8844762,66.8361831 25.3561795,68.3681012 23.4774358,68.3681012 L23.4774358,68.3681012 Z" id="Fill-188" fill="#000000"></path>
                <path d="M39.0053133,15.3648258 L24.2605591,15.3648258 C24.1288803,15.3648258 24.0221192,15.2578483 24.0221192,15.1257616 C24.0221192,14.9936902 24.1288803,14.8868349 24.2605591,14.8868349 L39.0053133,14.8868349 C39.1372207,14.8868349 39.2437532,14.9936902 39.2437532,15.1257616 C39.2437532,15.2578483 39.1372207,15.3648258 39.0053133,15.3648258" id="Fill-189" fill="#000000"></path>
                <path d="M163.295329,36.7762994 C163.249734,36.7762994 163.203513,36.7632329 163.162675,36.7355868 C163.053138,36.6620933 163.024179,36.5134557 163.097422,36.4039107 C163.921897,35.1738984 164.578507,33.8450388 165.047564,32.4546367 C165.764241,30.3343727 166.041445,28.1258064 165.872283,25.889808 C165.861913,25.7583632 165.960851,25.6435305 166.092225,25.6335663 C166.222516,25.6223031 166.338092,25.7222507 166.347821,25.8540011 C166.52174,28.1541555 166.236546,30.4265415 165.499572,32.6077215 C165.016882,34.0383167 164.341714,35.4053519 163.49345,36.6704223 C163.447656,36.7391935 163.372263,36.7762994 163.295329,36.7762994" id="Fill-190" fill="#000000"></path>
                <path d="M162.057536,16.3279231 C161.990118,16.3279231 161.92421,16.2998949 161.876464,16.2452141 C160.914592,15.131624 159.804464,14.1483477 158.577695,13.3224048 C158.468127,13.2488042 158.439413,13.1002736 158.513083,12.9906063 C158.586539,12.8814434 158.733894,12.8513675 158.843416,12.9255029 C160.105869,13.7749656 161.24773,14.7866062 162.237296,15.9323355 C162.323943,16.0321455 162.312689,16.1830602 162.213095,16.2694522 C162.168567,16.3086671 162.112403,16.3279231 162.057536,16.3279231" id="Fill-191" fill="#000000"></path>
                <path d="M139.355739,13.7648791 C139.282282,13.7648791 139.210335,13.7312118 139.163459,13.6674531 C139.085214,13.5611328 139.108149,13.411624 139.214422,13.3332401 C141.419747,11.7091684 144.024988,10.6303001 146.748626,10.2135157 C148.809844,9.89703029 150.883994,9.95941347 152.914972,10.3971197 C153.043754,10.4249338 153.126055,10.5519467 153.098209,10.6810074 C153.070547,10.8101599 152.943916,10.8937093 152.815165,10.8644892 C150.840792,10.4388103 148.823889,10.3790252 146.820802,10.685959 C144.172984,11.0914038 141.640345,12.1400739 139.496826,13.7184356 C139.45425,13.7497494 139.404781,13.7648791 139.355739,13.7648791" id="Fill-192" fill="#000000"></path>
                <path d="M132.667825,24.8715883 C132.656144,24.8715883 132.644265,24.8705185 132.632172,24.8689903 C132.502308,24.8493828 132.41223,24.7278105 132.431673,24.5971298 C132.806976,22.0747985 133.721774,19.7156231 135.150355,17.5854102 C135.224024,17.4761709 135.37202,17.4463242 135.481358,17.5203526 C135.590681,17.5941977 135.619854,17.7425144 135.546382,17.8520594 C134.157556,19.9230678 133.26847,22.2162839 132.903551,24.667628 C132.885831,24.7862814 132.784072,24.8715883 132.667825,24.8715883" id="Fill-193" fill="#000000"></path>
                <path d="M149.305909,44.240132 C148.707644,44.240132 148.109806,44.208971 147.516726,44.1462822 C146.231383,44.010543 144.962478,43.7269761 143.744324,43.3036661 C143.619874,43.2602638 143.553996,43.1238521 143.597412,42.9992386 C143.640415,42.8745334 143.776516,42.8082379 143.900768,42.8515485 C145.084108,43.2633967 146.317603,43.5388332 147.566866,43.6711033 C148.617108,43.7816569 149.68379,43.7910557 150.73818,43.700461 C150.868898,43.689641 150.98513,43.7863181 150.996368,43.9179463 C151.007805,44.0496051 150.91059,44.1655381 150.779445,44.1767096 C150.290076,44.2192714 149.797673,44.240132 149.305909,44.240132" id="Fill-194" fill="#000000"></path>
                <path d="M155.907835,42.8974495 C155.815134,42.8974495 155.726993,42.8427993 155.688534,42.7517308 C155.636457,42.6303572 155.693276,42.4901708 155.814494,42.4384395 C156.939306,41.9587981 158.010746,41.3556741 158.999411,40.6460005 C159.106599,40.5683959 159.255662,40.5937038 159.331925,40.7010939 C159.40927,40.8084077 159.38423,40.9577941 159.277057,41.0343289 C158.260501,41.764695 157.158151,42.3852411 156.001375,42.8782852 C155.970922,42.8912754 155.939173,42.8974495 155.907835,42.8974495" id="Fill-195" fill="#000000"></path>
                <path d="M114.576736,32.8677701 C113.098472,32.8677701 111.895675,34.0728567 111.895675,35.5541133 C111.895675,37.0359201 113.098472,38.2414499 114.576736,38.2414499 L115.945691,38.2414499 C116.077507,38.2414499 116.184009,38.3483051 116.184009,38.4803918 C116.184009,39.9619847 117.386594,41.1670712 118.864674,41.1670712 L135.372246,41.1670712 C136.850738,41.1670712 138.053322,39.9619847 138.053322,38.4803918 C138.053322,38.3483051 138.160053,38.2414499 138.291854,38.2414499 L143.189921,38.2414499 C144.668642,38.2414499 145.871669,37.0359201 145.871669,35.5541133 C145.871669,34.0728567 144.668642,32.8677701 143.189921,32.8677701 L142.438033,32.8677701 C142.305821,32.8677701 142.199502,32.7609149 142.199502,32.6286295 C142.199502,31.1472047 140.996475,29.9419195 139.517785,29.9419195 L132.723559,29.9419195 C131.245067,29.9419195 130.042269,31.1472047 130.042269,32.6286295 C130.042269,32.7609149 129.93534,32.8677701 129.803753,32.8677701 L114.576736,32.8677701 Z M135.372246,41.6451538 L118.864674,41.6451538 C117.203601,41.6451538 115.838107,40.3532779 115.716035,38.7195324 L114.576736,38.7195324 C112.835328,38.7195324 111.418597,37.2994211 111.418597,35.5541133 C111.418597,33.8092335 112.835328,32.3896876 114.576736,32.3896876 L129.573868,32.3896876 C129.696366,30.7557434 131.062501,29.463837 132.723559,29.463837 L139.517785,29.463837 C141.179057,29.463837 142.544977,30.7557434 142.667476,32.3896876 L143.189921,32.3896876 C144.931557,32.3896876 146.348716,33.8092335 146.348716,35.5541133 C146.348716,37.2994211 144.931557,38.7195324 143.189921,38.7195324 L138.521312,38.7195324 C138.399027,40.3532779 137.033304,41.6451538 135.372246,41.6451538 L135.372246,41.6451538 Z" id="Fill-197" fill="#000000"></path>
                <path d="M149.332924,14.2806636 C145.049347,14.2806636 141.067358,16.4052372 138.681403,19.9640891 C134.739413,25.8439101 136.305178,33.8408316 142.171202,37.7907322 C144.293982,39.2202728 146.76268,39.9758398 149.309592,39.9758398 C153.594252,39.9758398 157.576241,37.8515718 159.961967,34.2929492 C163.903316,28.4132504 162.337109,20.4155496 156.470887,16.4650988 C154.348107,15.0359249 151.880049,14.2806636 149.332924,14.2806636 M149.309592,40.4540446 C146.667386,40.4540446 144.1071,39.6703273 141.905023,38.1876646 C135.820566,34.0906088 134.196656,25.7960606 138.285376,19.6975317 C140.760128,16.0060583 144.889884,13.802581 149.332924,13.802581 C151.974901,13.802581 154.535202,14.5859622 156.737065,16.0682122 C162.821294,20.1658946 164.446058,28.4607637 160.357994,34.5596136 C157.883898,38.2505521 153.753288,40.4540446 149.309592,40.4540446" id="Fill-199" fill="#000000"></path>
                <path d="M42.6434417,7.78598777 L35.3191308,7.78598777 C35.1872233,7.78598777 35.0804927,7.67916307 35.0804927,7.54695414 C35.0804927,7.41476048 35.1872233,7.30781352 35.3191308,7.30781352 L42.6434417,7.30781352 C42.7752425,7.30781352 42.8819731,7.41476048 42.8819731,7.54695414 C42.8819731,7.67916307 42.7752425,7.78598777 42.6434417,7.78598777" id="Fill-200" fill="#000000"></path>
                <path d="M20.9210233,7.78598777 L14.4958486,7.78598777 C14.3640631,7.78598777 14.2573325,7.67916307 14.2573325,7.54695414 C14.2573325,7.41476048 14.3640631,7.30781352 14.4958486,7.30781352 L20.9210233,7.30781352 C21.0528393,7.30781352 21.1596767,7.41476048 21.1596767,7.54695414 C21.1596767,7.67916307 21.0528393,7.78598777 20.9210233,7.78598777" id="Fill-201" fill="#000000"></path>
                <path d="M53.1778422,12.1296512 L46.7517982,12.1296512 C46.619784,12.1296512 46.5131753,12.022796 46.5131753,11.8905106 C46.5131753,11.7584239 46.619784,11.6515687 46.7517982,11.6515687 L53.1778422,11.6515687 C53.3096429,11.6515687 53.4162821,11.7584239 53.4162821,11.8905106 C53.4162821,12.022796 53.3096429,12.1296512 53.1778422,12.1296512" id="Fill-202" fill="#000000"></path>
                <path d="M31.0402751,5.63446802 C30.9793385,5.63446802 30.9182188,5.61119277 30.8716471,5.56444359 L25.7355972,0.417219988 C25.6423622,0.323889739 25.6423622,0.172562389 25.7355972,0.0793391171 C25.8289389,-0.014205087 25.9798471,-0.014205087 26.0728686,0.0793391171 L31.2089032,5.22644046 C31.3021381,5.31974014 31.3021381,5.47099108 31.2089032,5.56444359 C31.1624687,5.61119277 31.1014253,5.63446802 31.0402751,5.63446802" id="Fill-203" fill="#000000"></path>
                <path d="M25.9042329,5.63446802 C25.8432962,5.63446802 25.782146,5.61119277 25.7356048,5.56444359 C25.6423699,5.47099108 25.6423699,5.31974014 25.7356048,5.22644046 L30.8716394,0.0793391171 C30.9648744,-0.014205087 31.1158894,-0.014205087 31.2089108,0.0793391171 C31.3021458,0.172562389 31.3021458,0.323889739 31.2089108,0.417219988 L26.0728609,5.56444359 C26.026396,5.61119277 25.9652763,5.63446802 25.9042329,5.63446802" id="Fill-204" fill="#000000"></path>
                <path d="M106.437144,31.3994853 C106.375994,31.3994853 106.31527,31.37621 106.268394,31.3294303 L103.359384,28.414415 C103.266485,28.3211 103.266485,28.1697421 103.359384,28.0763201 C103.452497,27.9829746 103.603741,27.9829746 103.696869,28.0763201 L106.605879,30.9915494 C106.698778,31.0849713 106.698778,31.236207 106.605879,31.3294303 C106.559215,31.37621 106.498294,31.3994853 106.437144,31.3994853" id="Fill-205" fill="#000000"></path>
                <path d="M103.528325,31.3994853 C103.466976,31.3994853 103.406268,31.37621 103.359376,31.3294303 C103.266477,31.236207 103.266477,31.0849713 103.359376,30.9915494 L106.268401,28.0763201 C106.361514,27.9829746 106.512758,27.9829746 106.605886,28.0763201 C106.698786,28.1697421 106.698786,28.3211 106.605886,28.414415 L103.696861,31.3294303 C103.650183,31.37621 103.589261,31.3994853 103.528325,31.3994853" id="Fill-206" fill="#000000"></path>
                <path d="M15.0842993,83.5876531 C15.0232559,83.5876531 14.9623192,83.5646988 14.9156712,83.5176898 L12.0066464,80.6023689 C11.9134114,80.5090386 11.9134114,80.3579099 12.0066464,80.2643657 C12.0998661,80.1708215 12.2507896,80.1708215 12.3439178,80.2643657 L15.2529273,83.1797172 C15.3461623,83.2732614 15.3461623,83.4243748 15.2529273,83.5176898 C15.2063861,83.5646988 15.1454494,83.5876531 15.0842993,83.5876531" id="Fill-207" fill="#000000"></path>
                <path d="M12.1752821,83.5876531 C12.1142387,83.5876531 12.0531952,83.5646988 12.006654,83.5176898 C11.9134191,83.4243748 11.9134191,83.2732614 12.006654,83.1797172 L14.9156636,80.2643657 C15.0087918,80.1708215 15.1598068,80.1708215 15.252935,80.2643657 C15.3461699,80.3579099 15.3461699,80.5090386 15.252935,80.6023689 L12.3439102,83.5176898 C12.2973384,83.5646988 12.236295,83.5876531 12.1752821,83.5876531" id="Fill-208" fill="#000000"></path>
                <path d="M149.56713,88.3943581 C149.505767,88.3943581 149.445043,88.3709606 149.398396,88.3242114 L144.26201,83.17711 C144.168668,83.0835658 144.168668,82.9322079 144.26201,82.8388929 C144.35491,82.7455627 144.505925,82.7455627 144.599282,82.8388929 L149.735667,87.9859943 C149.829009,88.0793093 149.829009,88.2308811 149.735667,88.3242114 C149.688988,88.3709606 149.628067,88.3943581 149.56713,88.3943581" id="Fill-209" fill="#000000"></path>
                <path d="M144.430533,88.3943581 C144.369383,88.3943581 144.308446,88.3709606 144.262012,88.3242114 C144.16867,88.2308811 144.16867,88.0793093 144.262012,87.9859943 L149.398382,82.8388929 C149.49151,82.7455627 149.642525,82.7455627 149.735668,82.8388929 C149.82901,82.9322079 149.82901,83.0835658 149.735668,83.17711 L144.599268,88.3242114 C144.552391,88.3709606 144.491698,88.3943581 144.430533,88.3943581" id="Fill-210" fill="#000000"></path>
                <path d="M14.4958517,13.2133656 C13.443657,13.2133656 12.5875089,14.0714018 12.5875089,15.1257723 C12.5875089,16.180265 13.443657,17.0381331 14.4958517,17.0381331 C15.5480768,17.0381331 16.4041944,16.180265 16.4041944,15.1257723 C16.4041944,14.0714018 15.5480768,13.2133656 14.4958517,13.2133656 M14.4958517,17.5162309 C13.1805893,17.5162309 12.1104614,16.4438882 12.1104614,15.1257723 C12.1104614,13.8076564 13.1805893,12.7351914 14.4958517,12.7351914 C15.8111293,12.7351914 16.8812724,13.8076564 16.8812724,15.1257723 C16.8812724,16.4438882 15.8111293,17.5162309 14.4958517,17.5162309" id="Fill-211" fill="#000000"></path>
                <path d="M90.6447026,22.7200686 C89.592508,22.7200686 88.7364666,23.5780436 88.7364666,24.6324446 C88.7364666,25.6870597 89.592508,26.5449277 90.6447026,26.5449277 C91.6971412,26.5449277 92.5531521,25.6870597 92.5531521,24.6324446 C92.5531521,23.5780436 91.6971412,22.7200686 90.6447026,22.7200686 M90.6447026,27.0230255 C89.3295623,27.0230255 88.2593123,25.9505606 88.2593123,24.6324446 C88.2593123,23.314451 89.3295623,22.2418638 90.6447026,22.2418638 C91.9600717,22.2418638 93.0302301,23.314451 93.0302301,24.6324446 C93.0302301,25.9505606 91.9600717,27.0230255 90.6447026,27.0230255" id="Fill-212" fill="#000000"></path>
                <path d="M22.7460951,32.6303243 C22.0620519,32.6303243 21.5056769,33.1878912 21.5056769,33.8732198 C21.5056769,34.5587623 22.0620519,35.1160541 22.7460951,35.1160541 C23.4299248,35.1160541 23.9861778,34.5587623 23.9861778,33.8732198 C23.9861778,33.1878912 23.4299248,32.6303243 22.7460951,32.6303243 M22.7460951,35.5941672 C21.7989842,35.5941672 21.0287513,34.8222633 21.0287513,33.8732198 C21.0287513,32.924161 21.7989842,32.1522723 22.7460951,32.1522723 C23.6928705,32.1522723 24.4632254,32.924161 24.4632254,33.8732198 C24.4632254,34.8222633 23.6928705,35.5941672 22.7460951,35.5941672" id="Fill-213" fill="#000000"></path>
                <path d="M157.904437,75.4901651 C157.220394,75.4901651 156.664019,76.0477014 156.664019,76.7332439 C156.664019,77.418542 157.220394,77.9761088 157.904437,77.9761088 C158.58848,77.9761088 159.144627,77.418542 159.144627,76.7332439 C159.144627,76.0477014 158.58848,75.4901651 157.904437,75.4901651 M157.904437,78.4539927 C156.957433,78.4539927 156.186987,77.6818289 156.186987,76.7332439 C156.186987,75.7844144 156.957433,75.0122659 157.904437,75.0122659 C158.851213,75.0122659 159.621888,75.7844144 159.621888,76.7332439 C159.621888,77.6818289 158.851213,78.4539927 157.904437,78.4539927" id="Fill-214" fill="#000000"></path>
                <path d="M83.236561,24.8715883 L76.5090209,24.8715883 C76.3771134,24.8715883 76.2704895,24.7645191 76.2704895,24.6324477 C76.2704895,24.500361 76.3771134,24.3935058 76.5090209,24.3935058 L83.236561,24.3935058 C83.3683618,24.3935058 83.4751077,24.500361 83.4751077,24.6324477 C83.4751077,24.7645191 83.3683618,24.8715883 83.236561,24.8715883" id="Fill-215" fill="#000000"></path>
                <path d="M163.295747,57.0222438 L141.545288,57.0222438 C141.413487,57.0222438 141.306528,56.9152968 141.306528,56.7831796 C141.306528,56.6511082 141.413487,56.5441307 141.545288,56.5441307 L163.295747,56.5441307 C163.427121,56.5441307 163.53408,56.6511082 163.53408,56.7831796 C163.53408,56.9152968 163.427121,57.0222438 163.295747,57.0222438" id="Fill-216" fill="#000000"></path>
                <path d="M144.217726,51.7157826 L137.762281,51.7157826 C137.630069,51.7157826 137.52375,51.6089273 137.52375,51.4768407 C137.52375,51.344647 137.630069,51.2377917 137.762281,51.2377917 L144.217726,51.2377917 C144.349298,51.2377917 144.456257,51.344647 144.456257,51.4768407 C144.456257,51.6089273 144.349298,51.7157826 144.217726,51.7157826" id="Fill-217" fill="#000000"></path>
                <path d="M138.5762,81.4481332 L132.12013,81.4481332 C131.988314,81.4481332 131.881584,81.3409417 131.881584,81.209069 C131.881584,81.0769976 131.988314,80.9700506 132.12013,80.9700506 L138.5762,80.9700506 C138.708001,80.9700506 138.814732,81.0769976 138.814732,81.209069 C138.814732,81.3409417 138.708001,81.4481332 138.5762,81.4481332" id="Fill-218" fill="#000000"></path>
                <path d="M31.0402751,24.8715883 L24.2605667,24.8715883 C24.1288727,24.8715883 24.0221268,24.7645191 24.0221268,24.6324477 C24.0221268,24.500361 24.1288727,24.3935058 24.2605667,24.3935058 L31.0402751,24.3935058 C31.1720759,24.3935058 31.2789438,24.500361 31.2789438,24.6324477 C31.2789438,24.7645191 31.1720759,24.8715883 31.0402751,24.8715883" id="Fill-219" fill="#000000"></path>
                <path d="M19.2195634,24.8715883 L15.2912674,24.8715883 C15.1592837,24.8715883 15.0526445,24.7645191 15.0526445,24.6324477 C15.0526445,24.500361 15.1592837,24.3935058 15.2912674,24.3935058 L19.2195634,24.3935058 C19.3515776,24.3935058 19.4580795,24.500361 19.4580795,24.6324477 C19.4580795,24.7645191 19.3515776,24.8715883 19.2195634,24.8715883" id="Fill-220" fill="#000000"></path>
                <path d="M129.890391,51.7157826 L125.961775,51.7157826 C125.830188,51.7157826 125.723457,51.6089273 125.723457,51.4768407 C125.723457,51.344647 125.830188,51.2377917 125.961775,51.2377917 L129.890391,51.2377917 C130.022375,51.2377917 130.128694,51.344647 130.128694,51.4768407 C130.128694,51.6089273 130.022375,51.7157826 129.890391,51.7157826" id="Fill-221" fill="#000000"></path>
                <path d="M35.3191308,75.0802532 L20.9210264,75.0802532 C20.7892257,75.0802532 20.682617,74.9735202 20.682617,74.8414335 C20.682617,74.7091176 20.7892257,74.6021707 20.9210264,74.6021707 L35.3191308,74.6021707 C35.4509315,74.6021707 35.5575402,74.7091176 35.5575402,74.8414335 C35.5575402,74.9735202 35.4509315,75.0802532 35.3191308,75.0802532" id="Fill-222" fill="#000000"></path>
                <path d="M35.3191308,80.6983048 L29.8816609,80.6983048 C29.7498602,80.6983048 29.6430228,80.5911133 29.6430228,80.4590419 C29.6430228,80.3271692 29.7498602,80.2199777 29.8816609,80.2199777 L35.3191308,80.2199777 C35.4509315,80.2199777 35.5575402,80.3271692 35.5575402,80.4590419 C35.5575402,80.5911133 35.4509315,80.6983048 35.3191308,80.6983048" id="Fill-223" fill="#000000"></path>
                <path d="M123.955024,59.2755481 L118.743231,59.2755481 C118.611674,59.2755481 118.50473,59.1686928 118.50473,59.0364839 C118.50473,58.9044125 118.611674,58.7973432 118.743231,58.7973432 L123.955024,58.7973432 C124.086596,58.7973432 124.193556,58.9044125 124.193556,59.0364839 C124.193556,59.1686928 124.086596,59.2755481 123.955024,59.2755481" id="Fill-224" fill="#000000"></path>
                <path d="M123.955024,64.5618608 L118.743231,64.5618608 C118.611674,64.5618608 118.50473,64.4548833 118.50473,64.3227966 C118.50473,64.1907252 118.611674,64.083656 118.743231,64.083656 L123.955024,64.083656 C124.086596,64.083656 124.193556,64.1907252 124.193556,64.3227966 C124.193556,64.4548833 124.086596,64.5618608 123.955024,64.5618608" id="Fill-225" fill="#000000"></path>
                <path d="M104.982849,35.7937124 L100.990491,35.7937124 C100.85869,35.7937124 100.751746,35.6867349 100.751746,35.5545718 C100.751746,35.4224851 100.85869,35.3155993 100.990491,35.3155993 L104.982849,35.3155993 C105.114421,35.3155993 105.221381,35.4224851 105.221381,35.5545718 C105.221381,35.6867349 105.114421,35.7937124 104.982849,35.7937124" id="Fill-226" fill="#000000"></path>
                <path d="M108.479977,24.0417667 L104.98327,24.0417667 C104.851256,24.0417667 104.744525,23.9350031 104.744525,23.8027942 C104.744525,23.6706006 104.851256,23.5636536 104.98327,23.5636536 L108.479977,23.5636536 C108.611991,23.5636536 108.718722,23.6706006 108.718722,23.8027942 C108.718722,23.9350031 108.611991,24.0417667 108.479977,24.0417667" id="Fill-227" fill="#000000"></path>
                <path d="M159.383362,92.1496161 L149.567129,92.1496161 C149.435115,92.1496161 149.328597,92.0424246 149.328597,91.9105519 C149.328597,91.7784805 149.435115,91.6715335 149.567129,91.6715335 L159.383362,91.6715335 C159.514721,91.6715335 159.621894,91.7784805 159.621894,91.9105519 C159.621894,92.0424246 159.514721,92.1496161 159.383362,92.1496161" id="Fill-228" fill="#000000"></path>
                <polygon id="Fill-229" fill="#000000" points="0 133.307521 48.3440571 133.307521 48.3440571 132.829438 0 132.829438"></polygon>
                <path d="M88.4793599,133.307518 L63.8375654,133.307518 C63.7056732,133.307518 63.5990492,133.200785 63.5990492,133.068469 C63.5990492,132.936397 63.7056732,132.829435 63.8375654,132.829435 L88.4793599,132.829435 C88.6110386,132.829435 88.7177998,132.936397 88.7177998,133.068469 C88.7177998,133.200785 88.6110386,133.307518 88.4793599,133.307518" id="Fill-230" fill="#000000"></path>
                <polygon id="Fill-231" fill="#000000" points="100.107446 133.307521 176.995867 133.307521 176.995867 132.829438 100.107446 132.829438"></polygon>
                <path d="M124.857943,38.8035602 L118.178438,38.8035602 C118.046866,38.8035602 117.940135,38.6967049 117.940135,38.5644196 C117.940135,38.4324246 118.046866,38.3254777 118.178438,38.3254777 L124.857943,38.3254777 C124.989728,38.3254777 125.09623,38.4324246 125.09623,38.5644196 C125.09623,38.6967049 124.989728,38.8035602 124.857943,38.8035602" id="Fill-232" fill="#000000"></path>
                <path d="M129.330348,38.8035602 L126.945065,38.8035602 C126.813051,38.8035602 126.706518,38.6967049 126.706518,38.5644196 C126.706518,38.4324246 126.813051,38.3254777 126.945065,38.3254777 L129.330348,38.3254777 C129.462363,38.3254777 129.56888,38.4324246 129.56888,38.5644196 C129.56888,38.6967049 129.462363,38.8035602 129.330348,38.8035602" id="Fill-233" fill="#000000"></path>
                <path d="M145.590561,69.5418984 L142.131855,69.5418984 C141.999872,69.5418984 141.893355,69.4349514 141.893355,69.3027578 C141.893355,69.1706711 141.999872,69.0638158 142.131855,69.0638158 L145.590561,69.0638158 C145.72256,69.0638158 145.829092,69.1706711 145.829092,69.3027578 C145.829092,69.4349514 145.72256,69.5418984 145.590561,69.5418984" id="Fill-234" fill="#000000"></path>
                <path d="M83.3222262,11.1030078 L79.5056627,11.1030078 C79.3737553,11.1030078 79.2671161,10.9959386 79.2671161,10.8638672 C79.2671161,10.7316582 79.3737553,10.6248947 79.5056627,10.6248947 L83.3222262,10.6248947 C83.4541337,10.6248947 83.5607728,10.7316582 83.5607728,10.8638672 C83.5607728,10.9959386 83.4541337,11.1030078 83.3222262,11.1030078" id="Fill-235" fill="#000000"></path>
                <path d="M87.317708,11.1030078 L84.9622371,11.1030078 C84.8303449,11.1030078 84.7235989,10.9959386 84.7235989,10.8638672 C84.7235989,10.7316582 84.8303449,10.6248947 84.9622371,10.6248947 L87.317708,10.6248947 C87.4496155,10.6248947 87.5562547,10.7316582 87.5562547,10.8638672 C87.5562547,10.9959386 87.4496155,11.1030078 87.317708,11.1030078" id="Fill-236" fill="#000000"></path>
                <path d="M26.6459554,46.2142311 L20.1392268,46.2142311 C20.0074414,46.2142311 19.9008022,46.1072536 19.9008022,45.9752892 C19.9008022,45.8430955 20.0074414,45.7362708 20.1392268,45.7362708 L26.6459554,45.7362708 C26.7777562,45.7362708 26.8844868,45.8430955 26.8844868,45.9752892 C26.8844868,46.1072536 26.7777562,46.2142311 26.6459554,46.2142311" id="Fill-237" fill="#000000"></path>
                <path d="M32.3047798,46.2142311 L29.2632985,46.2142311 C29.1316198,46.2142311 29.0248891,46.1072536 29.0248891,45.9752892 C29.0248891,45.8430955 29.1316198,45.7362708 29.2632985,45.7362708 L32.3047798,45.7362708 C32.4366873,45.7362708 32.5434179,45.8430955 32.5434179,45.9752892 C32.5434179,46.1072536 32.4366873,46.2142311 32.3047798,46.2142311" id="Fill-238" fill="#000000"></path>
            </g>
        </g>
    </g>
</svg>