<?xml version="1.0" encoding="utf-8"?>
<!-- Generator: Adobe Illustrator 19.2.1, SVG Export Plug-In . SVG Version: 6.00 Build 0)  -->
<svg version="1.1" id="Layer_1" xmlns="http://www.w3.org/2000/svg" xmlns:xlink="http://www.w3.org/1999/xlink" x="0px" y="0px"
	 viewBox="0 0 395.7 150.9" style="enable-background:new 0 0 395.7 150.9;" xml:space="preserve">
<style type="text/css">
	.st0{fill:none;stroke:#000000;stroke-miterlimit:10;}
</style>
<circle class="st0" cx="63.1" cy="72.9" r="55.9"/>
<path d="M88.2,21.2c-15.7-14.4-40-13.6-55.7,1.3c-0.7,0.7-1.4,1.3-2,2c-0.9,1-1.8,2-2.5,3.1l-3.1-3l-7.3-6.9l1.9,9l1.1,5.1l0.1,0.3
	l5.6,26.2l32.2-1.9L46.9,45.5c1.4-2.4,3.1-4.7,5.1-6.9c6-6.5,13.3-10.6,20.4-12c1.2-0.2,2.3-0.4,3.5-0.5c0.6,0,1.1-0.1,1.7-0.1
	c5.7-0.1,11,1.6,15,5.3c1.5,1.4,2.7,2.9,3.6,4.6c0.9,0.7,1.8,1.4,2.7,2.1C96.9,31.7,93.4,25.9,88.2,21.2z"/>
<path d="M113.5,127.2l-2.1-9.2l-0.5-2.1l-5.3-23.2l-32.2,2.5L85,105.9c-1.4,2.4-3.1,4.7-5,6.9c-5.6,6.3-12.5,10.4-19.3,12.1
	c-0.7,0.2-1.4,0.3-2.1,0.5c-2.2,0.4-4.4,0.6-6.6,0.4c-4.7-0.3-9.1-1.9-12.5-5c-1.7-1.6-3.1-3.4-4.2-5.4c-0.8-0.6-1.6-1.1-2.4-1.7
	c2.1,6.4,5.8,12.4,11.1,17.2c14.5,12.9,35.9,13.1,51.3,1.5c2.3-1.7,4.4-3.6,6.3-5.8c0.9-1,1.7-2.1,2.5-3.1l5.6,5.2l5,4.6
	L113.5,127.2z"/>
<path d="M31.6,73.2v28.3c0,2.6,2.1,4.7,4.7,4.7h15.9v-5.4H36.9v-33L31.6,73.2z"/>
<path d="M77,100.9h-2v5.4h3.7c0.5-0.8,1-1.6,1.5-2.4L77,100.9z"/>
<rect x="54.5" y="78.9" width="18.2" height="27.2"/>
<polygon points="90.3,67.9 90.3,91.6 95.6,91.2 95.6,73.3 "/>
<g>
	<polygon points="34.4,59.5 23.4,70.6 27.2,74.4 42.5,59 	"/>
	<path d="M67,33.7c-0.9-0.9-2.1-1.4-3.4-1.4c-1.3,0-2.5,0.5-3.4,1.4L49.7,44.2l3.9,3.7l10-10L100,74.4l3.8-3.8l0,0L67,33.7z"/>
</g>
<g>
	<g>
		<path d="M166.1,35.9c2.5,2.1,3.7,5.3,3.7,9.6c0,4.3-1.3,7.5-3.8,9.5c-2.5,2-6.4,3-11.7,3H148v10.5h-6V32.7h12.3
			C159.6,32.7,163.6,33.8,166.1,35.9z M161.8,50.6c1.2-1.3,1.8-3.2,1.8-5.6c0-2.5-0.8-4.2-2.3-5.2c-1.5-1-3.9-1.5-7.2-1.5H148v14.3
			h7C158.3,52.5,160.6,51.9,161.8,50.6z"/>
		<path d="M199.5,32.7v5.7h-19.1v9.5h17.2v5.4h-17.2v9.6h19.7v5.7h-25.8V32.7H199.5z"/>
		<path d="M233.9,44.4c0,5.9-2.6,9.6-7.7,11.2l9.4,13h-7.7l-8.5-12h-7.9v12h-6V32.7h13.3c5.5,0,9.4,0.9,11.7,2.8
			C232.7,37.3,233.9,40.3,233.9,44.4z M225.8,49.4c1.2-1.1,1.8-2.8,1.8-5.1c0-2.3-0.6-3.9-1.9-4.8c-1.3-0.9-3.5-1.3-6.8-1.3h-7.7V51
			h7.5C222.3,51,224.6,50.5,225.8,49.4z"/>
		<path d="M246.1,68.5h-6V32.7h9.4l10.8,22.5L271,32.7h9.4v35.8h-6v-28l-12.5,24.8h-3.4l-12.4-24.8V68.5z"/>
		<path d="M295.8,60.3c1.6,1.9,3.9,2.9,6.7,2.9c2.8,0,5-1,6.7-2.9c1.6-1.9,2.5-4.5,2.5-7.8V32.7h6v20.1c0,5.2-1.4,9.1-4.2,11.9
			c-2.8,2.8-6.5,4.2-10.9,4.2c-4.4,0-8.1-1.4-10.9-4.2c-2.8-2.8-4.3-6.8-4.3-11.9V32.7h6v19.8C293.4,55.8,294.2,58.4,295.8,60.3z"/>
		<path d="M338.1,38.3v30.3h-6V38.3h-10.9v-5.5h27.7v5.5H338.1z"/>
		<path d="M355.2,60.4l-3.6,8.1h-6.5l15.8-35.8h6.5l15.8,35.8h-6.5l-3.6-8.1H355.2z M370.6,54.8l-6.5-14.7l-6.5,14.7H370.6z"/>
		<path d="M147.1,86.1v9.1h14.7v5.2h-14.7v13.6h-5.6V80.9h22.1l0,5.2H147.1z"/>
		<path d="M172.5,106.5l-3.3,7.5h-6l14.6-33.1h6l14.6,33.1h-6l-3.3-7.5H172.5z M186.8,101.4l-6-13.7l-6,13.7H186.8z M183.4,78.1
			h-4.8l5-6.9l5.6,2.3L183.4,78.1z"/>
		<path d="M215.7,109c1.9,0,3.6-0.3,5-1c1.4-0.6,2.8-1.7,4.4-3.1l3.6,3.7c-3.5,3.9-7.8,5.8-12.8,5.8c-5,0-9.2-1.6-12.5-4.8
			c-3.3-3.2-5-7.3-5-12.2c0-4.9,1.7-9,5-12.3c3.4-3.3,7.6-4.9,12.8-4.9c5.1,0,9.4,1.9,12.9,5.7l-3.6,3.9c-1.6-1.5-3.1-2.6-4.5-3.2
			c-1.4-0.6-3.1-0.9-5-0.9c-3.3,0-6.2,1.1-8.4,3.3c-2.3,2.2-3.4,4.9-3.4,8.3c0,3.4,1.1,6.2,3.4,8.4C210,107.9,212.6,109,215.7,109z"
			/>
		<path d="M233.1,80.9h5.6v33.1h-5.6V80.9z"/>
		<path d="M245.5,114.1V80.9h5.6v27.8h15.1v5.3H245.5z"/>
	</g>
</g>
</svg>
