<?xml version="1.0" encoding="UTF-8" standalone="no"?>
<svg width="224px" height="49px" viewBox="0 0 224 49" version="1.1" xmlns="http://www.w3.org/2000/svg" xmlns:xlink="http://www.w3.org/1999/xlink">
    <!-- Generator: Sketch 41.2 (35397) - http://www.bohemiancoding.com/sketch -->
    <title>Page 1</title>
    <desc>Created with Sketch.</desc>
    <defs>
        <polygon id="path-1" points="0 41.9737575 0 0.0160879828 41.910379 0.0160879828 41.910379 41.9737575 1.38838612e-16 41.9737575"></polygon>
        <polygon id="path-3" points="0 48.9776381 223.984385 48.9776381 223.984385 0 0 0"></polygon>
    </defs>
    <g id="Telas" stroke="none" stroke-width="1" fill="none" fill-rule="evenodd">
        <g id="Home" transform="translate(-44.000000, -41.000000)">
            <g id="Page-1" transform="translate(44.000000, 41.000000)">
                <g id="Group-3" transform="translate(0.000000, 2.290943)">
                    <mask id="mask-2" fill="white">
                        <use xlink:href="#path-1"></use>
                    </mask>
                    <g id="Clip-2"></g>
                    <path d="M20.9551405,0.0160879828 C9.38199387,0.0160879828 -2.80087515e-05,9.40880615 -2.80087515e-05,20.9949578 C-2.80087515e-05,32.5813197 9.38199387,41.9737575 20.9551405,41.9737575 C32.5284271,41.9737575 41.910379,32.5813197 41.910379,20.9949578 C41.910379,9.40880615 32.5284271,0.0160879828 20.9551405,0.0160879828" id="Fill-1" fill="#D6D6D6" mask="url(#mask-2)"></path>
                </g>
                <path d="M31.152112,33.8090326 L25.4241821,33.8090326 L25.4241821,35.8159296 L31.3811536,35.8159296 C32.3601295,35.8159296 33.1569085,35.0184003 33.1569085,34.0384704 L33.1569085,23.4340712 L31.152112,21.4252815 L31.152112,33.8090326 Z M21.1574687,8.07078369 C20.6805497,8.07078369 20.2338101,8.25591817 19.8970048,8.59295966 L6.07790635,22.4368967 L7.50474223,23.8648366 L21.1564184,10.1873874 L34.8079545,23.8648366 L36.2257575,22.4457994 L36.2345103,22.4368967 L22.4180026,8.59527296 C22.0869392,8.26208698 21.6272455,8.07078369 21.1574687,8.07078369 L21.1574687,8.07078369 Z M11.1636656,21.4224775 L9.1593593,23.4309868 L9.1593593,34.0384704 C9.1593593,35.0184003 9.95417768,35.8159296 10.9320333,35.8159296 L16.889495,35.8159296 L16.889495,33.8090326 L11.1636656,33.8090326 L11.1636656,21.4224775 Z M17.7544053,35.7693831 L24.5605322,35.7693831 L24.5605322,25.5605591 L17.7544053,25.5605591 L17.7544053,35.7693831 Z" id="Fill-4" fill="#333333"></path>
                <path d="M30.3897698,3.88763476 C24.5229864,-1.51785737 15.3894022,-1.22448827 9.5084744,4.38170057 C9.25044376,4.62740157 8.9958442,4.87983219 8.75188796,5.14614263 C8.40906083,5.51858469 8.09592298,5.90630858 7.79664945,6.30048169 L6.61895142,5.18595951 L3.87157287,2.58636581 L4.59314836,5.97458612 L4.99892516,7.8766133 L5.02189234,7.98561903 L7.1174372,17.8120468 L19.1938311,17.0831455 L14.9103125,13.0296047 C15.4488508,12.1370196 16.0853497,11.2710725 16.835214,10.454476 C19.0664613,8.02746881 21.8118092,6.48785937 24.479993,5.93638155 C24.9188201,5.84644306 25.3558267,5.77928712 25.7877917,5.74311545 C26.0026188,5.72481931 26.2156954,5.7159166 26.4281418,5.71093948 C28.556947,5.66474349 30.537516,6.30167339 32.0401155,7.68629142 C32.5927282,8.19563906 33.0447895,8.77992375 33.4064525,9.41979785 C33.7445882,9.67377067 34.0756516,9.93622561 34.4008333,10.2067421 C33.648028,7.85249886 32.3202031,5.66523419 30.3897698,3.88763476" id="Fill-6" fill="#EC1A3D"></path>
                <path d="M39.8647107,43.6849371 L39.0727632,40.2454034 L38.8932972,39.4634363 L36.892772,30.7760658 L24.8289821,31.7011073 L29.1785313,35.6836366 C28.6546976,36.5851245 28.0325532,37.4619371 27.2957129,38.2885579 C25.2004481,40.6433619 22.6231527,42.1941874 20.0781374,42.8455579 C19.8166057,42.9115923 19.5564044,42.9676023 19.2965532,43.0155508 C18.4614022,43.1699113 17.6359142,43.2273934 16.8375947,43.1790944 C15.0683519,43.0712103 13.4350915,42.4614092 12.1378661,41.3035651 C11.4834416,40.7208927 10.976063,40.0264807 10.5802993,39.2645622 C10.271853,39.0557339 9.96872823,38.8391946 9.66980481,38.6173276 C10.4498486,41.0370443 11.8339011,43.2777253 13.8491309,45.0751631 C19.2688945,49.9094092 27.3198705,49.9786681 33.088063,45.6517368 C33.9344175,45.0174707 34.7321768,44.2897611 35.4643256,43.4660143 C35.8007107,43.0876838 36.1073365,42.6953333 36.3995379,42.2973047 L38.5148989,44.2334707 L40.3853234,45.9463677 L39.8647107,43.6849371 Z" id="Fill-8" fill="#EC1A3D"></path>
                <path d="M61.248119,15.2896614 C59.9335982,15.2896614 58.9270337,15.3214868 58.2274451,15.3851378 L58.2274451,24.0434868 L60.5486004,24.0434868 C61.6083816,24.0434868 62.5622897,23.9748588 63.4103247,23.8366213 C64.2578696,23.6988044 64.9732832,23.4655813 65.5565654,23.1363209 C66.1393575,22.8074811 66.5899484,22.3563867 66.9079177,21.7834582 C67.2258871,21.2104597 67.3849068,20.4783338 67.3849068,19.5870104 C67.3849068,18.7384482 67.2204254,18.0381478 66.8920928,17.4860391 C66.56313,16.9344911 66.1180009,16.4943323 65.5565654,16.1650019 C64.9947098,15.8363023 64.3428061,15.6079861 63.6011344,15.4806843 C62.8588324,15.3533123 62.0748674,15.2896614 61.248119,15.2896614 M60.9937295,12.583866 C64.0884166,12.583866 66.4677602,13.1728474 68.1321103,14.3505999 C69.7959702,15.5283524 70.6281103,17.2846413 70.6281103,19.6188359 C70.6281103,20.8921349 70.400049,21.9798788 69.9444867,22.8816471 C69.4884341,23.783906 68.8316289,24.5159618 67.9730906,25.0780247 C67.1146223,25.6405784 66.070246,26.0489117 64.8411519,26.3035856 C63.6114976,26.5582594 62.2228937,26.6855612 60.6757602,26.6855612 L58.2274451,26.6855612 L58.2274451,34.8664582 L55.1431212,34.8664582 L55.1431212,13.1250391 C56.0121628,12.9131964 56.9818958,12.7699818 58.0525304,12.6953252 C59.1226748,12.6212293 60.1034013,12.583866 60.9937295,12.583866" id="Fill-10" fill="#FFFFFF"></path>
                <path d="M82.1063002,24.9984611 C82.1272368,23.6615112 81.7933024,22.5633223 81.1047072,21.7038245 C80.4156219,20.8443266 79.4672455,20.4146127 78.2589479,20.4146127 C77.5802258,20.4146127 76.9816088,20.5474525 76.4623965,20.8125011 C75.9427641,21.0781106 75.5030267,21.422793 75.1429042,21.8471092 C74.7821514,22.2718459 74.5015037,22.7597429 74.3002608,23.3113609 C74.0985978,23.8634697 73.9663965,24.4254625 73.9028166,24.9984611 L82.1063002,24.9984611 Z M70.7549829,26.6219103 C70.7549829,25.1576585 70.9665891,23.8793824 71.3909217,22.7861006 C71.8146241,21.6934496 72.3765497,20.7861435 73.0760683,20.0644625 C73.7755869,19.3432722 74.5809085,18.8020991 75.4926635,18.4410133 C76.4038582,18.0804182 77.3368298,17.8998402 78.2907379,17.8998402 C80.5165234,17.8998402 82.2226066,18.5952336 83.4099676,19.9848288 C84.5969085,21.3751249 85.1906241,23.4919389 85.1906241,26.335411 L85.1906241,26.8287758 C85.1906241,27.0307343 85.1797007,27.2162894 85.1588341,27.3858617 L73.8392368,27.3858617 C73.9663965,29.1047873 74.4641821,30.4099117 75.3336438,31.3012351 C76.2025453,32.1925584 77.5593593,32.6381149 79.4035956,32.6381149 C80.4419501,32.6381149 81.3163834,32.5481063 82.0268254,32.3675984 C82.7367772,32.1875813 83.2718845,32.0124711 83.6325672,31.8424082 L84.0459063,34.3252851 C83.6852236,34.5162379 83.0547466,34.7181964 82.1540551,34.9301092 C81.2528035,35.1419518 80.230344,35.2484339 79.0856263,35.2484339 C77.6438757,35.2484339 76.3988166,35.0305627 75.3495387,34.5958717 C74.3002608,34.1611106 73.4363309,33.5612637 72.7580989,32.7973123 C72.0795168,32.0333609 71.5761996,31.1261249 71.2477969,30.0756742 C70.9188341,29.0252236 70.7549829,27.8742494 70.7549829,26.6219103 L70.7549829,26.6219103 Z" id="Fill-12" fill="#FFFFFF"></path>
                <path d="M93.9661864,17.9635262 C94.2205759,17.9635262 94.5117269,17.979509 94.8406197,18.0113345 C95.1690223,18.0431599 95.4924534,18.085921 95.8104228,18.1386363 C96.1283921,18.1918423 96.4194731,18.2451185 96.684786,18.2978338 C96.9496088,18.3509697 97.1458801,18.398778 97.2731098,18.4410484 L96.7643309,21.0194718 C96.5308079,20.934931 96.1442171,20.8339167 95.6037182,20.7169897 C95.0632193,20.6006235 94.3686022,20.5419496 93.5210573,20.5419496 C92.969635,20.5419496 92.4240945,20.6006235 91.8835256,20.7169897 C91.3429567,20.8339167 90.9877357,20.9134804 90.8183527,20.9558209 L90.8183527,34.8664232 L87.8611886,34.8664232 L87.8611886,19.0139768 C88.5607772,18.7593731 89.4297488,18.520612 90.4685934,18.2978338 C91.5069479,18.0749854 92.6729523,17.9635262 93.9661864,17.9635262" id="Fill-14" fill="#FFFFFF"></path>
                <path d="M98.5444131,18.7911775 C99.2226451,18.6216053 100.118435,18.4410273 101.231223,18.2500044 C102.344151,18.0590516 103.631853,17.9635052 105.09454,17.9635052 C106.154321,17.9635052 107.044579,18.1067898 107.765455,18.3932891 C108.48591,18.6797884 109.089989,19.0991275 109.577831,19.6506754 C109.725857,19.544684 109.95938,19.3960016 110.27735,19.2049787 C110.595319,19.0140259 110.987372,18.8284708 111.453857,18.6479629 C111.919853,18.4679458 112.439555,18.3087484 113.011914,18.1705109 C113.584273,18.032694 114.198785,17.9635052 114.856081,17.9635052 C116.127958,17.9635052 117.166312,18.149621 117.972194,18.5206611 C118.777516,18.8921217 119.407993,19.4173821 119.864046,20.096302 C120.319608,20.7757827 120.627214,21.5820044 120.786164,22.515528 C120.945183,23.4496124 121.024588,24.4682376 121.024588,25.5714737 L121.024588,34.8664021 L118.067564,34.8664021 L118.067564,26.2081232 C118.067564,25.2322591 118.019809,24.3936511 117.924439,23.6933506 C117.82907,22.9929801 117.648693,22.4096067 117.38387,21.9425996 C117.118558,21.4760831 116.758435,21.1308399 116.302803,20.9079916 C115.84675,20.6852133 115.258496,20.5738242 114.538111,20.5738242 C113.54149,20.5738242 112.720273,20.7065938 112.073831,20.9716425 C111.427039,21.237322 110.987372,21.4760831 110.754339,21.6879258 C110.923722,22.2399644 111.050951,22.8447884 111.135888,23.5023278 C111.220334,24.1604279 111.263048,24.8502834 111.263048,25.5714737 L111.263048,34.8664021 L108.306024,34.8664021 L108.306024,26.2081232 C108.306024,25.2322591 108.252807,24.3936511 108.147074,23.6933506 C108.040711,22.9929801 107.855433,22.4096067 107.59054,21.9425996 C107.325227,21.4760831 106.965105,21.1308399 106.509472,20.9079916 C106.05342,20.6852133 105.476089,20.5738242 104.776571,20.5738242 C104.479468,20.5738242 104.161568,20.5847598 103.822663,20.6056496 C103.483337,20.6269601 103.159905,20.6533177 102.85286,20.6852133 C102.545393,20.7170388 102.264676,20.754332 102.010286,20.7966024 C101.755897,20.8394336 101.586024,20.8712591 101.501507,20.8921489 L101.501507,34.8664021 L98.5444131,34.8664021 L98.5444131,18.7911775 Z" id="Fill-16" fill="#FFFFFF"></path>
                <path d="M137.495079,34.3889361 C136.816427,34.5590691 135.921127,34.7390863 134.80827,34.9301092 C133.695342,35.1210619 132.407639,35.2166084 130.944952,35.2166084 C129.673075,35.2166084 128.60244,35.0305627 127.733539,34.6595226 C126.864077,34.2884124 126.164558,33.7632222 125.634913,33.0838116 C125.104847,32.4048917 124.723298,31.6036471 124.490195,30.6804983 C124.256742,29.7574196 124.140506,28.7337472 124.140506,27.6086399 L124.140506,18.3137114 L127.0976,18.3137114 L127.0976,26.9720605 C127.0976,28.988421 127.415569,30.4312923 128.051508,31.3012351 C128.687447,32.1715984 129.757591,32.6062894 131.262922,32.6062894 C131.580891,32.6062894 131.909364,32.5959146 132.24862,32.5744639 C132.587456,32.5535741 132.905425,32.5267959 133.202528,32.4949003 C133.49914,32.4630748 133.769425,32.4312494 134.013311,32.3994239 C134.256777,32.3675984 134.431692,32.3307959 134.537985,32.2880348 L134.537985,18.3137114 L137.495079,18.3137114 L137.495079,34.3889361 Z" id="Fill-18" fill="#FFFFFF"></path>
                <path d="M143.758684,18.3136834 L150.022631,18.3136834 L150.022631,20.7966305 L143.758684,20.7966305 L143.758684,28.4362843 C143.758684,29.2639567 143.822263,29.9483443 143.949493,30.4894474 C144.076653,31.0306205 144.267463,31.4554273 144.521782,31.7627464 C144.776172,32.0706262 145.094141,32.2880768 145.47569,32.4153086 C145.857309,32.5426104 146.302368,32.6063315 146.811147,32.6063315 C147.701476,32.6063315 148.416889,32.505878 148.957388,32.3039195 C149.497957,32.1024516 149.874045,31.9592371 150.086211,31.8742056 L150.65857,34.3252571 C150.361467,34.4739395 149.842255,34.6595647 149.100513,34.8822728 C148.358281,35.1051212 147.510666,35.2165804 146.556758,35.2165804 C145.432977,35.2165804 144.505887,35.0732957 143.774579,34.7868665 C143.04327,34.5003672 142.455016,34.0705833 142.009817,33.4976548 C141.564688,32.9246562 141.25169,32.2193787 141.071874,31.3807707 C140.891568,30.5427235 140.80166,29.5718365 140.80166,28.4681097 L140.80166,13.6980096 L143.758684,13.188732 L143.758684,18.3136834 Z" id="Fill-20" fill="#FFFFFF"></path>
                <path d="M157.780705,32.7336403 C158.480224,32.7336403 159.100338,32.7177276 159.640837,32.6859021 C160.181336,32.6540767 160.631506,32.5958936 160.992189,32.510792 L160.992189,27.5768635 C160.780023,27.4709422 160.435725,27.3809336 159.958736,27.306277 C159.481887,27.2321811 158.904067,27.1948878 158.225835,27.1948878 C157.780705,27.1948878 157.308758,27.2267133 156.810902,27.2904343 C156.312627,27.3540152 155.856994,27.4867848 155.443655,27.6882526 C155.030316,27.8902112 154.685528,28.1657748 154.410272,28.515925 C154.134596,28.8660753 153.996933,29.3276146 153.996933,29.9006132 C153.996933,30.9620695 154.335769,31.6991024 155.014421,32.1129737 C155.692583,32.5267748 156.614701,32.7336403 157.780705,32.7336403 M157.526316,17.8998893 C158.713257,17.8998893 159.71485,18.0541096 160.531095,18.3614987 C161.34692,18.6693084 162.004215,19.1044901 162.502561,19.6666232 C163.000347,20.2291067 163.355568,20.8975817 163.567734,21.671978 C163.77934,22.4469351 163.885703,23.300895 163.885703,24.2344887 L163.885703,34.5799379 C163.631314,34.622699 163.276023,34.6808821 162.82053,34.7550481 C162.364408,34.8295645 161.850727,34.8982627 161.278368,34.9619136 C160.70601,35.0255645 160.085966,35.0837476 159.418307,35.1369536 C158.750579,35.1897391 158.087751,35.2165874 157.430946,35.2165874 C156.497975,35.2165874 155.639436,35.121111 154.855471,34.9300881 C154.071016,34.7390652 153.392784,34.4367233 152.820425,34.0229222 C152.248067,33.6090509 151.803007,33.0629007 151.485038,32.3834901 C151.167069,31.7045702 151.008049,30.8874129 151.008049,29.9324386 C151.008049,29.0202255 151.193397,28.2348936 151.564513,27.5768635 C151.935139,26.9193242 152.438876,26.388596 153.074815,25.9852398 C153.710754,25.5823742 154.452565,25.2849393 155.3006,25.0939866 C156.148215,24.9029637 157.038474,24.8074873 157.971515,24.8074873 C158.268128,24.8074873 158.575664,24.8233299 158.893633,24.8551554 C159.211603,24.8869808 159.513677,24.929812 159.799786,24.9825273 C160.085966,25.0357333 160.334894,25.0834715 160.54706,25.125812 C160.758666,25.1685731 160.907182,25.2003986 160.992189,25.2212884 L160.992189,24.393616 C160.992189,23.905719 160.938972,23.4227991 160.833239,22.945277 C160.726876,22.4678249 160.536137,22.0435087 160.260881,21.671978 C159.985134,21.3009379 159.609047,21.003503 159.132128,20.7806546 C158.655139,20.5578764 158.035095,20.4464873 157.271926,20.4464873 C156.296732,20.4464873 155.443655,20.515606 154.712347,20.6533528 C153.981038,20.7916604 153.435007,20.9349451 153.074815,21.0831368 L152.725056,18.6320152 C153.106605,18.4624429 153.742544,18.2977777 154.632872,18.1386504 C155.5232,17.9794529 156.487471,17.8998893 157.526316,17.8998893" id="Fill-22" fill="#FFFFFF"></path>
                <polygon id="Fill-24" fill="#FFFFFF" points="170.280977 34.8664232 170.280977 12.8067494 183.57197 12.8067494 183.57197 15.4488237 173.365301 15.4488237 173.365301 22.1017479 182.427323 22.1017479 182.427323 24.7119969 173.365301 24.7119969 173.365301 34.8664232"></polygon>
                <path d="M193.619529,12.042805 L189.136168,16.403805 L187.641761,15.0668551 L191.711713,10.164682 L193.619529,12.042805 Z M189.549507,32.7336333 C190.249026,32.7336333 190.86914,32.7177907 191.409639,32.6858951 C191.950137,32.6540697 192.400308,32.5958866 192.760991,32.510785 L192.760991,27.5768565 C192.548825,27.4709352 192.204527,27.3809266 191.727538,27.30627 C191.250689,27.2321741 190.672868,27.1948808 189.994636,27.1948808 C189.549507,27.1948808 189.07756,27.2267764 188.579704,27.2904273 C188.081428,27.3540082 187.625796,27.4867778 187.212457,27.6882456 C186.799118,27.8902041 186.45433,28.1657678 186.179074,28.515918 C185.903398,28.8660682 185.765735,29.3276076 185.765735,29.9006062 C185.765735,30.9620625 186.104571,31.6990954 186.783223,32.1129667 C187.461385,32.5267678 188.383503,32.7336333 189.549507,32.7336333 L189.549507,32.7336333 Z M189.295118,17.8998823 C190.482059,17.8998823 191.483652,18.0541026 192.299897,18.3614917 C193.115722,18.6693014 193.773017,19.1044831 194.271363,19.6666162 C194.769148,20.2290997 195.124369,20.8975747 195.336536,21.671971 C195.548142,22.446928 195.654505,23.3009581 195.654505,24.2344817 L195.654505,34.5799309 C195.400116,34.622692 195.044825,34.6808751 194.589332,34.7550411 C194.13321,34.8296276 193.619529,34.8982557 193.04717,34.9619066 C192.474811,35.0255575 191.854768,35.0838107 191.187109,35.1369466 C190.51938,35.189732 189.856553,35.2165804 189.199748,35.2165804 C188.266776,35.2165804 187.408238,35.121104 186.624273,34.9300811 C185.839818,34.7391283 185.161586,34.4367163 184.589227,34.0229152 C184.016868,33.6090439 183.571809,33.0628937 183.25384,32.3834831 C182.93587,31.7045632 182.776851,30.8874059 182.776851,29.9324316 C182.776851,29.0202185 182.962199,28.2348866 183.333315,27.5768565 C183.70394,26.9193172 184.207678,26.388589 184.843617,25.9853029 C185.479555,25.5823672 186.221367,25.2849323 187.069402,25.0939795 C187.917017,24.9029567 188.807275,24.8074803 189.740317,24.8074803 C190.03693,24.8074803 190.344466,24.8233229 190.662435,24.8551484 C190.980404,24.8870439 191.282479,24.929805 191.568588,24.9825203 C191.854768,25.0357964 192.103695,25.0834645 192.315862,25.125805 C192.527468,25.1685661 192.675984,25.2003916 192.760991,25.2212814 L192.760991,24.393609 C192.760991,23.9057821 192.707774,23.4227921 192.602041,22.94527 C192.495678,22.4678179 192.304938,22.0435017 192.029682,21.671971 C191.753936,21.3009309 191.377849,21.003496 190.90093,20.7806476 C190.42394,20.5578694 189.803897,20.4464803 189.040728,20.4464803 C188.065533,20.4464803 187.212457,20.515599 186.481148,20.6533458 C185.74984,20.7916534 185.203809,20.9349381 184.843617,21.0831298 L184.493857,18.6320082 C184.875407,18.4624359 185.511345,18.2977707 186.401674,18.1386433 C187.292002,17.9794459 188.256273,17.8998823 189.295118,17.8998823 L189.295118,17.8998823 Z" id="Fill-26" fill="#FFFFFF"></path>
                <path d="M206.146948,35.2484129 C204.811491,35.2484129 203.639954,35.0360795 202.63339,34.6117634 C201.626335,34.1875173 200.7783,33.5931382 200.089705,32.8291167 C199.40055,32.0652355 198.886449,31.1579293 198.547613,30.1074787 C198.208217,29.0570981 198.038834,27.8951883 198.038834,26.6218893 C198.038834,25.3485903 198.224182,24.1817734 198.595228,23.120317 C198.965854,22.0594215 199.490528,21.1418106 200.16918,20.3668535 C200.847342,19.5924572 201.679482,18.9876332 202.66518,18.5524515 C203.650948,18.1177605 204.747911,17.8998893 205.956138,17.8998893 C206.69795,17.8998893 207.439692,17.9635402 208.181924,18.0908421 C208.923666,18.218214 209.633688,18.4201024 210.31227,18.6956661 L209.644541,21.2104386 C209.199412,20.998596 208.685241,20.8284629 208.102449,20.7011611 C207.519167,20.5737891 206.899123,20.5101382 206.242318,20.5101382 C204.588891,20.5101382 203.321985,21.0304215 202.44265,22.0699365 C201.562755,23.1099422 201.123088,24.6274 201.123088,26.6218893 C201.123088,27.5131425 201.223499,28.33037 201.425162,29.0729408 C201.626335,29.8160724 201.944305,30.4527219 202.379,30.9828893 C202.813276,31.5136175 203.36974,31.9219508 204.048322,32.2084501 C204.726554,32.4949494 205.553232,32.6381639 206.528497,32.6381639 C207.312532,32.6381639 208.022974,32.5640681 208.658913,32.4153156 C209.294782,32.2671239 209.792567,32.1079265 210.15332,31.9378635 L210.566659,34.4207405 C210.396716,34.5272226 210.15332,34.6277462 209.835351,34.7232226 C209.517381,34.818699 209.156698,34.9032398 208.754283,34.9778263 C208.351307,35.0519222 207.922143,35.1155731 207.46651,35.1687791 C207.010458,35.2215645 206.57079,35.2484129 206.146948,35.2484129" id="Fill-28" fill="#FFFFFF"></path>
                <mask id="mask-4" fill="white">
                    <use xlink:href="#path-3"></use>
                </mask>
                <g id="Clip-31"></g>
                <path d="M212.156429,34.8664092 L215.113523,34.8664092 L215.113523,18.3136624 L212.156429,18.3136624 L212.156429,34.8664092 Z M213.619046,15.3215079 C213.08898,15.3215079 212.638319,15.1463977 212.267694,14.7962475 C211.896578,14.4460973 211.7113,13.974113 211.7113,13.3797339 C211.7113,12.7858455 211.896578,12.3133705 212.267694,11.9632203 C212.638319,11.613 213.08898,11.4379599 213.619046,11.4379599 C214.148691,11.4379599 214.599282,11.613 214.970398,11.9632203 C215.341094,12.3133705 215.526862,12.7858455 215.526862,13.3797339 C215.526862,13.974113 215.341094,14.4460973 214.970398,14.7962475 C214.599282,15.1463977 214.148691,15.3215079 213.619046,15.3215079 L213.619046,15.3215079 Z" id="Fill-30" fill="#FFFFFF" mask="url(#mask-4)"></path>
                <path d="M223.571116,35.1847479 C221.747746,35.1419868 220.455002,34.7500569 219.691904,34.0069253 C218.928735,33.2643545 218.547256,32.1079124 218.547256,30.5372486 L218.547256,10.6740226 L221.50428,10.164675 L221.50428,30.0597966 C221.50428,30.5481843 221.546503,30.9510498 221.63151,31.2693745 C221.715956,31.5876993 221.854109,31.8423731 222.044849,32.033396 C222.235659,32.2244189 222.490048,32.3675634 222.808018,32.4631099 C223.125987,32.5585863 223.517899,32.6381499 223.984385,32.7018009 L223.571116,35.1847479 Z" id="Fill-32" fill="#FFFFFF" mask="url(#mask-4)"></path>
                <polygon id="Fill-33" fill="#000000" mask="url(#mask-4)" points="180.642521 48.8032289 181.629969 48.8032289 181.629969 38.7292074 180.642521 38.7292074"></polygon>
                <path d="M183.459312,41.5493502 C183.73996,41.4718896 184.105544,41.3846149 184.555575,41.2875963 C185.005745,41.1909282 185.588818,41.1422787 186.305421,41.1422787 C187.253938,41.1422787 187.941203,41.4184732 188.367286,41.9709325 C188.415601,41.9323073 188.50999,41.8668338 188.650454,41.774582 C188.790638,41.6825405 188.967373,41.5881156 189.18045,41.4911671 C189.393246,41.3943588 189.642594,41.311921 189.928284,41.2440641 C190.213693,41.1764175 190.530822,41.1422787 190.879391,41.1422787 C191.450419,41.1422787 191.912634,41.22717 192.266034,41.3966721 C192.619295,41.5663144 192.89273,41.8037436 193.086481,42.1088896 C193.280021,42.4142458 193.410682,42.7802386 193.478533,43.2064475 C193.546174,43.633077 193.580205,44.0982615 193.580205,44.6020011 L193.580205,48.8032429 L192.63638,48.8032429 L192.63638,44.9072873 C192.63638,44.4130813 192.614533,43.9842086 192.570979,43.6207393 C192.527426,43.2573402 192.440319,42.9571013 192.309658,42.7195319 C192.178927,42.4821728 191.992459,42.3029268 191.750603,42.1816535 C191.508467,42.0605906 191.193789,41.9999539 190.806778,41.9999539 C190.516327,41.9999539 190.252485,42.0268023 190.015391,42.0798681 C189.778017,42.1332844 189.572502,42.1987579 189.398218,42.2760784 C189.224004,42.3538896 189.081019,42.43121 188.969894,42.5087408 C188.858489,42.5863416 188.778664,42.6445247 188.730279,42.6831499 C188.817456,42.9353001 188.882787,43.218715 188.92634,43.5335348 C188.969894,43.8485648 188.991671,44.1804189 188.991671,44.5293073 L188.991671,48.8032429 L188.047776,48.8032429 L188.047776,44.9072873 C188.047776,44.4130813 188.026069,43.9842086 187.982516,43.6207393 C187.938962,43.2573402 187.849264,42.9571013 187.713842,42.7195319 C187.578139,42.4821728 187.387189,42.3029268 187.140292,42.1816535 C186.893465,42.0605906 186.566743,41.9999539 186.160126,41.9999539 C185.704984,41.9999539 185.320214,42.0241385 185.005745,42.0726478 C184.691067,42.1212272 184.490314,42.1647594 184.403137,42.2033845 L184.403137,48.8032429 L183.459312,48.8032429 L183.459312,41.5493502 Z" id="Fill-34" fill="#000000" mask="url(#mask-4)"></path>
                <path d="M200.245007,38.3076322 L197.761961,40.3281987 L197.282801,39.7757395 L199.577068,37.5662531 L200.245007,38.3076322 Z M200.666118,45.0527381 C200.666118,44.1128353 200.44828,43.3641658 200.012674,42.8067996 C199.577068,42.2495034 198.986433,41.9709255 198.24119,41.9709255 C197.495597,41.9709255 196.905313,42.2495034 196.469637,42.8067996 C196.034031,43.3641658 195.816193,44.1128353 195.816193,45.0527381 C195.816193,45.992781 196.034031,46.7389269 196.469637,47.2913861 C196.905313,47.8437052 197.495597,48.1200399 198.24119,48.1200399 C198.986433,48.1200399 199.577068,47.8437052 200.012674,47.2913861 C200.44828,46.7389269 200.666118,45.992781 200.666118,45.0527381 L200.666118,45.0527381 Z M201.667991,45.0527381 C201.667991,45.6438926 201.583125,46.1817009 201.413882,46.666233 C201.244429,47.1509054 201.007335,47.5627438 200.702389,47.9018883 C200.397514,48.241173 200.036691,48.5051701 199.620621,48.69409 C199.204271,48.8831501 198.744368,48.9776451 198.24119,48.9776451 C197.737663,48.9776451 197.277829,48.8831501 196.861689,48.69409 C196.445339,48.5051701 196.084867,48.241173 195.779851,47.9018883 C195.474976,47.5627438 195.237672,47.1509054 195.068359,46.666233 C194.898906,46.1817009 194.814249,45.6438926 194.814249,45.0527381 C194.814249,44.4616536 194.898906,43.9238454 195.068359,43.4390328 C195.237672,42.9546408 195.474976,42.5403489 195.779851,42.1961572 C196.084867,41.852316 196.445339,41.5856551 196.861689,41.3966651 C197.277829,41.207605 197.737663,41.11311 198.24119,41.11311 C198.744368,41.11311 199.204271,41.207605 199.620621,41.3966651 C200.036691,41.5856551 200.397514,41.852316 200.702389,42.1961572 C201.007335,42.5403489 201.244429,42.9546408 201.413882,43.4390328 C201.583125,43.9238454 201.667991,44.4616536 201.667991,45.0527381 L201.667991,45.0527381 Z" id="Fill-35" fill="#000000" mask="url(#mask-4)"></path>
                <path d="M205.261696,47.7856622 C205.46539,47.3690571 205.674195,46.891605 205.887832,46.3536565 C206.101609,45.8158482 206.307823,45.2586222 206.507035,44.6819784 C206.706038,44.1055449 206.890475,43.5240642 207.060418,42.9375363 C207.230361,42.3512888 207.373486,41.8014233 207.490143,41.2875893 L208.434458,41.2875893 C208.259053,41.9758325 208.064112,42.6541215 207.849985,43.3228067 C207.635578,43.991492 207.409127,44.6456665 207.170493,45.2851901 C206.931788,45.9248539 206.683351,46.5404033 206.42511,47.1314877 C206.166939,47.7227123 205.916261,48.2797981 205.672795,48.8032359 L204.79297,48.8032359 C204.539561,48.2797981 204.286081,47.7227123 204.032882,47.1314877 C203.779683,46.5404033 203.533696,45.9248539 203.295062,45.2851901 C203.056357,44.6456665 202.829766,43.991492 202.615289,43.3228067 C202.400952,42.6541215 202.205941,41.9758325 202.030817,41.2875893 L203.03276,41.2875893 C203.149416,41.8014233 203.292541,42.3512888 203.462484,42.9375363 C203.632357,43.5240642 203.816865,44.1055449 204.016077,44.6819784 C204.215079,45.2586222 204.421504,45.8158482 204.635281,46.3536565 C204.848917,46.891605 205.057723,47.3690571 205.261696,47.7856622" id="Fill-36" fill="#000000" mask="url(#mask-4)"></path>
                <path d="M214.111937,44.4420747 C214.092471,43.6571634 213.908733,43.0466612 213.560165,42.610428 C213.211736,42.1743351 212.718011,41.9562535 212.079132,41.9562535 C211.740156,41.9562535 211.437731,42.0241805 211.171578,42.1598243 C210.905145,42.2956784 210.672882,42.477378 210.47458,42.704923 C210.276068,42.9327485 210.12111,43.1969559 210.009915,43.4971948 C209.89851,43.7977843 209.83318,44.1128143 209.813854,44.4420747 L214.111937,44.4420747 Z M208.782922,45.0380661 C208.782922,44.3792649 208.877241,43.8050046 209.06602,43.3155654 C209.254869,42.8261963 209.501696,42.4166712 209.806642,42.0871305 C210.111517,41.7578701 210.460086,41.5129402 210.852068,41.3530418 C211.244121,41.1930732 211.648217,41.1131591 212.064567,41.1131591 C212.984165,41.1131591 213.717434,41.4136784 214.264445,42.0144366 C214.811175,42.6154753 215.084891,43.5409373 215.084891,44.7911033 C215.084891,44.8687041 215.0823,44.9461648 215.077609,45.0235554 C215.072637,45.1012964 215.065355,45.1739903 215.055762,45.2416369 L209.784795,45.2416369 C209.813854,46.1624023 210.041215,46.8698529 210.467298,47.3639888 C210.893171,47.8581948 211.570843,48.105368 212.500173,48.105368 C213.013224,48.105368 213.419701,48.0569989 213.719884,47.9601205 C214.019858,47.8633122 214.237696,47.7808744 214.373329,47.7129474 L214.547613,48.5268801 C214.411911,48.6046913 214.157801,48.6966627 213.785285,48.8032149 C213.412488,48.909697 212.974361,48.9631133 212.471114,48.9631133 C211.812698,48.9631133 211.251403,48.8660246 210.786738,48.6723379 C210.322073,48.4785811 209.939543,48.2072235 209.639639,47.8581948 C209.339456,47.5093765 209.121618,47.0950847 208.986195,46.6153193 C208.850493,46.1356941 208.782922,45.6100833 208.782922,45.0380661 L208.782922,45.0380661 Z" id="Fill-37" fill="#000000" mask="url(#mask-4)"></path>
                <path d="M216.464105,48.8032289 L217.40793,48.8032289 L217.40793,41.2875823 L216.464105,41.2875823 L216.464105,48.8032289 Z M217.625768,39.0198426 C217.625768,39.2429013 217.557917,39.4196237 217.422425,39.5505708 C217.286792,39.6813076 217.122241,39.746711 216.92877,39.746711 C216.73502,39.746711 216.570468,39.6813076 216.435046,39.5505708 C216.299344,39.4196237 216.231772,39.2429013 216.231772,39.0198426 C216.231772,38.7970644 216.299344,38.6200615 216.435046,38.4893247 C216.570468,38.3584478 216.73502,38.2929742 216.92877,38.2929742 C217.122241,38.2929742 217.286792,38.3584478 217.422425,38.4893247 C217.557917,38.6200615 217.625768,38.7970644 217.625768,39.0198426 L217.625768,39.0198426 Z" id="Fill-38" fill="#000000" mask="url(#mask-4)"></path>
                <path d="M220.718684,48.1345226 C221.260723,48.1345226 221.708373,48.0450047 222.061843,47.8654783 C222.415104,47.6863724 222.591839,47.3835398 222.591839,46.9570505 C222.591839,46.7534797 222.560329,46.5790705 222.497449,46.4336127 C222.43443,46.2883652 222.330517,46.1574883 222.185222,46.0412622 C222.040067,45.924896 221.848837,45.813577 221.611743,45.7068845 C221.374368,45.6002622 221.081747,45.4742923 220.733178,45.3289046 C220.45232,45.2126084 220.186237,45.0940691 219.934579,44.9727258 C219.68271,44.8515927 219.46011,44.711112 219.26664,44.5512136 C219.072889,44.3913152 218.918141,44.2000119 218.801975,43.9769532 C218.685808,43.7541049 218.62776,43.4827472 218.62776,43.1628803 C218.62776,42.5523781 218.857572,42.058102 219.317406,41.680122 C219.777169,41.3022122 220.408767,41.1131521 221.212408,41.1131521 C221.725388,41.1131521 222.149021,41.1568245 222.482955,41.244029 C222.816959,41.3312336 223.051463,41.4089046 223.187165,41.4766213 L222.969397,42.3197858 C222.853161,42.2616027 222.657239,42.184072 222.381283,42.0871235 C222.105397,41.9903853 221.701091,41.9417358 221.168854,41.9417358 C220.955778,41.9417358 220.755025,41.9638173 220.566176,42.0074897 C220.377467,42.0510219 220.210465,42.1191592 220.065239,42.2113409 C219.920084,42.3035927 219.803918,42.4200991 219.71674,42.5610004 C219.629633,42.7017615 219.58608,42.8739976 219.58608,43.0778488 C219.58608,43.2818402 219.624662,43.4568102 219.702246,43.6024082 C219.77962,43.7482165 219.893266,43.8767801 220.043463,43.9884496 C220.193449,44.1003295 220.377467,44.204288 220.595235,44.3006757 C220.813073,44.3972036 221.062141,44.5032651 221.343069,44.6191406 C221.633449,44.7349461 221.911646,44.8529246 222.17801,44.973567 C222.444163,45.0942093 222.678946,45.2393166 222.88222,45.4088187 C223.085563,45.5784611 223.250045,45.7820319 223.375944,46.0193209 C223.501633,46.2570305 223.564793,46.5549561 223.564793,46.9133781 C223.564793,47.5918073 223.310614,48.1053609 222.802395,48.4543195 C222.294176,48.8032079 221.599419,48.977617 220.718684,48.977617 C220.060268,48.977617 219.557021,48.9217472 219.208592,48.8104983 C218.860023,48.6991793 218.62776,48.6141478 218.511524,48.5561049 L218.758421,47.6982894 C218.78748,47.7179175 218.85029,47.7492522 218.94713,47.7929246 C219.04383,47.8364568 219.174491,47.8850362 219.339253,47.9381721 C219.503664,47.9915884 219.699725,48.0377143 219.927296,48.0763395 C220.154657,48.1152451 220.4185,48.1345226 220.718684,48.1345226" id="Fill-39" fill="#000000" mask="url(#mask-4)"></path>
            </g>
        </g>
    </g>
</svg>