<?xml version="1.0" encoding="utf-8"?>
<!-- Generator: Adobe Illustrator 19.2.1, SVG Export Plug-In . SVG Version: 6.00 Build 0)  -->
<svg version="1.1" id="Camada_1" xmlns="http://www.w3.org/2000/svg" xmlns:xlink="http://www.w3.org/1999/xlink" x="0px" y="0px"
	 viewBox="0 0 539 191" style="enable-background:new 0 0 539 191;" xml:space="preserve">
<style type="text/css">
	.st0{fill:none;stroke:#595959;stroke-miterlimit:10;}
	.st1{fill:#595959;}
</style>
<g>
	<g>
		<circle class="st0" cx="91.3" cy="91.5" r="76.2"/>
		<path class="st1" d="M125.7,20.9c-21.4-19.6-54.6-18.6-76,1.8c-1,1-1.9,1.8-2.7,2.7c-1.2,1.4-2.5,2.7-3.4,4.2l-4.2-4.1l-10-9.4
			L32,28.4l1.5,7l0.1,0.4l7.6,35.7l43.9-2.6L69.4,54.1c1.9-3.3,4.2-6.4,7-9.4c8.2-8.9,18.1-14.5,27.8-16.4c1.6-0.3,3.1-0.5,4.8-0.7
			c0.8,0,1.5-0.1,2.3-0.1c7.8-0.1,15,2.2,20.5,7.2c2,1.9,3.7,4,4.9,6.3c1.2,1,2.5,1.9,3.7,2.9C137.6,35.3,132.8,27.4,125.7,20.9z"/>
		<path class="st1" d="M160.2,165.6l-2.9-12.5l-0.7-2.9l-7.2-31.6l-43.9,3.4l15.8,14.5c-1.9,3.3-4.2,6.4-6.8,9.4
			c-7.6,8.6-17.1,14.2-26.3,16.5c-1,0.3-1.9,0.4-2.9,0.7c-3,0.5-6,0.8-9,0.5c-6.4-0.4-12.4-2.6-17.1-6.8c-2.3-2.2-4.2-4.6-5.7-7.4
			c-1.1-0.8-2.2-1.5-3.3-2.3c2.9,8.7,7.9,16.9,15.1,23.5c19.8,17.6,49,17.9,70,2c3.1-2.3,6-4.9,8.6-7.9c1.2-1.4,2.3-2.9,3.4-4.2
			l7.6,7.1l6.8,6.3L160.2,165.6z"/>
		<path class="st1" d="M48.5,91.9v38.6c0,3.5,2.9,6.4,6.4,6.4h21.7v-7.4H55.7v-45L48.5,91.9z"/>
		<path class="st1" d="M110.3,129.7h-2.7v7.4h5c0.7-1.1,1.4-2.2,2-3.3L110.3,129.7z"/>
		<rect x="79.7" y="99.7" class="st1" width="24.8" height="37.1"/>
		<polygon class="st1" points="128.6,84.7 128.6,117 135.8,116.5 135.8,91.9 		"/>
		<g>
			<polygon class="st1" points="52.3,73.2 37.3,88.4 42.5,93.6 63.3,72.6 			"/>
			<path class="st1" d="M96.8,38.1c-1.2-1.2-2.9-1.9-4.6-1.9c-1.8,0-3.4,0.7-4.6,1.9L73.2,52.4l5.3,5l13.6-13.6l49.7,49.8l5.2-5.2
				l0,0L96.8,38.1z"/>
		</g>
	</g>
	<g>
		<path class="st1" d="M231.9,40.9c3.4,2.9,5,7.2,5,13.1s-1.8,10.2-5.2,13c-3.4,2.7-8.7,4.1-16,4.1h-8.6v14.3h-8.2V36.6h16.6
			C223.1,36.7,228.5,38.2,231.9,40.9z M226.1,61.1c1.6-1.8,2.5-4.4,2.5-7.6c0-3.4-1.1-5.7-3.1-7.1s-5.3-2-9.8-2h-8.3v19.5h9.5
			C221.3,63.7,224.4,62.9,226.1,61.1z"/>
		<path class="st1" d="M277.5,36.7v7.8h-26.1v13h23.5v7.4h-23.5v13.1h26.9v7.8h-35.2V36.8h34.4V36.7z"/>
		<path class="st1" d="M324.4,52.5c0,8-3.5,13.1-10.5,15.3l12.8,17.7h-10.5l-11.6-16.4h-10.8v16.4h-8.2V36.7h18.1
			c7.5,0,12.8,1.2,16,3.8C322.8,43,324.4,47.1,324.4,52.5z M313.4,59.5c1.6-1.5,2.5-3.8,2.5-7s-0.8-5.3-2.6-6.5
			c-1.8-1.2-4.8-1.8-9.3-1.8h-10.5v17.5h10.2C308.6,61.7,311.7,61,313.4,59.5z"/>
		<path class="st1" d="M340.9,85.5h-8.2V36.7h12.8l14.7,30.7L375,36.7h12.8v48.8h-8.2V47.3l-17.1,33.8H358l-16.9-33.8v38.2H340.9z"
			/>
		<path class="st1" d="M408.9,74.3c2.2,2.6,5.3,4,9.1,4c3.8,0,6.8-1.4,9.1-4c2.2-2.6,3.4-6.1,3.4-10.6v-27h8.2v27.4
			c0,7.1-1.9,12.4-5.7,16.2c-3.8,3.8-8.9,5.7-14.9,5.7s-11-1.9-14.9-5.7c-3.8-3.8-5.9-9.1-5.9-16.2V36.7h8.2v27
			C405.4,68.2,406.7,71.7,408.9,74.3z"/>
		<path class="st1" d="M466.4,44.2v41.3h-8.2V44.2h-14.7v-7.5h37.8v7.5H466.4z"/>
		<path class="st1" d="M489.7,74.5l-4.9,11H476l21.6-48.8h8.9l21.6,48.8h-8.9l-4.9-11H489.7z M510.9,66.8L502,46.8l-8.9,20.1H510.9z
			"/>
		<path class="st1" d="M206,109.5v12.4h20.1v7.1H206v18.6h-7.6v-45.1h30.1v7.1C228.5,109.5,206,109.5,206,109.5z"/>
		<path class="st1" d="M240.7,137.4l-4.5,10.2H228l19.9-45.1h8.2l19.9,45.1h-8.2l-4.5-10.2H240.7z M260.2,130.3l-8.2-18.7l-8.2,18.7
			H260.2z M255.4,98.6h-6.5l6.8-9.4l7.6,3.1L255.4,98.6z"/>
		<path class="st1" d="M299.6,140.8c2.6,0,4.9-0.4,6.8-1.4c1.9-0.8,3.8-2.3,6-4.2l4.9,5c-4.8,5.3-10.6,7.9-17.5,7.9
			c-6.8,0-12.5-2.2-17.1-6.5c-4.5-4.4-6.8-10-6.8-16.6c0-6.7,2.3-12.3,6.8-16.8c4.6-4.5,10.4-6.7,17.5-6.7c7,0,12.8,2.6,17.6,7.8
			l-4.9,5.3c-2.2-2-4.2-3.5-6.1-4.4s-4.2-1.2-6.8-1.2c-4.5,0-8.5,1.5-11.5,4.5c-3.1,3-4.6,6.7-4.6,11.3c0,4.6,1.5,8.5,4.6,11.5
			C291.7,139.1,295.4,140.8,299.6,140.8z"/>
		<path class="st1" d="M323.3,102.4h7.6v45.1h-7.6V102.4z"/>
		<path class="st1" d="M340.2,147.6v-45.1h7.6v37.9h20.6v7.2H340.2z"/>
	</g>
</g>
</svg>
