<svg xmlns="http://www.w3.org/2000/svg" width="319" height="241" viewBox="0 0 319 241">
    <g fill="none" fill-rule="evenodd">
        <path fill="#000" d="M214.436 224.372h63.132v-37.128h-63.132v37.128zm63.561.863h-63.99a.43.43 0 0 1-.43-.431v-37.992a.43.43 0 0 1 .43-.432h63.99a.43.43 0 0 1 .43.432v37.992a.43.43 0 0 1-.43.431z"/>
        <path fill="#FFF" d="M230.53 219.152h47.467v-6.976h-47.466z"/>
        <path fill="#000" d="M230.961 218.72h46.607v-6.113H230.96v6.114zm47.036.864h-47.466a.43.43 0 0 1-.43-.432v-6.976a.43.43 0 0 1 .43-.432h47.466a.43.43 0 0 1 .43.432v6.976a.43.43 0 0 1-.43.432z"/>
        <path fill="#FFF" d="M230.53 209.296h47.467v-6.978h-47.466z"/>
        <path fill="#000" d="M230.961 208.864h46.607v-6.113H230.96v6.113zm47.036.864h-47.466a.431.431 0 0 1-.43-.432v-6.978a.43.43 0 0 1 .43-.431h47.466a.43.43 0 0 1 .43.431v6.978a.43.43 0 0 1-.43.432z"/>
        <path fill="#FFF" d="M230.53 199.44h47.467v-6.978h-47.466z"/>
        <path fill="#000" d="M230.961 199.008h46.607v-6.114H230.96v6.114zm47.036.863h-47.466a.43.43 0 0 1-.43-.431v-6.978a.43.43 0 0 1 .43-.432h47.466a.43.43 0 0 1 .43.432v6.978a.43.43 0 0 1-.43.431zM110.875 183.033h64.682V68.93c0-3.155-2.556-5.722-5.698-5.722h-53.285c-3.142 0-5.699 2.567-5.699 5.722v114.103zm65.112.864h-65.542a.43.43 0 0 1-.43-.432V68.93c0-3.631 2.943-6.586 6.56-6.586h53.284c3.617 0 6.558 2.955 6.558 6.586v114.535a.43.43 0 0 1-.43.432z"/>
        <path fill="#FFF" d="M176.608 98.425h-.62V92.48h.62z"/>
        <path fill="#000" d="M176.407 98.857h-.84c-.005 0-.01-.193-.01-.432V92.48c0-.238.005-.432.01-.432h.84c.006 0 .01.194.01.432v5.945c0 .239-.004.432-.01.432z"/>
        <path fill="#FFF" d="M136.867 106.936h12.94v-5.944h-12.94z"/>
        <path fill="#DAECF9" d="M72.676 82.902h-2.84c0-2.988-2.412-5.41-5.387-5.41h-26.27c-2.976 0-5.388 2.422-5.388 5.41h-2.839c-2.976 0-5.388 2.423-5.388 5.41 0 2.988 2.412 5.41 5.388 5.41H50.7c.002 2.988 2.413 5.41 5.389 5.41h9.701c2.976 0 5.388-2.422 5.388-5.41h1.498c2.975 0 5.388-2.422 5.388-5.41 0-2.987-2.413-5.41-5.388-5.41"/>
        <path fill="#000" d="M29.952 83.333c-2.733 0-4.958 2.234-4.958 4.98 0 2.744 2.225 4.977 4.958 4.977H50.7c.237 0 .43.193.43.432.001 2.745 2.226 4.978 4.959 4.978h9.701c2.734 0 4.959-2.233 4.959-4.978a.43.43 0 0 1 .43-.432h1.497c2.734 0 4.959-2.233 4.959-4.977 0-2.746-2.225-4.98-4.96-4.98h-2.838a.43.43 0 0 1-.43-.431c0-2.745-2.224-4.978-4.958-4.978h-26.27c-2.734 0-4.959 2.233-4.959 4.978a.43.43 0 0 1-.43.431h-2.838zm35.838 16.23H56.09c-3.063 0-5.581-2.389-5.803-5.41H29.952c-3.207 0-5.817-2.62-5.817-5.84 0-3.222 2.61-5.843 5.817-5.843h2.424c.222-3.02 2.74-5.41 5.803-5.41h26.27c3.063 0 5.58 2.39 5.802 5.41h2.425c3.208 0 5.819 2.62 5.819 5.843 0 3.22-2.611 5.84-5.82 5.84h-1.082c-.221 3.021-2.739 5.41-5.803 5.41zM150.444 224.372h63.132V98.74c0-3.095-2.507-5.612-5.588-5.612h-51.955c-3.082 0-5.59 2.517-5.59 5.612v125.633zm63.562.863h-63.992a.43.43 0 0 1-.43-.431V98.739c0-3.571 2.892-6.476 6.449-6.476h51.955c3.555 0 6.448 2.905 6.448 6.476v126.065a.43.43 0 0 1-.43.431z"/>
        <path fill="#000" d="M64.084 158.317h63.51V46.263c0-3.095-2.507-5.612-5.589-5.612H69.673c-3.082 0-5.59 2.517-5.59 5.612v112.054zm63.94.864h-64.37a.431.431 0 0 1-.43-.432V46.263c0-3.57 2.893-6.476 6.449-6.476h52.332c3.556 0 6.449 2.905 6.449 6.476v112.486a.43.43 0 0 1-.43.432z"/>
        <path fill="#FFF" d="M73.483 58.588h44.71V51.25h-44.71z"/>
        <path fill="#000" d="M73.913 58.156h43.851v-6.475H73.913v6.475zm44.28.864h-44.71a.43.43 0 0 1-.43-.432V51.25a.43.43 0 0 1 .43-.432h44.71a.43.43 0 0 1 .43.432v7.34a.43.43 0 0 1-.43.431z"/>
        <path fill="#FFF" d="M73.483 73.267h44.71v-7.34h-44.71z"/>
        <path fill="#000" d="M73.913 72.835h43.851V66.36H73.913v6.476zm44.28.864h-44.71a.43.43 0 0 1-.43-.432v-7.34a.43.43 0 0 1 .43-.431h44.71a.43.43 0 0 1 .43.432v7.34a.43.43 0 0 1-.43.43z"/>
        <path fill="#FFF" d="M73.483 87.946h44.71v-7.34h-44.71z"/>
        <path fill="#000" d="M73.913 87.514h43.851v-6.476H73.913v6.476zm44.28.864h-44.71a.43.43 0 0 1-.43-.432v-7.34a.43.43 0 0 1 .43-.431h44.71a.43.43 0 0 1 .43.432v7.339a.43.43 0 0 1-.43.432z"/>
        <path fill="#FFF" d="M73.483 102.625h44.71v-7.34h-44.71z"/>
        <path fill="#000" d="M73.913 102.193h43.851v-6.476H73.913v6.476zm44.28.863h-44.71a.43.43 0 0 1-.43-.431v-7.34a.43.43 0 0 1 .43-.431h44.71a.43.43 0 0 1 .43.431v7.34a.43.43 0 0 1-.43.431z"/>
        <path fill="#FFF" d="M73.483 117.303h44.71v-7.339h-44.71z"/>
        <path fill="#000" d="M73.913 116.872h43.851v-6.476H73.913v6.476zm44.28.863h-44.71a.43.43 0 0 1-.43-.432v-7.339a.43.43 0 0 1 .43-.432h44.71a.43.43 0 0 1 .43.432v7.34a.43.43 0 0 1-.43.431z"/>
        <path fill="#FFF" d="M73.483 131.982h44.71v-7.34h-44.71z"/>
        <path fill="#000" d="M73.913 131.55h43.851v-6.475H73.913v6.475zm44.28.864h-44.71a.43.43 0 0 1-.43-.432v-7.34a.43.43 0 0 1 .43-.431h44.71a.43.43 0 0 1 .43.432v7.34a.43.43 0 0 1-.43.43z"/>
        <path fill="#FFF" d="M73.483 146.661h44.71v-7.34h-44.71z"/>
        <path fill="#000" d="M73.913 146.23h43.851v-6.477H73.913v6.476zm44.28.863h-44.71a.43.43 0 0 1-.43-.432v-7.34a.43.43 0 0 1 .43-.431h44.71a.43.43 0 0 1 .43.431v7.34a.431.431 0 0 1-.43.432zM41.424 224.372h108.16v-65.19H41.424v10.504h96.552a.43.43 0 0 1 .43.432v9.786a.43.43 0 0 1-.43.432H41.424v6.117h96.552a.43.43 0 0 1 .43.431v9.785a.43.43 0 0 1-.43.432H41.424v6.116h96.552a.43.43 0 0 1 .43.432v9.786a.43.43 0 0 1-.43.431H41.424v10.506zm108.59.863H40.994a.43.43 0 0 1-.43-.431v-11.37a.43.43 0 0 1 .43-.432h96.552v-8.922H40.994a.43.43 0 0 1-.43-.43v-6.981a.43.43 0 0 1 .43-.432h96.552v-8.921H40.994a.43.43 0 0 1-.43-.432v-6.98a.43.43 0 0 1 .43-.432h96.552v-8.923H40.994a.43.43 0 0 1-.43-.431v-11.369a.43.43 0 0 1 .43-.432h109.02a.43.43 0 0 1 .43.432v66.055a.43.43 0 0 1-.43.431z"/>
        <path fill="#FFF" d="M40.994 179.904h96.982v-9.786H40.994z"/>
        <path fill="#000" d="M41.424 179.472h96.122v-8.923H41.424v8.923zm96.552.864H40.994a.43.43 0 0 1-.43-.432v-9.786a.43.43 0 0 1 .43-.432h96.982a.43.43 0 0 1 .43.432v9.786a.43.43 0 0 1-.43.432z"/>
        <path fill="#FFF" d="M40.994 196.669h96.982v-9.785H40.994z"/>
        <path fill="#000" d="M41.424 196.237h96.122v-8.921H41.424v8.92zm96.552.864H40.994a.43.43 0 0 1-.43-.432v-9.785a.43.43 0 0 1 .43-.431h96.982a.43.43 0 0 1 .43.431v9.785a.43.43 0 0 1-.43.432z"/>
        <path fill="#FFF" d="M40.994 213.435h96.982v-9.786H40.994z"/>
        <path fill="#000" d="M41.424 213.002h96.122v-8.922H41.424v8.922zm96.552.864H40.994a.43.43 0 0 1-.43-.431v-9.786a.43.43 0 0 1 .43-.432h96.982a.43.43 0 0 1 .43.432v9.786a.43.43 0 0 1-.43.431z"/>
        <path fill="#FFF" d="M155.894 111.168h9.06v-9.1h-9.06z"/>
        <path fill="#000" d="M156.324 110.736h8.2V102.5h-8.2v8.236zm8.63.864h-9.06a.43.43 0 0 1-.43-.432v-9.1a.43.43 0 0 1 .43-.432h9.06a.43.43 0 0 1 .43.432v9.1a.43.43 0 0 1-.43.432z"/>
        <path fill="#FFF" d="M170.285 111.168h9.061v-9.1h-9.06z"/>
        <path fill="#000" d="M170.715 110.736h8.201V102.5h-8.2v8.236zm8.631.864h-9.06a.43.43 0 0 1-.43-.432v-9.1a.43.43 0 0 1 .43-.432h9.06a.43.43 0 0 1 .43.432v9.1a.43.43 0 0 1-.43.432z"/>
        <path fill="#FFF" d="M184.676 111.168h9.061v-9.1h-9.06z"/>
        <path fill="#000" d="M185.106 110.736h8.2V102.5h-8.2v8.236zm8.631.864h-9.06a.43.43 0 0 1-.431-.432v-9.1a.43.43 0 0 1 .43-.432h9.061a.43.43 0 0 1 .43.432v9.1a.43.43 0 0 1-.43.432z"/>
        <path fill="#FFF" d="M199.067 111.168h9.06v-9.1h-9.06z"/>
        <path fill="#000" d="M199.497 110.736h8.201V102.5h-8.201v8.236zm8.63.864h-9.06a.43.43 0 0 1-.43-.432v-9.1a.43.43 0 0 1 .43-.432h9.06a.43.43 0 0 1 .43.432v9.1a.43.43 0 0 1-.43.432z"/>
        <path fill="#FFF" d="M155.894 127.147h9.06v-9.098h-9.06z"/>
        <path fill="#000" d="M156.324 126.715h8.2v-8.234h-8.2v8.234zm8.63.864h-9.06a.43.43 0 0 1-.43-.432v-9.098a.43.43 0 0 1 .43-.432h9.06a.43.43 0 0 1 .43.432v9.098a.43.43 0 0 1-.43.432z"/>
        <path fill="#FFF" d="M170.285 127.147h9.061v-9.098h-9.06z"/>
        <path fill="#000" d="M170.715 126.715h8.201v-8.234h-8.2v8.234zm8.631.864h-9.06a.43.43 0 0 1-.43-.432v-9.098a.43.43 0 0 1 .43-.432h9.06a.43.43 0 0 1 .43.432v9.098a.43.43 0 0 1-.43.432z"/>
        <path fill="#FFF" d="M184.676 127.147h9.061v-9.098h-9.06z"/>
        <path fill="#000" d="M185.106 126.715h8.2v-8.234h-8.2v8.234zm8.631.864h-9.06a.43.43 0 0 1-.431-.432v-9.098c0-.239.193-.432.43-.432h9.061a.43.43 0 0 1 .43.432v9.098a.43.43 0 0 1-.43.432z"/>
        <path fill="#FFF" d="M199.067 127.147h9.06v-9.098h-9.06z"/>
        <path fill="#000" d="M199.497 126.715h8.201v-8.234h-8.201v8.234zm8.63.864h-9.06a.43.43 0 0 1-.43-.432v-9.098a.43.43 0 0 1 .43-.432h9.06a.43.43 0 0 1 .43.432v9.098a.43.43 0 0 1-.43.432z"/>
        <path fill="#FFF" d="M155.894 143.128h9.06v-9.1h-9.06z"/>
        <path fill="#000" d="M156.324 142.696h8.2v-8.237h-8.2v8.237zm8.63.863h-9.06a.43.43 0 0 1-.43-.431v-9.1a.43.43 0 0 1 .43-.432h9.06a.43.43 0 0 1 .43.432v9.1a.43.43 0 0 1-.43.431z"/>
        <path fill="#FFF" d="M170.285 143.128h9.061v-9.1h-9.06z"/>
        <path fill="#000" d="M170.715 142.696h8.201v-8.237h-8.2v8.237zm8.631.863h-9.06a.43.43 0 0 1-.43-.431v-9.1a.43.43 0 0 1 .43-.432h9.06a.43.43 0 0 1 .43.432v9.1a.43.43 0 0 1-.43.431z"/>
        <path fill="#FFF" d="M184.676 143.128h9.061v-9.1h-9.06z"/>
        <path fill="#000" d="M185.106 142.696h8.2v-8.237h-8.2v8.237zm8.631.863h-9.06a.43.43 0 0 1-.431-.431v-9.1a.43.43 0 0 1 .43-.432h9.061a.43.43 0 0 1 .43.432v9.1a.43.43 0 0 1-.43.431z"/>
        <path fill="#FFF" d="M199.067 143.128h9.06v-9.1h-9.06z"/>
        <path fill="#000" d="M199.497 142.696h8.201v-8.237h-8.201v8.237zm8.63.863h-9.06a.43.43 0 0 1-.43-.431v-9.1a.43.43 0 0 1 .43-.432h9.06a.43.43 0 0 1 .43.432v9.1a.43.43 0 0 1-.43.431z"/>
        <path fill="#FFF" d="M155.894 159.107h9.06v-9.099h-9.06z"/>
        <path fill="#000" d="M156.324 158.675h8.2v-8.234h-8.2v8.234zm8.63.864h-9.06a.43.43 0 0 1-.43-.432v-9.099a.43.43 0 0 1 .43-.432h9.06a.43.43 0 0 1 .43.432v9.099a.43.43 0 0 1-.43.432z"/>
        <path fill="#FFF" d="M170.285 159.107h9.061v-9.099h-9.06z"/>
        <path fill="#000" d="M170.715 158.675h8.201v-8.234h-8.2v8.234zm8.631.864h-9.06a.43.43 0 0 1-.43-.432v-9.099a.43.43 0 0 1 .43-.432h9.06c.237 0 .43.194.43.432v9.099a.431.431 0 0 1-.43.432z"/>
        <path fill="#FFF" d="M184.676 159.107h9.061v-9.099h-9.06z"/>
        <path fill="#000" d="M185.106 158.675h8.2v-8.234h-8.2v8.234zm8.631.864h-9.06a.431.431 0 0 1-.431-.432v-9.099c0-.238.193-.432.43-.432h9.061c.237 0 .43.194.43.432v9.099a.431.431 0 0 1-.43.432z"/>
        <path fill="#FFF" d="M199.067 159.107h9.06v-9.099h-9.06z"/>
        <path fill="#000" d="M199.497 158.675h8.201v-8.234h-8.201v8.234zm8.63.864h-9.06a.43.43 0 0 1-.43-.432v-9.099c0-.238.193-.432.43-.432h9.06a.43.43 0 0 1 .43.432v9.099a.43.43 0 0 1-.43.432z"/>
        <path fill="#FFF" d="M155.894 175.088h9.06v-9.1h-9.06z"/>
        <path fill="#000" d="M156.324 174.656h8.2v-8.237h-8.2v8.237zm8.63.863h-9.06a.43.43 0 0 1-.43-.431v-9.1a.43.43 0 0 1 .43-.432h9.06a.43.43 0 0 1 .43.432v9.1a.43.43 0 0 1-.43.431z"/>
        <path fill="#FFF" d="M170.285 175.088h9.061v-9.1h-9.06z"/>
        <path fill="#000" d="M170.715 174.656h8.201v-8.237h-8.2v8.237zm8.631.863h-9.06a.43.43 0 0 1-.43-.431v-9.1a.43.43 0 0 1 .43-.432h9.06a.43.43 0 0 1 .43.432v9.1a.43.43 0 0 1-.43.431z"/>
        <path fill="#FFF" d="M184.676 175.088h9.061v-9.1h-9.06z"/>
        <path fill="#000" d="M185.106 174.656h8.2v-8.237h-8.2v8.237zm8.631.863h-9.06a.431.431 0 0 1-.431-.431v-9.1c0-.239.193-.432.43-.432h9.061a.43.43 0 0 1 .43.432v9.1a.43.43 0 0 1-.43.431z"/>
        <path fill="#FFF" d="M199.067 175.088h9.06v-9.1h-9.06z"/>
        <path fill="#000" d="M199.497 174.656h8.201v-8.237h-8.201v8.237zm8.63.863h-9.06a.43.43 0 0 1-.43-.431v-9.1a.43.43 0 0 1 .43-.432h9.06a.43.43 0 0 1 .43.432v9.1a.43.43 0 0 1-.43.431z"/>
        <path fill="#FFF" d="M155.894 191.067h9.06v-9.099h-9.06z"/>
        <path fill="#000" d="M156.324 190.635h8.2V182.4h-8.2v8.235zm8.63.863h-9.06a.43.43 0 0 1-.43-.431v-9.099a.43.43 0 0 1 .43-.431h9.06a.43.43 0 0 1 .43.431v9.099a.43.43 0 0 1-.43.431z"/>
        <path fill="#FFF" d="M170.285 191.067h9.061v-9.099h-9.06z"/>
        <path fill="#000" d="M170.715 190.635h8.201V182.4h-8.2v8.235zm8.631.863h-9.06a.43.43 0 0 1-.43-.431v-9.099a.43.43 0 0 1 .43-.431h9.06a.43.43 0 0 1 .43.431v9.099a.43.43 0 0 1-.43.431z"/>
        <path fill="#FFF" d="M184.676 191.067h9.061v-9.099h-9.06z"/>
        <path fill="#000" d="M185.106 190.635h8.2V182.4h-8.2v8.235zm8.631.863h-9.06a.43.43 0 0 1-.431-.431v-9.099a.43.43 0 0 1 .43-.431h9.061a.43.43 0 0 1 .43.431v9.099a.43.43 0 0 1-.43.431z"/>
        <path fill="#FFF" d="M199.067 191.067h9.06v-9.099h-9.06z"/>
        <path fill="#000" d="M199.497 190.635h8.201V182.4h-8.201v8.235zm8.63.863h-9.06a.43.43 0 0 1-.43-.431v-9.099a.43.43 0 0 1 .43-.431h9.06a.43.43 0 0 1 .43.431v9.099a.43.43 0 0 1-.43.431z"/>
        <path fill="#FFF" d="M155.894 207.047h9.06v-9.1h-9.06z"/>
        <path fill="#000" d="M156.324 206.615h8.2v-8.236h-8.2v8.236zm8.63.864h-9.06a.43.43 0 0 1-.43-.432v-9.1a.43.43 0 0 1 .43-.432h9.06a.43.43 0 0 1 .43.432v9.1a.43.43 0 0 1-.43.432z"/>
        <path fill="#FFF" d="M170.285 207.047h9.061v-9.1h-9.06z"/>
        <path fill="#000" d="M170.715 206.615h8.201v-8.236h-8.2v8.236zm8.631.864h-9.06a.43.43 0 0 1-.43-.432v-9.1a.43.43 0 0 1 .43-.432h9.06c.237 0 .43.194.43.432v9.1a.431.431 0 0 1-.43.432z"/>
        <path fill="#FFF" d="M184.676 207.047h9.061v-9.1h-9.06z"/>
        <path fill="#000" d="M185.106 206.615h8.2v-8.236h-8.2v8.236zm8.631.864h-9.06a.431.431 0 0 1-.431-.432v-9.1c0-.238.193-.432.43-.432h9.061c.237 0 .43.194.43.432v9.1a.431.431 0 0 1-.43.432z"/>
        <path fill="#FFF" d="M199.067 207.047h9.06v-9.1h-9.06z"/>
        <path fill="#000" d="M199.497 206.615h8.201v-8.236h-8.201v8.236zm8.63.864h-9.06a.43.43 0 0 1-.43-.432v-9.1a.43.43 0 0 1 .43-.432h9.06a.43.43 0 0 1 .43.432v9.1a.43.43 0 0 1-.43.432zM214.436 186.38h61.99l-61.99-36.804v36.804zm63.561.864h-63.99a.43.43 0 0 1-.43-.432V148.82a.43.43 0 0 1 .648-.373l63.991 37.993a.434.434 0 0 1-.219.804z"/>
        <path fill="#FFF" d="M277.997 199.438h-55.184"/>
        <path fill="#000" d="M277.997 199.87h-55.184a.43.43 0 0 1-.43-.432.43.43 0 0 1 .43-.431h55.184a.43.43 0 1 1 0 .863"/>
        <path fill="#FFF" d="M277.997 209.296h-55.184"/>
        <path fill="#000" d="M277.997 209.728h-55.184a.43.43 0 0 1-.43-.432.43.43 0 0 1 .43-.432h55.184a.431.431 0 0 1 0 .864"/>
        <path fill="#FFF" d="M277.997 219.152h-55.184"/>
        <path fill="#000" d="M277.997 219.584h-55.184a.43.43 0 0 1-.43-.432.43.43 0 0 1 .43-.431h55.184a.43.43 0 0 1 .43.431.43.43 0 0 1-.43.432"/>
        <path fill="#63B88E" d="M63.967 224.804a7.774 7.774 0 0 0 .217-1.79c0-4.224-3.41-7.647-7.617-7.647a7.531 7.531 0 0 0-3.547.882c-1.225-6.258-6.713-10.98-13.305-10.98-6.42 0-11.785 4.485-13.19 10.504a7.581 7.581 0 0 0-2.438-.406c-4.207 0-7.617 3.423-7.617 7.647 0 .617.08 1.215.22 1.79h47.277z"/>
        <path fill="#000" d="M17.035 224.372H63.62a7.08 7.08 0 0 0 .134-1.358c0-3.978-3.224-7.216-7.187-7.216-1.182 0-2.308.28-3.346.833a.43.43 0 0 1-.623-.3c-1.206-6.16-6.624-10.63-12.883-10.63-6.122 0-11.374 4.182-12.771 10.17a.429.429 0 0 1-.556.31 7.174 7.174 0 0 0-2.301-.383c-3.963 0-7.187 3.238-7.187 7.216 0 .447.045.902.135 1.358m46.932.863H16.689a.43.43 0 0 1-.418-.33 8.04 8.04 0 0 1-.23-1.891c0-4.455 3.609-8.079 8.046-8.079.717 0 1.431.098 2.132.293 1.64-6.142 7.127-10.39 13.496-10.39 6.483 0 12.12 4.5 13.609 10.783a8.026 8.026 0 0 1 3.243-.686c4.437 0 8.047 3.624 8.047 8.079 0 .611-.077 1.247-.23 1.89a.43.43 0 0 1-.417.331"/>
        <path fill="#CDFBD4" d="M118.992 224.804a21.041 21.041 0 0 0 1.582-8.015c0-11.609-9.37-21.019-20.932-21.019-2.26 0-4.428.37-6.471 1.034-1.975-6.127-7.699-10.559-14.459-10.559-8.398 0-15.207 6.837-15.207 15.273 0 1.006.103 1.99.285 2.943-8.296.955-14.744 8.023-14.744 16.614 0 1.284.158 2.528.43 3.729h69.516z"/>
        <path fill="#000" d="M49.822 224.372h68.88a20.555 20.555 0 0 0 1.442-7.583c0-11.351-9.197-20.587-20.502-20.587-2.14 0-4.272.34-6.338 1.013a.43.43 0 0 1-.541-.277c-1.98-6.138-7.625-10.26-14.051-10.26-8.148 0-14.777 6.656-14.777 14.84 0 .934.093 1.897.278 2.86a.435.435 0 0 1-.374.512c-8.188.943-14.363 7.901-14.363 16.185 0 1.075.116 2.183.346 3.297m69.17.863H49.476a.43.43 0 0 1-.42-.335 17.345 17.345 0 0 1-.44-3.825c0-8.57 6.275-15.792 14.672-16.985a15.992 15.992 0 0 1-.213-2.572c0-8.66 7.015-15.705 15.637-15.705 6.657 0 12.524 4.183 14.731 10.453a21.297 21.297 0 0 1 6.2-.928c11.778 0 21.361 9.624 21.361 21.451 0 2.819-.543 5.57-1.615 8.18a.43.43 0 0 1-.397.266"/>
        <path fill="#CDFBD4" d="M195.483 215.288h-2.73a9.95 9.95 0 0 0 .067-1.12c0-5.557-4.485-10.063-10.016-10.063a9.956 9.956 0 0 0-6.829 2.71c-2.953-3.389-7.28-5.54-12.12-5.54-8.262 0-15.063 6.234-16.023 14.272a9.176 9.176 0 0 0-2.677-.4c-5.104 0-9.242 4.158-9.242 9.282 0 .127.013.25.018.375h68.711c.002-.102.015-.2.015-.304 0-5.088-4.107-9.212-9.174-9.212"/>
        <path fill="#000" d="M136.342 224.372h67.884c-.069-4.782-3.964-8.652-8.743-8.652h-2.73a.43.43 0 0 1-.427-.48c.043-.384.064-.735.064-1.073 0-5.31-4.3-9.63-9.586-9.63a9.537 9.537 0 0 0-6.535 2.594.406.406 0 0 1-.316.115.426.426 0 0 1-.3-.147 15.66 15.66 0 0 0-11.798-5.393c-7.945 0-14.65 5.973-15.596 13.892a.428.428 0 0 1-.552.362 8.749 8.749 0 0 0-2.552-.38c-4.84 0-8.782 3.938-8.813 8.792m68.3.863h-68.71a.43.43 0 0 1-.43-.413l-.008-.133a3.786 3.786 0 0 1-.011-.26c0-5.356 4.339-9.713 9.672-9.713.78 0 1.558.095 2.317.284 1.213-8.106 8.17-14.157 16.383-14.157 4.613 0 9.018 1.949 12.154 5.364a10.378 10.378 0 0 1 6.795-2.534c5.76 0 10.446 4.707 10.446 10.494 0 .224-.008.452-.025.689h2.258c5.295 0 9.603 4.327 9.603 9.644 0 .065-.003.129-.008.193l-.005.118a.431.431 0 0 1-.43.424"/>
        <path fill="#58D1B7" d="M240.688 193.387c0 7.84-6.329 14.198-14.137 14.198-7.809 0-14.138-6.358-14.138-14.198 0-7.84 6.329-14.197 14.138-14.197 7.808 0 14.137 6.357 14.137 14.197"/>
        <path fill="#000" d="M226.551 179.622c-7.559 0-13.708 6.174-13.708 13.765 0 7.59 6.15 13.766 13.708 13.766s13.707-6.175 13.707-13.766c0-7.59-6.149-13.765-13.707-13.765m0 28.395c-8.033 0-14.568-6.563-14.568-14.63 0-8.066 6.535-14.629 14.568-14.629 8.032 0 14.567 6.563 14.567 14.629 0 8.067-6.535 14.63-14.567 14.63"/>
        <path fill="#FFF" d="M226.551 224.858V190.31"/>
        <path fill="#000" d="M226.551 225.29a.43.43 0 0 1-.43-.432V190.31a.43.43 0 1 1 .86 0v34.547a.43.43 0 0 1-.43.431"/>
        <path fill="#FFF" d="M226.551 194.718l4.005-3.106"/>
        <path fill="#000" d="M226.552 195.15a.433.433 0 0 1-.263-.773l4.004-3.106a.427.427 0 0 1 .604.077c.145.19.11.46-.078.606l-4.005 3.105a.427.427 0 0 1-.262.09"/>
        <path fill="#FFF" d="M226.551 200.398l8.335-5.68"/>
        <path fill="#000" d="M226.552 200.829a.431.431 0 0 1-.242-.789l8.334-5.68a.43.43 0 0 1 .483.715l-8.335 5.68a.428.428 0 0 1-.24.074"/>
        <path fill="#FFF" d="M226.551 203.68l-5.184-3.282"/>
        <path fill="#000" d="M226.55 204.111a.423.423 0 0 1-.228-.067l-5.184-3.281a.433.433 0 0 1-.134-.596.43.43 0 0 1 .592-.135l5.184 3.282a.433.433 0 0 1-.23.797"/>
        <path fill="#FFF" d="M226.551 197.114l-3.152-2.396"/>
        <path fill="#000" d="M226.55 197.546a.43.43 0 0 1-.258-.088l-3.153-2.396a.432.432 0 0 1-.083-.605.428.428 0 0 1 .602-.083l3.153 2.396a.433.433 0 0 1-.26.776"/>
        <path fill="#58D1B7" d="M148.48 185.941c0 10.163-8.202 18.401-18.323 18.401-10.12 0-18.324-8.238-18.324-18.4 0-10.163 8.205-18.401 18.324-18.401 10.12 0 18.323 8.238 18.323 18.4"/>
        <path fill="#000" d="M130.158 167.972c-9.868 0-17.895 8.061-17.895 17.97 0 9.907 8.027 17.968 17.895 17.968 9.865 0 17.892-8.06 17.892-17.969 0-9.908-8.027-17.969-17.892-17.969m0 36.802c-10.341 0-18.755-8.449-18.755-18.833 0-10.384 8.414-18.832 18.755-18.832 10.34 0 18.752 8.448 18.752 18.832s-8.412 18.833-18.752 18.833"/>
        <path fill="#FFF" d="M129.853 224.814v-41.89"/>
        <path fill="#000" d="M129.853 225.246a.43.43 0 0 1-.43-.432v-41.89a.43.43 0 1 1 .86 0v41.89a.43.43 0 0 1-.43.432"/>
        <path fill="#FFF" d="M129.853 191.761l8.036-6.228"/>
        <path fill="#000" d="M129.853 192.193a.433.433 0 0 1-.263-.773l8.036-6.229a.428.428 0 0 1 .603.078c.145.189.11.46-.077.605l-8.037 6.23a.429.429 0 0 1-.262.09"/>
        <path fill="#FFF" d="M129.853 196.57l-6.32-4.809"/>
        <path fill="#000" d="M129.852 197.002a.426.426 0 0 1-.259-.087l-6.32-4.81a.433.433 0 0 1-.083-.604.427.427 0 0 1 .602-.084l6.32 4.81a.433.433 0 0 1-.26.775"/>
        <path fill="#FFF" d="M269.13 201.512h-9.212l1.67 7.896h8.659z"/>
        <path fill="#000" d="M261.936 208.976h7.815l-.994-7.032h-8.308l1.487 7.032zm8.31.863h-8.658a.431.431 0 0 1-.421-.342l-1.67-7.895a.43.43 0 0 1 .42-.522h9.214a.43.43 0 0 1 .425.372l1.116 7.895a.434.434 0 0 1-.425.492z"/>
        <path fill="#FFF" d="M287.238 209.408l-8.354-7.896h-9.753l1.116 7.896z"/>
        <path fill="#000" d="M270.62 208.976h15.535l-7.441-7.032h-9.088l.994 7.032zm16.618.863h-16.991a.43.43 0 0 1-.426-.37l-1.116-7.896a.43.43 0 0 1 .426-.493h9.753c.11 0 .215.043.294.118l8.355 7.895a.432.432 0 0 1-.295.746z"/>
        <path fill="#FFF" d="M255.101 219.77h2.654v-3.257h-2.654z"/>
        <path fill="#000" d="M255.531 219.338h1.795v-2.393h-1.795v2.393zm2.224.863h-2.654a.43.43 0 0 1-.43-.431v-3.257c0-.238.193-.431.43-.431h2.654a.43.43 0 0 1 .43.431v3.257a.43.43 0 0 1-.43.431z"/>
        <path fill="#FFF" d="M301.49 219.77h3.144v-3.454h-3.144z"/>
        <path fill="#000" d="M301.92 219.338h2.285v-2.59h-2.284v2.59zm2.714.863h-3.144a.43.43 0 0 1-.43-.431v-3.454a.43.43 0 0 1 .43-.431h3.144c.237 0 .43.192.43.431v3.454a.431.431 0 0 1-.43.431z"/>
        <path fill="#D1D3D4" d="M298.147 210.641l-10.909-1.233h-16.991l1.463 10.362h12.875c0-2.78 2.242-5.032 5.013-5.032 2.767 0 5.011 2.253 5.011 5.032h6.881v-3.454l-3.343-5.675z"/>
        <path fill="#000" d="M295.022 219.338h6.039v-2.904l-3.174-5.388-10.697-1.21-16.449.003 1.342 9.5h12.089c.22-2.813 2.57-5.033 5.426-5.033 2.855 0 5.205 2.22 5.424 5.032m6.468.863h-6.881a.43.43 0 0 1-.43-.431c0-2.536-2.055-4.601-4.581-4.601-2.528 0-4.583 2.065-4.583 4.6a.43.43 0 0 1-.43.432H271.71a.43.43 0 0 1-.426-.37l-1.463-10.363a.43.43 0 0 1 .426-.492h16.991l10.958 1.236a.428.428 0 0 1 .321.209l3.343 5.675c.04.066.06.142.06.22v3.454a.43.43 0 0 1-.43.431"/>
        <path fill="#D1D3D4" d="M261.588 209.408h-3.833v10.362h2.163c0-2.78 2.243-5.032 5.01-5.032 2.77 0 5.014 2.253 5.014 5.032h1.768l-1.463-10.362h-8.659z"/>
        <path fill="#000" d="M270.355 219.338h.86l-1.342-9.499h-11.688v9.5h1.32c.22-2.813 2.568-5.033 5.424-5.033 2.857 0 5.206 2.22 5.426 5.032m1.355.863h-1.768a.43.43 0 0 1-.43-.431c0-2.536-2.056-4.601-4.583-4.601-2.526 0-4.581 2.065-4.581 4.6a.43.43 0 0 1-.43.432h-2.163a.43.43 0 0 1-.43-.431v-10.362a.43.43 0 0 1 .43-.432h12.492a.43.43 0 0 1 .425.37l1.463 10.363a.43.43 0 0 1-.425.492"/>
        <path fill="#FFF" d="M264.929 214.738c-2.768 0-5.011 2.253-5.011 5.032 0 2.78 2.243 5.034 5.011 5.034 2.769 0 5.013-2.254 5.013-5.034s-2.244-5.032-5.013-5.032"/>
        <path fill="#000" d="M264.929 215.169c-2.526 0-4.581 2.065-4.581 4.6 0 2.54 2.055 4.603 4.581 4.603 2.527 0 4.582-2.064 4.582-4.602 0-2.536-2.055-4.601-4.582-4.601m0 10.066c-3 0-5.441-2.451-5.441-5.465 0-3.013 2.44-5.464 5.441-5.464 3 0 5.443 2.45 5.443 5.464 0 3.014-2.442 5.465-5.443 5.465"/>
        <path fill="#FFF" d="M289.598 214.738c-2.771 0-5.013 2.253-5.013 5.032 0 2.78 2.242 5.034 5.013 5.034 2.767 0 5.011-2.254 5.011-5.034s-2.244-5.032-5.011-5.032"/>
        <path fill="#000" d="M289.598 215.169c-2.528 0-4.583 2.065-4.583 4.6 0 2.54 2.055 4.603 4.583 4.603 2.526 0 4.581-2.064 4.581-4.602 0-2.536-2.055-4.601-4.581-4.601m0 10.066c-3.001 0-5.443-2.451-5.443-5.465 0-3.013 2.442-5.464 5.443-5.464 3 0 5.441 2.45 5.441 5.464 0 3.014-2.441 5.465-5.441 5.465"/>
        <path fill="#000" d="M0 225.235h318.993v-.863H0z"/>
        <path fill="#000" d="M80.867 225.235a.43.43 0 0 1-.426-.377L77 198.002a.432.432 0 0 1 .372-.483.427.427 0 0 1 .482.373l3.44 26.857a.432.432 0 0 1-.428.486"/>
        <path fill="#000" d="M80.116 219.37a.433.433 0 0 1-.194-.817l14.902-7.562a.43.43 0 0 1 .577.19.433.433 0 0 1-.19.58l-14.901 7.562a.427.427 0 0 1-.194.047"/>
        <path fill="#000" d="M86.058 216.355a.433.433 0 0 1-.412-.555l1.509-5.102a.433.433 0 0 1 .535-.29.433.433 0 0 1 .29.537l-1.51 5.101a.431.431 0 0 1-.412.309M80.473 222.159a.436.436 0 0 1-.177-.039l-10.176-4.646a.432.432 0 0 1 .355-.785l10.177 4.645a.432.432 0 0 1-.179.825M167.135 225.235a.43.43 0 0 1-.422-.35l-2.18-11.368a.43.43 0 0 1 .844-.164l2.181 11.37a.433.433 0 0 1-.423.512"/>
        <path fill="#000" d="M167.135 225.235a.432.432 0 0 1-.405-.576l3.15-8.881a.426.426 0 0 1 .55-.262c.223.08.34.327.26.552l-3.15 8.88a.43.43 0 0 1-.405.287M166.285 220.795h-.03l-8.607-.594a.433.433 0 0 1-.4-.46.437.437 0 0 1 .459-.402l8.606.594a.432.432 0 0 1-.028.862"/>
        <path fill="#DAECF9" d="M277.79 113.94h-37.169c-3.086 0-5.589 2.513-5.589 5.612 0 3.1 2.503 5.613 5.59 5.613h12.52c0 3.1 2.502 5.612 5.59 5.612h11.106c3.086 0 5.588-2.513 5.588-5.612h2.365c3.086 0 5.589-2.513 5.589-5.613 0-3.1-2.503-5.612-5.59-5.612"/>
        <path fill="#000" d="M240.621 114.372c-2.844 0-5.159 2.323-5.159 5.18 0 2.857 2.315 5.181 5.16 5.181h12.52a.43.43 0 0 1 .43.432c0 2.857 2.314 5.18 5.16 5.18h11.106c2.844 0 5.158-2.323 5.158-5.18a.43.43 0 0 1 .43-.432h2.365c2.845 0 5.158-2.324 5.158-5.18 0-2.858-2.313-5.181-5.158-5.181h-37.17zm29.217 16.837H258.73c-3.174 0-5.782-2.48-6.004-5.613h-12.106c-3.318 0-6.018-2.711-6.018-6.044 0-3.332 2.7-6.044 6.018-6.044h37.17c3.319 0 6.019 2.712 6.019 6.044 0 3.333-2.7 6.044-6.02 6.044h-1.949c-.222 3.132-2.83 5.613-6.003 5.613z"/>
        <path fill="#DAECF9" d="M175.629 8.013H158c0-3.232-2.608-5.851-5.826-5.851h-23.158c-3.217 0-5.825 2.62-5.825 5.85h-5.532c-3.218 0-5.827 2.62-5.827 5.852s2.61 5.851 5.827 5.851h21.78c0 4.198 3.387 7.602 7.566 7.602h15.042c4.18 0 7.569-3.404 7.569-7.602h6.012c3.218 0 5.825-2.62 5.825-5.851 0-3.232-2.607-5.851-5.825-5.851"/>
        <path fill="#000" d="M117.66 8.445c-2.976 0-5.397 2.43-5.397 5.419 0 2.988 2.421 5.42 5.397 5.42h21.78a.43.43 0 0 1 .429.431c0 3.954 3.202 7.17 7.137 7.17h15.042c3.936 0 7.139-3.216 7.139-7.17a.43.43 0 0 1 .43-.431h6.012c2.975 0 5.395-2.432 5.395-5.42 0-2.989-2.42-5.42-5.395-5.42H158a.43.43 0 0 1-.43-.431c0-2.988-2.42-5.42-5.396-5.42h-23.158c-2.975 0-5.396 2.432-5.396 5.42a.43.43 0 0 1-.43.432h-5.531zm44.388 19.303h-15.042c-4.265 0-7.761-3.372-7.985-7.6H117.66c-3.45 0-6.257-2.82-6.257-6.284s2.807-6.283 6.257-6.283h5.116c.221-3.264 2.936-5.851 6.241-5.851h23.158c3.305 0 6.02 2.587 6.24 5.851h17.214c3.45 0 6.255 2.819 6.255 6.283 0 3.464-2.806 6.283-6.255 6.283h-5.594c-.224 4.23-3.72 7.601-7.987 7.601z"/>
        <path fill="#DAECF9" d="M48.023 117.303c0 3.167-2.557 5.736-5.71 5.736H26.964c-3.154 0-5.711-2.569-5.711-5.736s2.557-5.735 5.711-5.735h15.347c3.154 0 5.71 2.568 5.71 5.735"/>
        <path fill="#000" d="M26.965 112c-2.912 0-5.282 2.38-5.282 5.303 0 2.925 2.37 5.304 5.282 5.304h15.347c2.912 0 5.281-2.38 5.281-5.304 0-2.924-2.369-5.304-5.28-5.304H26.964zm15.347 11.47H26.965c-3.386 0-6.141-2.766-6.141-6.167 0-3.4 2.755-6.167 6.141-6.167h15.347c3.386 0 6.14 2.767 6.14 6.167 0 3.401-2.754 6.168-6.14 6.168zM70.298 27.748H43.724a.43.43 0 0 1 0-.863h26.574a.43.43 0 0 1 .43.432.43.43 0 0 1-.43.431M294.3 66.417a.433.433 0 0 1-.357-.673 30.125 30.125 0 0 0 3.516-7.132 29.86 29.86 0 0 0 1.486-11.856.43.43 0 1 1 .857-.064c.313 4.154-.2 8.257-1.529 12.197a30.976 30.976 0 0 1-3.615 7.337.428.428 0 0 1-.357.19M292.07 29.488a.43.43 0 0 1-.327-.15 30 30 0 0 0-5.945-5.278.432.432 0 0 1-.116-.6.427.427 0 0 1 .595-.117 30.826 30.826 0 0 1 6.117 5.43.432.432 0 0 1-.324.715M251.155 24.859a.432.432 0 0 1-.255-.78 30.818 30.818 0 0 1 13.58-5.634 30.486 30.486 0 0 1 11.113.332.432.432 0 0 1-.18.844 29.658 29.658 0 0 0-10.804-.322 29.968 29.968 0 0 0-13.2 5.476.427.427 0 0 1-.254.084M239.102 44.917a.432.432 0 0 1-.426-.496 30.713 30.713 0 0 1 4.9-12.662.429.429 0 0 1 .597-.118c.197.134.25.401.117.6a29.86 29.86 0 0 0-4.763 12.308.43.43 0 0 1-.425.368M269.088 79.896a30.442 30.442 0 0 1-10.023-1.691.432.432 0 0 1 .282-.816 29.561 29.561 0 0 0 6.607 1.48c1.893.2 3.815.216 5.715.053a.431.431 0 0 1 .075.86 30.61 30.61 0 0 1-2.656.114M280.986 77.472a.431.431 0 0 1-.168-.829 30.099 30.099 0 0 0 5.74-3.238.431.431 0 0 1 .5.701 30.878 30.878 0 0 1-5.903 3.33.428.428 0 0 1-.169.036M206.497 59.358c-2.664 0-4.832 2.177-4.832 4.852 0 2.676 2.168 4.853 4.832 4.853h2.467a.43.43 0 0 1 .43.431c0 2.676 2.167 4.853 4.831 4.853h29.751c2.665 0 4.832-2.177 4.832-4.853a.43.43 0 0 1 .43-.431h8.827c2.665 0 4.834-2.177 4.834-4.853 0-2.675-2.169-4.852-4.834-4.852h-1.355a.43.43 0 0 1-.43-.432c0-2.675-2.168-4.852-4.833-4.852h-12.245c-2.664 0-4.832 2.177-4.832 4.852a.43.43 0 0 1-.43.432h-27.443zm37.479 15.852h-29.751c-2.994 0-5.455-2.333-5.675-5.284h-2.053c-3.138 0-5.692-2.564-5.692-5.716s2.554-5.715 5.692-5.715h27.029c.22-2.951 2.683-5.284 5.676-5.284h12.245c2.994 0 5.456 2.333 5.677 5.284h.941c3.14 0 5.693 2.563 5.693 5.715 0 3.152-2.554 5.716-5.693 5.716h-8.414c-.22 2.95-2.681 5.284-5.675 5.284z"/>
        <path fill="#000" d="M269.137 25.79a23.061 23.061 0 0 0-19.197 10.265c-7.105 10.618-4.283 25.06 6.29 32.194a22.925 22.925 0 0 0 12.865 3.946 23.06 23.06 0 0 0 19.198-10.263c7.103-10.619 4.28-25.062-6.292-32.197a22.925 22.925 0 0 0-12.864-3.945m-.042 47.269a23.78 23.78 0 0 1-13.345-4.093c-10.966-7.4-13.893-22.38-6.524-33.393a23.917 23.917 0 0 1 19.91-10.646c4.762 0 9.377 1.415 13.345 4.092 10.965 7.4 13.894 22.38 6.526 33.395a23.918 23.918 0 0 1-19.912 10.645M76.855 14.061h-13.2a.43.43 0 0 1-.43-.431.43.43 0 0 1 .43-.432h13.2a.43.43 0 0 1 .43.432.43.43 0 0 1-.43.431M37.705 14.061h-11.58a.43.43 0 0 1-.43-.431.43.43 0 0 1 .43-.432h11.58a.43.43 0 0 1 0 .863M95.84 21.906H84.26a.43.43 0 0 1-.43-.432.43.43 0 0 1 .43-.432H95.84a.43.43 0 0 1 .43.432.43.43 0 0 1-.43.432M55.943 10.176a.427.427 0 0 1-.304-.127L46.382.753a.432.432 0 0 1 0-.61.428.428 0 0 1 .608 0l9.257 9.296a.433.433 0 0 1-.304.737"/>
        <path fill="#000" d="M46.686 10.176a.433.433 0 0 1-.304-.737L55.64.143a.428.428 0 0 1 .608 0 .432.432 0 0 1 0 .61L46.99 10.05a.427.427 0 0 1-.304.127M191.827 56.707a.428.428 0 0 1-.304-.127l-5.243-5.264a.434.434 0 0 1 0-.611.429.429 0 0 1 .609 0l5.242 5.265a.433.433 0 0 1-.304.737"/>
        <path fill="#000" d="M186.585 56.707a.433.433 0 0 1-.304-.737l5.242-5.265a.429.429 0 0 1 .609 0 .434.434 0 0 1 0 .61l-5.243 5.265a.427.427 0 0 1-.304.127M27.186 150.957a.425.425 0 0 1-.304-.127l-5.243-5.265a.433.433 0 0 1 0-.61.428.428 0 0 1 .608 0l5.243 5.265a.433.433 0 0 1-.304.737"/>
        <path fill="#000" d="M21.943 150.957a.433.433 0 0 1-.304-.737l5.243-5.265a.428.428 0 0 1 .608 0 .433.433 0 0 1 0 .61l-5.243 5.265a.425.425 0 0 1-.304.127M269.559 159.638a.427.427 0 0 1-.304-.127l-9.257-9.296a.433.433 0 0 1 0-.61.429.429 0 0 1 .607 0l9.258 9.295a.433.433 0 0 1-.304.738"/>
        <path fill="#000" d="M260.301 159.638a.433.433 0 0 1-.304-.737l9.258-9.296a.429.429 0 0 1 .608 0 .433.433 0 0 1 0 .61l-9.258 9.296a.428.428 0 0 1-.304.127M26.125 23.863a3.45 3.45 0 0 0-3.439 3.454 3.45 3.45 0 0 0 3.44 3.453 3.45 3.45 0 0 0 3.439-3.453 3.45 3.45 0 0 0-3.44-3.454m0 7.77c-2.37 0-4.299-1.936-4.299-4.316s1.929-4.318 4.3-4.318c2.37 0 4.298 1.937 4.298 4.318 0 2.38-1.928 4.317-4.299 4.317M163.365 41.032a3.45 3.45 0 0 0-3.439 3.453 3.45 3.45 0 0 0 3.44 3.454 3.45 3.45 0 0 0 3.439-3.454 3.45 3.45 0 0 0-3.44-3.453m0 7.77c-2.37 0-4.299-1.936-4.299-4.317 0-2.38 1.93-4.317 4.3-4.317s4.299 1.937 4.299 4.317-1.93 4.318-4.3 4.318M40.994 58.93a2.243 2.243 0 0 0-2.235 2.244 2.242 2.242 0 0 0 2.235 2.245 2.242 2.242 0 0 0 2.235-2.245 2.242 2.242 0 0 0-2.235-2.245m0 5.353a3.105 3.105 0 0 1-3.095-3.108 3.105 3.105 0 0 1 3.095-3.108 3.105 3.105 0 0 1 3.095 3.108 3.105 3.105 0 0 1-3.095 3.108M284.585 136.333a2.243 2.243 0 0 0-2.236 2.245 2.243 2.243 0 0 0 2.236 2.245 2.242 2.242 0 0 0 2.235-2.245 2.242 2.242 0 0 0-2.235-2.245m0 5.353a3.105 3.105 0 0 1-3.095-3.108 3.105 3.105 0 0 1 3.095-3.108 3.106 3.106 0 0 1 3.095 3.108 3.106 3.106 0 0 1-3.095 3.108M150.014 44.917h-12.125a.43.43 0 0 1-.43-.432.43.43 0 0 1 .43-.431h12.125a.43.43 0 1 1 0 .863M294.301 102.98h-39.2a.431.431 0 0 1 0-.863h39.2a.43.43 0 0 1 0 .863M259.918 93.397h-11.635a.43.43 0 0 1-.43-.431.43.43 0 0 1 .43-.432h11.635a.43.43 0 0 1 0 .863M249.75 147.093h-11.635a.43.43 0 0 1 0-.864h11.635a.43.43 0 1 1 0 .863M55.943 44.917h-12.22a.43.43 0 0 1 0-.863h12.22a.43.43 0 0 1 0 .863M34.639 44.917h-7.08a.43.43 0 0 1 0-.863h7.08a.43.43 0 0 1 .43.431.43.43 0 0 1-.43.432M234.096 93.397h-7.08a.43.43 0 0 1-.43-.431.43.43 0 0 1 .43-.432h7.08a.43.43 0 0 1 .43.432.43.43 0 0 1-.43.431M63.654 135.593H37.705a.43.43 0 0 1-.43-.432.43.43 0 0 1 .43-.432h25.95a.43.43 0 0 1 .429.432.43.43 0 0 1-.43.432M63.654 145.739h-9.8a.431.431 0 0 1 0-.864h9.8a.43.43 0 0 1 .43.432.43.43 0 0 1-.43.432M223.4 107.05h-9.394a.43.43 0 0 1 0-.864h9.393a.431.431 0 0 1 0 .864M223.4 116.597h-9.394a.43.43 0 0 1 0-.864h9.393a.431.431 0 0 1 0 .864M189.206 64.642h-7.195a.431.431 0 0 1 0-.863h7.195a.43.43 0 0 1 0 .863M195.51 43.419h-6.303a.43.43 0 1 1 0-.863h6.302a.43.43 0 0 1 0 .863M287.25 166.42H269.56a.43.43 0 0 1-.43-.432.43.43 0 0 1 .43-.432h17.691a.431.431 0 0 1 0 .863M0 240.75h87.129v-.864H0zM159.463 240.75h-44.411a.43.43 0 0 1-.43-.432.43.43 0 0 1 .43-.432h44.41a.43.43 0 0 1 .43.432.43.43 0 0 1-.43.431M180.42 240.75h138.573v-.864H180.42zM225.026 70.078h-12.038a.43.43 0 0 1-.43-.432.43.43 0 0 1 .43-.431h12.038a.43.43 0 0 1 .43.431.43.43 0 0 1-.43.432M233.087 70.078h-4.299a.43.43 0 0 1-.43-.432.43.43 0 0 1 .43-.431h4.299a.43.43 0 0 1 .43.431.43.43 0 0 1-.43.432M262.392 125.59h-6.233a.43.43 0 0 1-.43-.431.43.43 0 0 1 .43-.432h6.233a.43.43 0 0 1 .43.432.43.43 0 0 1-.43.432M150.168 20.052h-6.878a.43.43 0 0 1-.43-.432.43.43 0 0 1 .43-.432h6.878a.43.43 0 0 1 .43.432.43.43 0 0 1-.43.432M157.37 20.052h-4.246a.43.43 0 0 1 0-.864h4.245a.43.43 0 0 1 .43.432.43.43 0 0 1-.43.432M48.023 83.462H36.296a.43.43 0 0 1-.43-.432.43.43 0 0 1 .43-.432h11.727a.43.43 0 1 1 0 .863M58.222 83.462H52.74a.43.43 0 0 1 0-.864h5.482a.43.43 0 0 1 0 .864"/>
    </g>
</svg>
