<?xml version="1.0" encoding="UTF-8" standalone="no"?>
<svg width="28px" height="32px" viewBox="0 0 28 32" version="1.1" xmlns="http://www.w3.org/2000/svg" xmlns:xlink="http://www.w3.org/1999/xlink">
    <!-- Generator: Sketch 41.2 (35397) - http://www.bohemiancoding.com/sketch -->
    <title>Page 1</title>
    <desc>Created with Sketch.</desc>
    <defs>
        <path d="M11.3198652,0.200787747 L0.405003745,8.36206618 C0.0454082397,8.63075367 -0.0262172285,9.13776613 0.244973783,9.49421377 C0.516059925,9.85066141 1.02729588,9.9215766 1.38689139,9.65288912 L11.8107566,1.85897635 L22.2346217,9.65288912 C22.3817528,9.76290125 22.5540524,9.81593168 22.7250936,9.81593168 C22.9720599,9.81593168 23.2162996,9.70498371 23.3765393,9.49421377 C23.6477303,9.13776613 23.5761049,8.63075367 23.2166142,8.36206618 L12.3016479,0.200787747 C12.1562996,0.0921273659 11.9835805,0.0378491661 11.8107566,0.0378491661 C11.6379326,0.0378491661 11.4652135,0.0921273659 11.3198652,0.200787747 Z" id="path-1"></path>
        <path d="M11.3198652,0.2121217 C11.4652135,0.103461319 11.6379326,0.0490791385 11.8107566,0.0490791385 C11.9835805,0.0490791385 12.1562996,0.103461319 12.3016479,0.2121217 L23.2167191,8.37319217 C23.4208989,8.52604458 23.5410787,8.76488945 23.5410787,9.01860364 L23.5410787,22.4577611 L25.7082996,24.6067411 C26.0265768,24.9223241 26.0265768,25.4343277 25.7081948,25.7500147 L24.1021273,27.3423832 C23.9429363,27.5001227 23.7342472,27.5791484 23.5255581,27.5791484 C23.3170787,27.5791484 23.1082846,27.5002267 22.9490936,27.3423832 L19.1420375,23.5675527 L0.896,23.5675527 C0.445588015,23.5675527 0.0806441948,23.2055941 0.0806441948,22.7592027 L0.0806441948,9.01860364 C0.0806441948,8.76488945 0.200719101,8.52604458 0.405003745,8.37319217 L11.3198652,0.2121217 Z M1.71125094,9.42163487 L1.71125094,21.9505407 L17.5114307,21.9505407 L15.7004494,20.154681 C14.7479251,20.658366 13.6793109,20.9258057 12.5691685,20.9258057 C10.7880749,20.9258057 9.11373783,20.2380739 7.85436704,18.9893634 C5.2545618,16.4115648 5.2545618,12.2171701 7.85426217,9.63937156 C9.11363296,8.39066102 10.7880749,7.70303317 12.5691685,7.70303317 C14.3502622,7.70303317 16.0245993,8.39055704 17.28397,9.63937156 C19.4037903,11.741456 19.7945318,14.9180825 18.4572434,17.4170633 L21.9102622,20.840957 L21.9102622,9.42163487 L11.8107566,1.87020632 L1.71125094,9.42163487 Z M9.00719101,17.8460898 C9.9585618,18.7893035 11.2234906,19.3090017 12.5689588,19.3090017 C13.9146367,19.3090017 15.1793558,18.7896154 16.1307266,17.8460898 C18.0948165,15.8986254 18.0948165,12.7300055 16.1307266,10.7826451 C15.1793558,9.83922347 13.9146367,9.31973327 12.5689588,9.31973327 C11.2234906,9.31973327 9.9585618,9.83922347 9.00708614,10.7826451 C7.04320599,12.7301095 7.04320599,15.8987294 9.00719101,17.8460898 Z M17.052,19.2085558 L23.5257678,25.6274208 L23.9786966,25.1783259 L17.5047191,18.7591489 C17.4331985,18.8372388 17.36,18.9141849 17.28397,18.9894673 C17.2082547,19.0646458 17.1307566,19.1375366 17.052,19.2085558 Z" id="path-3"></path>
    </defs>
    <g id="Telas" stroke="none" stroke-width="1" fill="none" fill-rule="evenodd">
        <g id="Detalhe-do-anúncio" transform="translate(-827.000000, -772.000000)">
            <g id="Group-41" transform="translate(84.000000, 768.000000)">
                <g id="Group-39" transform="translate(743.000000, 0.000000)">
                    <g id="Page-1" transform="translate(0.000000, 4.000000)">
                        <g id="Group-3" transform="translate(0.000000, 0.042008)">
                            <mask id="mask-2" fill="white">
                                <use xlink:href="#path-1"></use>
                            </mask>
                            <g id="Clip-2"></g>
                            <polygon id="Fill-1" fill="#28313B" mask="url(#mask-2)" points="-2.51685393 12.3913387 26.138367 12.3913387 26.138367 -2.53755783 -2.51685393 -2.53755783"></polygon>
                        </g>
                        <g id="Group-6" transform="translate(0.000000, 3.473389)">
                            <mask id="mask-4" fill="white">
                                <use xlink:href="#path-3"></use>
                            </mask>
                            <g id="Clip-5"></g>
                            <polygon id="Fill-4" fill="#28313B" mask="url(#mask-4)" points="-2.51674906 30.1545554 28.5443745 30.1545554 28.5443745 -2.52632786 -2.51674906 -2.52632786"></polygon>
                        </g>
                        <polygon id="Fill-7" fill="#FFFFFF" points="21.937182 25.4375615 5.83980375 25.4375615 4.58137678 12.8038426 13.0757588 10.5162556 21.937182 12.8558332 21.937182 15.4858303"></polygon>
                        <polygon id="Fill-8" fill="#FFFFFF" points="23.4354547 31.4684726 15.5401888 23.4498564 18.6324584 21.1743313 27.9147206 30.0597349"></polygon>
                        <path d="M9.54233708,18.0609566 L21.8083296,30.4691402 L25.1527041,27.2186871 L12.8978277,14.8217335 L9.54233708,18.0609566 Z M10.1468015,18.0669875 L12.8939476,15.3970616 L20.7466367,23.3408113 L24.5622921,27.2006984 L21.8151461,29.8707283 L21.216764,29.2652456 L22.5903371,27.9303346 L22.2911461,27.6277493 L20.9176779,28.9626602 L20.319191,28.3573855 L21.692764,27.0223706 L21.393573,26.7196812 L20.02,28.0546962 L19.421618,27.4494215 L20.795191,26.1144065 L20.496,25.8118211 L19.1225318,27.1467321 L18.5240449,26.5413534 L19.897618,25.2064424 L19.5983221,24.9037531 L18.2248539,26.2386641 L17.6265768,25.6333893 L19.0000449,24.2984784 L18.7007491,23.995685 L17.3272809,25.330804 L16.728794,24.7253213 L18.102367,23.3904103 L17.803176,23.087721 L16.4297079,24.4227359 L15.8311161,23.8172533 L17.2046891,22.4822383 L16.905603,22.1797569 L15.53203,23.5145639 L14.9337528,22.9094972 L16.3073258,21.5744822 L16.0081348,21.2718968 L14.6346667,22.6068078 L14.0361798,22.0015331 L15.4097528,20.6665181 L15.1105618,20.3639328 L13.7370936,21.6989477 L13.1386067,21.0934651 L14.5121798,19.7586581 L14.2129888,19.4558647 L12.8395206,20.7908797 L12.2412434,20.185709 L13.6147116,18.850694 L13.3155206,18.5480047 L11.9419476,19.8830196 L11.3435655,19.2777449 L12.7171386,17.942626 L12.4179476,17.6401446 L11.0444794,18.9750555 L10.1468015,18.0669875 Z" id="Fill-9" fill="#28313B"></path>
                    </g>
                </g>
            </g>
        </g>
    </g>
</svg>