<svg xmlns="http://www.w3.org/2000/svg" xmlns:xlink="http://www.w3.org/1999/xlink" width="28" height="32" viewBox="0 0 28 32">
    <defs>
        <path id="a" d="M11.32.2L.405 8.363a.804.804 0 0 0-.16 1.132.82.82 0 0 0 1.142.159L11.81 1.859l10.424 7.794a.816.816 0 0 0 1.142-.159.804.804 0 0 0-.16-1.132L12.302.201a.819.819 0 0 0-.982 0z"/>
        <path id="c" d="M11.32.212a.819.819 0 0 1 .982 0l10.915 8.161a.806.806 0 0 1 .324.646v13.439l2.167 2.149a.804.804 0 0 1 0 1.143l-1.606 1.592a.817.817 0 0 1-1.153 0l-3.807-3.774H.896a.812.812 0 0 1-.815-.809V9.02c0-.254.12-.493.324-.646L11.32.213zM1.71 9.422V21.95h15.8l-1.81-1.796a6.68 6.68 0 0 1-3.132.77 6.653 6.653 0 0 1-4.715-1.936 6.58 6.58 0 0 1 0-9.35 6.653 6.653 0 0 1 4.715-1.936c1.781 0 3.456.688 4.715 1.936a6.582 6.582 0 0 1 1.173 7.778l3.453 3.424V9.421l-10.1-7.55L1.712 9.42zm7.296 8.424a5.026 5.026 0 0 0 3.562 1.463c1.346 0 2.61-.52 3.562-1.463a4.97 4.97 0 0 0 0-7.063 5.025 5.025 0 0 0-3.562-1.463c-1.346 0-2.61.52-3.562 1.463a4.97 4.97 0 0 0 0 7.063zm8.045 1.363l6.474 6.418.453-.449-6.474-6.419a6.527 6.527 0 0 1-.453.45z"/>
    </defs>
    <g fill="none" fill-rule="evenodd">
        <g transform="translate(0 .042)">
            <mask id="b" fill="#fff">
                <use xlink:href="#a"/>
            </mask>
            <path fill="#28313B" d="M-2.517 12.391h28.655V-2.538H-2.517z" mask="url(#b)"/>
        </g>
        <g transform="translate(0 3.473)">
            <mask id="d" fill="#fff">
                <use xlink:href="#c"/>
            </mask>
            <path fill="#28313B" d="M-2.517 30.155h31.061V-2.526h-31.06z" mask="url(#d)"/>
        </g>
        <path fill="#FFF" d="M21.937 25.438H5.84L4.58 12.804l8.495-2.288 8.861 2.34v2.63z"/>
        <path fill="#FFF" d="M23.435 31.468L15.54 23.45l3.092-2.276 9.283 8.886z"/>
        <path fill="#28313B" d="M9.542 18.061l12.266 12.408 3.345-3.25-12.255-12.397-3.356 3.239zm.605.006l2.747-2.67 7.853 7.944 3.815 3.86-2.747 2.67-.598-.606 1.373-1.335-.299-.302-1.373 1.335-.599-.606 1.374-1.335-.3-.302-1.373 1.335-.598-.606 1.373-1.335-.299-.302-1.373 1.335-.599-.606 1.374-1.335-.3-.302-1.373 1.335-.598-.606L19 24.298l-.3-.302-1.373 1.335-.598-.606 1.373-1.335-.299-.302-1.373 1.335-.599-.606 1.374-1.335-.3-.302-1.373 1.335-.598-.606 1.373-1.335-.299-.302-1.373 1.335-.599-.605 1.374-1.335-.3-.303-1.373 1.335-.598-.606 1.373-1.334-.299-.303-1.373 1.335-.599-.605 1.374-1.335-.3-.303-1.373 1.335-.598-.605 1.373-1.335-.3-.303-1.373 1.335-.897-.908z"/>
    </g>
</svg>
