<?xml version="1.0" encoding="UTF-8" standalone="no"?>
<svg width="28px" height="21px" viewBox="0 0 28 21" version="1.1" xmlns="http://www.w3.org/2000/svg" xmlns:xlink="http://www.w3.org/1999/xlink">
    <!-- Generator: Sketch 41.2 (35397) - http://www.bohemiancoding.com/sketch -->
    <title>Group 50</title>
    <desc>Created with Sketch.</desc>
    <defs></defs>
    <g id="Symbols" stroke="none" stroke-width="1" fill="none" fill-rule="evenodd">
        <g id="ativo-card" transform="translate(-188.000000, -91.000000)">
            <g id="Group-2" transform="translate(188.000000, 62.000000)">
                <g id="Group-55" transform="translate(0.000000, 29.000000)">
                    <g id="Group-50">
                        <g id="Group-53">
                            <rect id="Rectangle-406-Copy-3" fill="#0084FF" x="0" y="0" width="27.0666667" height="20.6692209" rx="2"></rect>
                            <g id="facebook-messenger" transform="translate(9.022222, 6.079183)" fill="#FFFFFF">
                                <path d="M4.51111111,0 C2.01968889,0 0,1.89009106 0,4.2216546 C0,5.55020931 0.655988406,6.7352559 1.68115942,7.50911333 L1.68115942,9.11877395 L3.21715072,8.26675961 C3.62707343,8.38141975 4.06134493,8.44330921 4.51111111,8.44330921 C7.00253333,8.44330921 9.02222222,6.55321815 9.02222222,4.2216546 C9.02222222,1.89009106 7.00253333,0 4.51111111,0 Z M4.95942029,5.68516153 L3.81062802,4.44680952 L1.56908213,5.68516153 L4.03478261,3.03959132 L5.2115942,4.27794333 L7.42512077,3.03959132 L4.95942029,5.68516153 Z" id="Shape"></path>
                            </g>
                        </g>
                    </g>
                </g>
            </g>
        </g>
    </g>
</svg>