<?xml version="1.0" encoding="UTF-8" standalone="no"?>
<svg width="25px" height="24px" viewBox="0 0 25 24" version="1.1" xmlns="http://www.w3.org/2000/svg" xmlns:xlink="http://www.w3.org/1999/xlink">
    <!-- Generator: Sketch 41.2 (35397) - http://www.bohemiancoding.com/sketch -->
    <title>Group 5</title>
    <desc>Created with Sketch.</desc>
    <defs></defs>
    <g id="Telas" stroke="none" stroke-width="1" fill="none" fill-rule="evenodd">
        <g id="Contato" transform="translate(-695.000000, -992.000000)">
            <g id="Group-15" transform="translate(-59.000000, 678.000000)">
                <g id="Group-12" transform="translate(754.000000, 314.000000)">
                    <g id="Group-5">
                        <path d="M24.3271932,11.7612259 C24.3271932,18.2566794 18.8813187,23.5222419 12.1637052,23.5222419 C5.4458745,23.5222419 0,18.2566794 0,11.7612259 C0,5.2659824 5.4458745,0 12.1637052,0 C18.8813187,0 24.3271932,5.2659824 24.3271932,11.7612259" id="Fill-3" fill="#5D77AD"></path>
                        <path d="M13.3362151,9.00856283 L13.3362151,7.89456464 C13.3362151,7.35163224 13.7105498,7.22524194 13.9732789,7.22524194 L15.5896056,7.22524194 L15.5896056,4.83810296 L13.3635737,4.82886513 C10.8928347,4.82886513 10.3313327,6.60966661 10.3313327,7.74927878 L10.3313327,9.00856283 L8.90239044,9.00856283 L8.90239044,11.7946081 L10.3432749,11.7946081 L10.3432749,18.7605609 L13.2248267,18.7605609 L13.2248267,11.7946081 L15.3635717,11.7946081 L15.6260837,9.00856283 L13.3362151,9.00856283" id="Fill-4" fill="#FFFFFF"></path>
                    </g>
                </g>
            </g>
        </g>
    </g>
</svg>