<?xml version="1.0" encoding="UTF-8" standalone="no"?>
<svg width="25px" height="24px" viewBox="0 0 25 24" version="1.1" xmlns="http://www.w3.org/2000/svg" xmlns:xlink="http://www.w3.org/1999/xlink">
    <!-- Generator: Sketch 41.2 (35397) - http://www.bohemiancoding.com/sketch -->
    <title>Group 6</title>
    <desc>Created with Sketch.</desc>
    <defs></defs>
    <g id="Telas" stroke="none" stroke-width="1" fill="none" fill-rule="evenodd">
        <g id="Contato" transform="translate(-732.000000, -992.000000)">
            <g id="Group-15" transform="translate(-59.000000, 678.000000)">
                <g id="Group-12" transform="translate(754.000000, 314.000000)">
                    <g id="Group-6" transform="translate(37.000000, 0.000000)">
                        <path d="M24.3265418,11.7612259 C24.3265418,18.2570993 18.8808845,23.5228717 12.1632709,23.5228717 C5.44522311,23.5228717 0,18.2570993 0,11.7612259 C0,5.2659824 5.44522311,0 12.1632709,0 C18.8808845,0 24.3265418,5.2659824 24.3265418,11.7612259" id="Fill-21" fill="#308CBC"></path>
                        <polyline id="Fill-22" fill="#FFFFFF" points="5.21115538 11.2827484 5.21115538 18.1057248 8.57343625 18.1057248 8.57343625 8.81792763 5.21115538 8.81792763 5.21115538 11.2827484"></polyline>
                        <path d="M6.89240438,4.19901316 C5.9639502,4.19901316 5.21115538,4.92691209 5.21115538,5.82445115 C5.21115538,6.72220016 5.9639502,7.44967919 6.89240438,7.44967919 C7.82085857,7.44967919 8.57343625,6.72220016 8.57343625,5.82445115 C8.57343625,4.92691209 7.82085857,4.19901316 6.89240438,4.19901316" id="Fill-23" fill="#FFFFFF"></path>
                        <path d="M19.6907849,11.6696874 C19.4630139,9.91911883 18.6316175,8.81792763 16.1838944,8.81792763 C14.7321534,8.81792763 13.7572331,9.33944507 13.3585797,10.0713331 L13.3171076,10.0713331 L13.3171076,8.81792763 L10.6394422,8.81792763 L10.6394422,18.1057248 L13.4382669,18.1057248 L13.4382669,13.5023467 C13.4382669,12.2882021 13.6755916,11.1131082 15.2282988,11.1131082 C16.7586414,11.1131082 16.881755,12.5008821 16.881755,13.5806583 L16.881755,18.1057248 L19.7639582,18.1057248 L19.7639582,13.0018243 L19.7643924,13.0018243 C19.7643924,12.5258662 19.7439821,12.079931 19.6907849,11.6696874" id="Fill-24" fill="#FFFFFF"></path>
                    </g>
                </g>
            </g>
        </g>
    </g>
</svg>