<?xml version="1.0" encoding="UTF-8" standalone="no"?>
<svg width="25px" height="24px" viewBox="0 0 25 24" version="1.1" xmlns="http://www.w3.org/2000/svg" xmlns:xlink="http://www.w3.org/1999/xlink">
    <!-- Generator: Sketch 41.2 (35397) - http://www.bohemiancoding.com/sketch -->
    <title>Group 8</title>
    <desc>Created with Sketch.</desc>
    <defs></defs>
    <g id="Telas" stroke="none" stroke-width="1" fill="none" fill-rule="evenodd">
        <g id="Contato" transform="translate(-807.000000, -992.000000)">
            <g id="Group-15" transform="translate(-59.000000, 678.000000)">
                <g id="Group-12" transform="translate(754.000000, 314.000000)">
                    <g id="Group-8" transform="translate(112.000000, 0.000000)">
                        <path d="M24.3269761,11.7612259 C24.3269761,18.2566794 18.8813187,23.5222419 12.1637052,23.5222419 C5.44565737,23.5222419 0,18.2566794 0,11.7612259 C0,5.2659824 5.44565737,0 12.1637052,0 C18.8813187,0 24.3269761,5.2659824 24.3269761,11.7612259" id="Fill-10" fill="#E05649"></path>
                        <path d="M14.6023088,11.4681348 L10.7110956,13.501087 L10.71001,10.3713525 L10.71001,9.41985617 L14.6023088,11.4681348 Z M19.2573904,8.7121125 C19.2573904,8.7121125 19.1169064,7.71022796 18.6854661,7.26954153 C18.1374263,6.69196727 17.5231614,6.68818816 17.2426275,6.65459605 C15.2250418,6.50847039 12.2017032,6.50847039 12.2017032,6.50847039 L12.1949721,6.50847039 C12.1949721,6.50847039 9.16967928,6.50847039 7.15426494,6.65543586 C6.87264542,6.68818816 6.25946614,6.69196727 5.71034064,7.26996143 C5.27933466,7.71064786 5.13863347,8.7125324 5.13863347,8.7125324 C5.13863347,8.7125324 4.9940239,9.88741628 4.9940239,11.0633499 L4.9940239,12.1647511 C4.9940239,13.3411046 5.13863347,14.5166183 5.13863347,14.5166183 C5.13863347,14.5166183 5.27933466,15.517873 5.71034064,15.9583495 C6.25946614,16.5369735 6.97990837,16.5184979 7.2995259,16.5785437 C8.45249402,16.6898176 12.1982291,16.7248794 12.1982291,16.7248794 C12.1982291,16.7248794 15.2250418,16.7196306 17.2426275,16.5735049 C17.5231614,16.5394929 18.1374263,16.5369735 18.6854661,15.9577197 C19.1169064,15.5172432 19.2573904,14.5164084 19.2573904,14.5164084 C19.2573904,14.5164084 19.4022171,13.3411046 19.4022171,12.1647511 L19.4022171,11.0633499 C19.4022171,9.88741628 19.2573904,8.7121125 19.2573904,8.7121125 L19.2573904,8.7121125 Z" id="Fill-11" fill="#FFFFFF"></path>
                    </g>
                </g>
            </g>
        </g>
    </g>
</svg>